<ttFont>
    <TTGlyph name=".notdef" xMin="97" yMin="-220" xMax="557" yMax="1030">
      <contour>
        <pt x="97" y="1030" on="1"/>
        <pt x="557" y="1030" on="1"/>
        <pt x="557" y="-220" on="1"/>
        <pt x="97" y="-220" on="1"/>
      </contour>
      <contour>
        <pt x="510" y="-174" on="1"/>
        <pt x="510" y="985" on="1"/>
        <pt x="143" y="985" on="1"/>
        <pt x="143" y="-174" on="1"/>
      </contour>
    </TTGlyph>
    <TTGlyph name="A" xMin="9" yMin="0" xMax="559" yMax="740">
      <contour>
        <pt x="9" y="6" on="1"/>
        <pt x="252" y="740" on="1"/>
        <pt x="316" y="740" on="1"/>
        <pt x="559" y="6" on="1"/>
        <pt x="559" y="0" on="1"/>
        <pt x="514" y="0" on="1"/>
        <pt x="433" y="242" on="1"/>
        <pt x="135" y="242" on="1"/>
        <pt x="55" y="0" on="1"/>
        <pt x="9" y="0" on="1"/>
      </contour>
      <contour>
        <pt x="420" y="285" on="1"/>
        <pt x="322" y="579" on="1"/>
        <pt x="286" y="694" on="1"/>
        <pt x="282" y="694" on="1"/>
        <pt x="246" y="579" on="1"/>
        <pt x="148" y="285" on="1"/>
      </contour>
    </TTGlyph>
    <TTGlyph name="A.sc" xMin="15" yMin="0" xMax="496" yMax="577">
      <contour>
        <pt x="15" y="5" on="1"/>
        <pt x="224" y="577" on="1"/>
        <pt x="288" y="577" on="1"/>
        <pt x="496" y="5" on="1"/>
        <pt x="496" y="0" on="1"/>
        <pt x="451" y="0" on="1"/>
        <pt x="384" y="184" on="1"/>
        <pt x="127" y="184" on="1"/>
        <pt x="59" y="0" on="1"/>
        <pt x="15" y="0" on="1"/>
      </contour>
      <contour>
        <pt x="371" y="222" on="1"/>
        <pt x="289" y="447" on="1"/>
        <pt x="257" y="536" on="1"/>
        <pt x="253" y="536" on="1"/>
        <pt x="223" y="447" on="1"/>
        <pt x="139" y="222" on="1"/>
      </contour>
    </TTGlyph>
    <TTGlyph name="AE" xMin="8" yMin="0" xMax="723" yMax="740">
      <contour>
        <pt x="8" y="6" on="1"/>
        <pt x="273" y="740" on="1"/>
        <pt x="714" y="740" on="1"/>
        <pt x="714" y="697" on="1"/>
        <pt x="402" y="697" on="1"/>
        <pt x="415" y="397" on="1"/>
        <pt x="683" y="397" on="1"/>
        <pt x="683" y="354" on="1"/>
        <pt x="417" y="354" on="1"/>
        <pt x="432" y="43" on="1"/>
        <pt x="723" y="43" on="1"/>
        <pt x="723" y="0" on="1"/>
        <pt x="386" y="0" on="1"/>
        <pt x="376" y="242" on="1"/>
        <pt x="141" y="242" on="1"/>
        <pt x="54" y="0" on="1"/>
        <pt x="8" y="0" on="1"/>
      </contour>
      <contour>
        <pt x="157" y="286" on="1"/>
        <pt x="374" y="286" on="1"/>
        <pt x="357" y="697" on="1"/>
        <pt x="306" y="697" on="1"/>
      </contour>
    </TTGlyph>
    <TTGlyph name="AE.sc" xMin="18" yMin="0" xMax="640" yMax="577">
      <contour>
        <pt x="18" y="5" on="1"/>
        <pt x="246" y="577" on="1"/>
        <pt x="633" y="577" on="1"/>
        <pt x="633" y="537" on="1"/>
        <pt x="365" y="537" on="1"/>
        <pt x="376" y="313" on="1"/>
        <pt x="606" y="313" on="1"/>
        <pt x="606" y="273" on="1"/>
        <pt x="379" y="273" on="1"/>
        <pt x="391" y="41" on="1"/>
        <pt x="640" y="41" on="1"/>
        <pt x="640" y="0" on="1"/>
        <pt x="346" y="0" on="1"/>
        <pt x="338" y="184" on="1"/>
        <pt x="137" y="184" on="1"/>
        <pt x="63" y="0" on="1"/>
        <pt x="18" y="0" on="1"/>
      </contour>
      <contour>
        <pt x="153" y="223" on="1"/>
        <pt x="336" y="223" on="1"/>
        <pt x="322" y="537" on="1"/>
        <pt x="279" y="537" on="1"/>
      </contour>
    </TTGlyph>
    <TTGlyph name="AEacute" xMin="8" yMin="0" xMax="723" yMax="921">
      <contour>
        <pt x="441" y="794" on="1"/>
        <pt x="518" y="921" on="1"/>
        <pt x="568" y="921" on="1"/>
        <pt x="481" y="789" on="1"/>
      </contour>
      <contour>
        <pt x="8" y="6" on="1"/>
        <pt x="273" y="740" on="1"/>
        <pt x="714" y="740" on="1"/>
        <pt x="714" y="697" on="1"/>
        <pt x="402" y="697" on="1"/>
        <pt x="415" y="397" on="1"/>
        <pt x="683" y="397" on="1"/>
        <pt x="683" y="354" on="1"/>
        <pt x="417" y="354" on="1"/>
        <pt x="432" y="43" on="1"/>
        <pt x="723" y="43" on="1"/>
        <pt x="723" y="0" on="1"/>
        <pt x="386" y="0" on="1"/>
        <pt x="376" y="242" on="1"/>
        <pt x="141" y="242" on="1"/>
        <pt x="54" y="0" on="1"/>
        <pt x="8" y="0" on="1"/>
      </contour>
      <contour>
        <pt x="157" y="286" on="1"/>
        <pt x="374" y="286" on="1"/>
        <pt x="357" y="697" on="1"/>
        <pt x="306" y="697" on="1"/>
      </contour>
    </TTGlyph>
    <TTGlyph name="AEacute.sc" xMin="18" yMin="0" xMax="640" yMax="723">
      <contour>
        <pt x="18" y="5" on="1"/>
        <pt x="246" y="577" on="1"/>
        <pt x="633" y="577" on="1"/>
        <pt x="633" y="537" on="1"/>
        <pt x="365" y="537" on="1"/>
        <pt x="376" y="313" on="1"/>
        <pt x="606" y="313" on="1"/>
        <pt x="606" y="273" on="1"/>
        <pt x="379" y="273" on="1"/>
        <pt x="391" y="41" on="1"/>
        <pt x="640" y="41" on="1"/>
        <pt x="640" y="0" on="1"/>
        <pt x="346" y="0" on="1"/>
        <pt x="338" y="184" on="1"/>
        <pt x="137" y="184" on="1"/>
        <pt x="63" y="0" on="1"/>
        <pt x="18" y="0" on="1"/>
      </contour>
      <contour>
        <pt x="336" y="223" on="1"/>
        <pt x="322" y="537" on="1"/>
        <pt x="279" y="537" on="1"/>
        <pt x="153" y="223" on="1"/>
      </contour>
      <contour>
        <pt x="390" y="620" on="1"/>
        <pt x="456" y="723" on="1"/>
        <pt x="505" y="723" on="1"/>
        <pt x="428" y="617" on="1"/>
      </contour>
    </TTGlyph>
    <TTGlyph name="Aacute" xMin="9" yMin="0" xMax="559" yMax="921">
      <contour>
        <pt x="9" y="6" on="1"/>
        <pt x="252" y="740" on="1"/>
        <pt x="316" y="740" on="1"/>
        <pt x="559" y="6" on="1"/>
        <pt x="559" y="0" on="1"/>
        <pt x="514" y="0" on="1"/>
        <pt x="433" y="242" on="1"/>
        <pt x="135" y="242" on="1"/>
        <pt x="55" y="0" on="1"/>
        <pt x="9" y="0" on="1"/>
      </contour>
      <contour>
        <pt x="420" y="285" on="1"/>
        <pt x="322" y="579" on="1"/>
        <pt x="286" y="694" on="1"/>
        <pt x="282" y="694" on="1"/>
        <pt x="246" y="579" on="1"/>
        <pt x="148" y="285" on="1"/>
      </contour>
      <contour>
        <pt x="261" y="794" on="1"/>
        <pt x="338" y="921" on="1"/>
        <pt x="388" y="921" on="1"/>
        <pt x="301" y="789" on="1"/>
      </contour>
    </TTGlyph>
    <TTGlyph name="Aacute.sc" xMin="15" yMin="0" xMax="496" yMax="723">
      <contour>
        <pt x="15" y="5" on="1"/>
        <pt x="224" y="577" on="1"/>
        <pt x="288" y="577" on="1"/>
        <pt x="496" y="5" on="1"/>
        <pt x="496" y="0" on="1"/>
        <pt x="451" y="0" on="1"/>
        <pt x="384" y="184" on="1"/>
        <pt x="127" y="184" on="1"/>
        <pt x="59" y="0" on="1"/>
        <pt x="15" y="0" on="1"/>
      </contour>
      <contour>
        <pt x="371" y="223" on="1"/>
        <pt x="289" y="447" on="1"/>
        <pt x="257" y="536" on="1"/>
        <pt x="253" y="536" on="1"/>
        <pt x="223" y="447" on="1"/>
        <pt x="139" y="223" on="1"/>
      </contour>
      <contour>
        <pt x="233" y="620" on="1"/>
        <pt x="299" y="723" on="1"/>
        <pt x="347" y="723" on="1"/>
        <pt x="271" y="617" on="1"/>
      </contour>
    </TTGlyph>
    <TTGlyph name="Abreve" xMin="9" yMin="0" xMax="559" yMax="950">
      <contour>
        <pt x="9" y="6" on="1"/>
        <pt x="252" y="740" on="1"/>
        <pt x="316" y="740" on="1"/>
        <pt x="559" y="6" on="1"/>
        <pt x="559" y="0" on="1"/>
        <pt x="514" y="0" on="1"/>
        <pt x="433" y="242" on="1"/>
        <pt x="135" y="242" on="1"/>
        <pt x="55" y="0" on="1"/>
        <pt x="9" y="0" on="1"/>
      </contour>
      <contour>
        <pt x="420" y="285" on="1"/>
        <pt x="322" y="579" on="1"/>
        <pt x="286" y="694" on="1"/>
        <pt x="282" y="694" on="1"/>
        <pt x="246" y="579" on="1"/>
        <pt x="148" y="285" on="1"/>
      </contour>
      <contour>
        <pt x="285" y="815" on="1"/>
        <pt x="216" y="815" on="0"/>
        <pt x="138" y="887" on="0"/>
        <pt x="138" y="950" on="1"/>
        <pt x="179" y="950" on="1"/>
        <pt x="179" y="904" on="0"/>
        <pt x="234" y="853" on="0"/>
        <pt x="285" y="853" on="1"/>
        <pt x="336" y="853" on="0"/>
        <pt x="391" y="904" on="0"/>
        <pt x="391" y="950" on="1"/>
        <pt x="433" y="950" on="1"/>
        <pt x="433" y="887" on="0"/>
        <pt x="355" y="815" on="0"/>
      </contour>
    </TTGlyph>
    <TTGlyph name="Abreve.sc" xMin="15" yMin="0" xMax="496" yMax="744">
      <contour>
        <pt x="257" y="634" on="1"/>
        <pt x="195" y="634" on="0"/>
        <pt x="127" y="693" on="0"/>
        <pt x="127" y="744" on="1"/>
        <pt x="166" y="744" on="1"/>
        <pt x="166" y="706" on="0"/>
        <pt x="213" y="667" on="0"/>
        <pt x="257" y="667" on="1"/>
        <pt x="300" y="667" on="0"/>
        <pt x="347" y="706" on="0"/>
        <pt x="347" y="744" on="1"/>
        <pt x="386" y="744" on="1"/>
        <pt x="386" y="693" on="0"/>
        <pt x="318" y="634" on="0"/>
      </contour>
      <contour>
        <pt x="15" y="5" on="1"/>
        <pt x="224" y="577" on="1"/>
        <pt x="288" y="577" on="1"/>
        <pt x="496" y="5" on="1"/>
        <pt x="496" y="0" on="1"/>
        <pt x="451" y="0" on="1"/>
        <pt x="384" y="184" on="1"/>
        <pt x="127" y="184" on="1"/>
        <pt x="59" y="0" on="1"/>
        <pt x="15" y="0" on="1"/>
      </contour>
      <contour>
        <pt x="371" y="223" on="1"/>
        <pt x="289" y="447" on="1"/>
        <pt x="257" y="536" on="1"/>
        <pt x="253" y="536" on="1"/>
        <pt x="223" y="447" on="1"/>
        <pt x="139" y="223" on="1"/>
      </contour>
    </TTGlyph>
    <TTGlyph name="Acircumflex" xMin="9" yMin="0" xMax="559" yMax="936">
      <contour>
        <pt x="9" y="6" on="1"/>
        <pt x="252" y="740" on="1"/>
        <pt x="316" y="740" on="1"/>
        <pt x="559" y="6" on="1"/>
        <pt x="559" y="0" on="1"/>
        <pt x="514" y="0" on="1"/>
        <pt x="433" y="242" on="1"/>
        <pt x="135" y="242" on="1"/>
        <pt x="55" y="0" on="1"/>
        <pt x="9" y="0" on="1"/>
      </contour>
      <contour>
        <pt x="420" y="285" on="1"/>
        <pt x="322" y="579" on="1"/>
        <pt x="286" y="694" on="1"/>
        <pt x="282" y="694" on="1"/>
        <pt x="246" y="579" on="1"/>
        <pt x="148" y="285" on="1"/>
      </contour>
      <contour>
        <pt x="152" y="864" on="1"/>
        <pt x="285" y="936" on="1"/>
        <pt x="418" y="864" on="1"/>
        <pt x="418" y="817" on="1"/>
        <pt x="285" y="889" on="1"/>
        <pt x="152" y="817" on="1"/>
      </contour>
    </TTGlyph>
    <TTGlyph name="Acircumflex.sc" xMin="15" yMin="0" xMax="496" yMax="734">
      <contour>
        <pt x="15" y="5" on="1"/>
        <pt x="224" y="577" on="1"/>
        <pt x="288" y="577" on="1"/>
        <pt x="496" y="5" on="1"/>
        <pt x="496" y="0" on="1"/>
        <pt x="451" y="0" on="1"/>
        <pt x="384" y="184" on="1"/>
        <pt x="127" y="184" on="1"/>
        <pt x="59" y="0" on="1"/>
        <pt x="15" y="0" on="1"/>
      </contour>
      <contour>
        <pt x="371" y="223" on="1"/>
        <pt x="289" y="447" on="1"/>
        <pt x="257" y="536" on="1"/>
        <pt x="253" y="536" on="1"/>
        <pt x="223" y="447" on="1"/>
        <pt x="139" y="223" on="1"/>
      </contour>
      <contour>
        <pt x="139" y="677" on="1"/>
        <pt x="256" y="734" on="1"/>
        <pt x="373" y="677" on="1"/>
        <pt x="373" y="635" on="1"/>
        <pt x="256" y="691" on="1"/>
        <pt x="139" y="635" on="1"/>
      </contour>
    </TTGlyph>
    <TTGlyph name="Adblgrave" xMin="9" yMin="0" xMax="559" yMax="918">
      <contour>
        <pt x="9" y="6" on="1"/>
        <pt x="252" y="740" on="1"/>
        <pt x="316" y="740" on="1"/>
        <pt x="559" y="6" on="1"/>
        <pt x="559" y="0" on="1"/>
        <pt x="514" y="0" on="1"/>
        <pt x="433" y="242" on="1"/>
        <pt x="135" y="242" on="1"/>
        <pt x="55" y="0" on="1"/>
        <pt x="9" y="0" on="1"/>
      </contour>
      <contour>
        <pt x="420" y="285" on="1"/>
        <pt x="322" y="579" on="1"/>
        <pt x="286" y="694" on="1"/>
        <pt x="282" y="694" on="1"/>
        <pt x="246" y="579" on="1"/>
        <pt x="148" y="285" on="1"/>
      </contour>
      <contour>
        <pt x="201" y="787" on="1"/>
        <pt x="113" y="918" on="1"/>
        <pt x="161" y="918" on="1"/>
        <pt x="238" y="801" on="1"/>
      </contour>
      <contour>
        <pt x="334" y="787" on="1"/>
        <pt x="246" y="918" on="1"/>
        <pt x="294" y="918" on="1"/>
        <pt x="372" y="801" on="1"/>
      </contour>
    </TTGlyph>
    <TTGlyph name="Adblgrave.sc" xMin="15" yMin="0" xMax="496" yMax="721">
      <contour>
        <pt x="15" y="5" on="1"/>
        <pt x="224" y="577" on="1"/>
        <pt x="288" y="577" on="1"/>
        <pt x="496" y="5" on="1"/>
        <pt x="496" y="0" on="1"/>
        <pt x="451" y="0" on="1"/>
        <pt x="384" y="184" on="1"/>
        <pt x="127" y="184" on="1"/>
        <pt x="59" y="0" on="1"/>
        <pt x="15" y="0" on="1"/>
      </contour>
      <contour>
        <pt x="371" y="223" on="1"/>
        <pt x="289" y="447" on="1"/>
        <pt x="257" y="536" on="1"/>
        <pt x="253" y="536" on="1"/>
        <pt x="223" y="447" on="1"/>
        <pt x="139" y="223" on="1"/>
      </contour>
      <contour>
        <pt x="105" y="721" on="1"/>
        <pt x="151" y="721" on="1"/>
        <pt x="217" y="625" on="1"/>
        <pt x="181" y="615" on="1"/>
      </contour>
      <contour>
        <pt x="222" y="721" on="1"/>
        <pt x="267" y="721" on="1"/>
        <pt x="333" y="625" on="1"/>
        <pt x="298" y="615" on="1"/>
      </contour>
    </TTGlyph>
    <TTGlyph name="Adieresis" xMin="9" yMin="0" xMax="559" yMax="889">
      <contour>
        <pt x="9" y="6" on="1"/>
        <pt x="252" y="740" on="1"/>
        <pt x="316" y="740" on="1"/>
        <pt x="559" y="6" on="1"/>
        <pt x="559" y="0" on="1"/>
        <pt x="514" y="0" on="1"/>
        <pt x="433" y="242" on="1"/>
        <pt x="135" y="242" on="1"/>
        <pt x="55" y="0" on="1"/>
        <pt x="9" y="0" on="1"/>
      </contour>
      <contour>
        <pt x="420" y="285" on="1"/>
        <pt x="322" y="579" on="1"/>
        <pt x="286" y="694" on="1"/>
        <pt x="282" y="694" on="1"/>
        <pt x="246" y="579" on="1"/>
        <pt x="148" y="285" on="1"/>
      </contour>
      <contour>
        <pt x="186" y="817" on="1"/>
        <pt x="170" y="817" on="0"/>
        <pt x="150" y="834" on="0"/>
        <pt x="150" y="853" on="1"/>
        <pt x="150" y="872" on="0"/>
        <pt x="170" y="889" on="0"/>
        <pt x="186" y="889" on="1"/>
        <pt x="201" y="889" on="0"/>
        <pt x="222" y="872" on="0"/>
        <pt x="222" y="853" on="1"/>
        <pt x="222" y="834" on="0"/>
        <pt x="201" y="817" on="0"/>
      </contour>
      <contour>
        <pt x="384" y="817" on="1"/>
        <pt x="367" y="817" on="0"/>
        <pt x="347" y="834" on="0"/>
        <pt x="347" y="853" on="1"/>
        <pt x="347" y="872" on="0"/>
        <pt x="367" y="889" on="0"/>
        <pt x="384" y="889" on="1"/>
        <pt x="398" y="889" on="0"/>
        <pt x="420" y="872" on="0"/>
        <pt x="420" y="853" on="1"/>
        <pt x="420" y="834" on="0"/>
        <pt x="398" y="817" on="0"/>
      </contour>
    </TTGlyph>
    <TTGlyph name="Adieresis.sc" xMin="15" yMin="0" xMax="496" yMax="701">
      <contour>
        <pt x="168" y="637" on="1"/>
        <pt x="153" y="637" on="0"/>
        <pt x="135" y="652" on="0"/>
        <pt x="135" y="669" on="1"/>
        <pt x="135" y="686" on="0"/>
        <pt x="153" y="701" on="0"/>
        <pt x="168" y="701" on="1"/>
        <pt x="183" y="701" on="0"/>
        <pt x="202" y="686" on="0"/>
        <pt x="202" y="669" on="1"/>
        <pt x="202" y="652" on="0"/>
        <pt x="183" y="637" on="0"/>
      </contour>
      <contour>
        <pt x="344" y="637" on="1"/>
        <pt x="329" y="637" on="0"/>
        <pt x="310" y="652" on="0"/>
        <pt x="310" y="669" on="1"/>
        <pt x="310" y="686" on="0"/>
        <pt x="329" y="701" on="0"/>
        <pt x="344" y="701" on="1"/>
        <pt x="358" y="701" on="0"/>
        <pt x="378" y="686" on="0"/>
        <pt x="378" y="669" on="1"/>
        <pt x="378" y="652" on="0"/>
        <pt x="358" y="637" on="0"/>
      </contour>
      <contour>
        <pt x="15" y="5" on="1"/>
        <pt x="224" y="577" on="1"/>
        <pt x="288" y="577" on="1"/>
        <pt x="496" y="5" on="1"/>
        <pt x="496" y="0" on="1"/>
        <pt x="451" y="0" on="1"/>
        <pt x="384" y="184" on="1"/>
        <pt x="127" y="184" on="1"/>
        <pt x="59" y="0" on="1"/>
        <pt x="15" y="0" on="1"/>
      </contour>
      <contour>
        <pt x="371" y="223" on="1"/>
        <pt x="289" y="447" on="1"/>
        <pt x="257" y="536" on="1"/>
        <pt x="253" y="536" on="1"/>
        <pt x="223" y="447" on="1"/>
        <pt x="139" y="223" on="1"/>
      </contour>
    </TTGlyph>
    <TTGlyph name="Agrave" xMin="9" yMin="0" xMax="559" yMax="921">
      <contour>
        <pt x="9" y="6" on="1"/>
        <pt x="252" y="740" on="1"/>
        <pt x="316" y="740" on="1"/>
        <pt x="559" y="6" on="1"/>
        <pt x="559" y="0" on="1"/>
        <pt x="514" y="0" on="1"/>
        <pt x="433" y="242" on="1"/>
        <pt x="135" y="242" on="1"/>
        <pt x="55" y="0" on="1"/>
        <pt x="9" y="0" on="1"/>
      </contour>
      <contour>
        <pt x="420" y="285" on="1"/>
        <pt x="322" y="579" on="1"/>
        <pt x="286" y="694" on="1"/>
        <pt x="282" y="694" on="1"/>
        <pt x="246" y="579" on="1"/>
        <pt x="148" y="285" on="1"/>
      </contour>
      <contour>
        <pt x="262" y="789" on="1"/>
        <pt x="174" y="921" on="1"/>
        <pt x="224" y="921" on="1"/>
        <pt x="302" y="803" on="1"/>
      </contour>
    </TTGlyph>
    <TTGlyph name="Agrave.sc" xMin="15" yMin="0" xMax="496" yMax="723">
      <contour>
        <pt x="15" y="5" on="1"/>
        <pt x="224" y="577" on="1"/>
        <pt x="288" y="577" on="1"/>
        <pt x="496" y="5" on="1"/>
        <pt x="496" y="0" on="1"/>
        <pt x="451" y="0" on="1"/>
        <pt x="384" y="184" on="1"/>
        <pt x="127" y="184" on="1"/>
        <pt x="59" y="0" on="1"/>
        <pt x="15" y="0" on="1"/>
      </contour>
      <contour>
        <pt x="371" y="223" on="1"/>
        <pt x="289" y="447" on="1"/>
        <pt x="257" y="536" on="1"/>
        <pt x="253" y="536" on="1"/>
        <pt x="223" y="447" on="1"/>
        <pt x="139" y="223" on="1"/>
      </contour>
      <contour>
        <pt x="235" y="617" on="1"/>
        <pt x="159" y="723" on="1"/>
        <pt x="207" y="723" on="1"/>
        <pt x="273" y="627" on="1"/>
      </contour>
    </TTGlyph>
    <TTGlyph name="Ainvertedbreve" xMin="9" yMin="0" xMax="559" yMax="958">
      <contour>
        <pt x="9" y="6" on="1"/>
        <pt x="252" y="740" on="1"/>
        <pt x="316" y="740" on="1"/>
        <pt x="559" y="6" on="1"/>
        <pt x="559" y="0" on="1"/>
        <pt x="514" y="0" on="1"/>
        <pt x="433" y="242" on="1"/>
        <pt x="135" y="242" on="1"/>
        <pt x="55" y="0" on="1"/>
        <pt x="9" y="0" on="1"/>
      </contour>
      <contour>
        <pt x="420" y="285" on="1"/>
        <pt x="322" y="579" on="1"/>
        <pt x="286" y="694" on="1"/>
        <pt x="282" y="694" on="1"/>
        <pt x="246" y="579" on="1"/>
        <pt x="148" y="285" on="1"/>
      </contour>
      <contour>
        <pt x="390" y="822" on="1"/>
        <pt x="390" y="869" on="0"/>
        <pt x="335" y="920" on="0"/>
        <pt x="284" y="920" on="1"/>
        <pt x="233" y="920" on="0"/>
        <pt x="178" y="869" on="0"/>
        <pt x="178" y="822" on="1"/>
        <pt x="137" y="822" on="1"/>
        <pt x="137" y="885" on="0"/>
        <pt x="215" y="958" on="0"/>
        <pt x="284" y="958" on="1"/>
        <pt x="354" y="958" on="0"/>
        <pt x="431" y="885" on="0"/>
        <pt x="431" y="822" on="1"/>
      </contour>
    </TTGlyph>
    <TTGlyph name="Ainvertedbreve.sc" xMin="15" yMin="0" xMax="496" yMax="749">
      <contour>
        <pt x="127" y="640" on="1"/>
        <pt x="127" y="691" on="0"/>
        <pt x="194" y="749" on="0"/>
        <pt x="255" y="749" on="1"/>
        <pt x="317" y="749" on="0"/>
        <pt x="385" y="691" on="0"/>
        <pt x="385" y="640" on="1"/>
        <pt x="346" y="640" on="1"/>
        <pt x="346" y="677" on="0"/>
        <pt x="299" y="716" on="0"/>
        <pt x="255" y="716" on="1"/>
        <pt x="212" y="716" on="0"/>
        <pt x="166" y="677" on="0"/>
        <pt x="166" y="640" on="1"/>
      </contour>
      <contour>
        <pt x="15" y="5" on="1"/>
        <pt x="224" y="577" on="1"/>
        <pt x="288" y="577" on="1"/>
        <pt x="496" y="5" on="1"/>
        <pt x="496" y="0" on="1"/>
        <pt x="451" y="0" on="1"/>
        <pt x="384" y="184" on="1"/>
        <pt x="127" y="184" on="1"/>
        <pt x="59" y="0" on="1"/>
        <pt x="15" y="0" on="1"/>
      </contour>
      <contour>
        <pt x="371" y="223" on="1"/>
        <pt x="289" y="447" on="1"/>
        <pt x="257" y="536" on="1"/>
        <pt x="253" y="536" on="1"/>
        <pt x="223" y="447" on="1"/>
        <pt x="139" y="223" on="1"/>
      </contour>
    </TTGlyph>
    <TTGlyph name="Amacron" xMin="9" yMin="0" xMax="559" yMax="883">
      <contour>
        <pt x="9" y="6" on="1"/>
        <pt x="252" y="740" on="1"/>
        <pt x="316" y="740" on="1"/>
        <pt x="559" y="6" on="1"/>
        <pt x="559" y="0" on="1"/>
        <pt x="514" y="0" on="1"/>
        <pt x="433" y="242" on="1"/>
        <pt x="135" y="242" on="1"/>
        <pt x="55" y="0" on="1"/>
        <pt x="9" y="0" on="1"/>
      </contour>
      <contour>
        <pt x="420" y="285" on="1"/>
        <pt x="322" y="579" on="1"/>
        <pt x="286" y="694" on="1"/>
        <pt x="282" y="694" on="1"/>
        <pt x="246" y="579" on="1"/>
        <pt x="148" y="285" on="1"/>
      </contour>
      <contour>
        <pt x="157" y="883" on="1"/>
        <pt x="399" y="883" on="1"/>
        <pt x="399" y="842" on="1"/>
        <pt x="157" y="842" on="1"/>
      </contour>
    </TTGlyph>
    <TTGlyph name="Amacron.sc" xMin="15" yMin="0" xMax="496" yMax="693">
      <contour>
        <pt x="15" y="5" on="1"/>
        <pt x="224" y="577" on="1"/>
        <pt x="288" y="577" on="1"/>
        <pt x="496" y="5" on="1"/>
        <pt x="496" y="0" on="1"/>
        <pt x="451" y="0" on="1"/>
        <pt x="384" y="184" on="1"/>
        <pt x="127" y="184" on="1"/>
        <pt x="59" y="0" on="1"/>
        <pt x="15" y="0" on="1"/>
      </contour>
      <contour>
        <pt x="371" y="223" on="1"/>
        <pt x="289" y="447" on="1"/>
        <pt x="257" y="536" on="1"/>
        <pt x="253" y="536" on="1"/>
        <pt x="223" y="447" on="1"/>
        <pt x="139" y="223" on="1"/>
      </contour>
      <contour>
        <pt x="143" y="693" on="1"/>
        <pt x="358" y="693" on="1"/>
        <pt x="358" y="656" on="1"/>
        <pt x="143" y="656" on="1"/>
      </contour>
    </TTGlyph>
    <TTGlyph name="Aogonek" xMin="9" yMin="-220" xMax="559" yMax="740">
      <contour>
        <pt x="503" y="-220" on="1"/>
        <pt x="463" y="-220" on="0"/>
        <pt x="420" y="-178" on="0"/>
        <pt x="420" y="-138" on="1"/>
        <pt x="420" y="-99" on="0"/>
        <pt x="467" y="-32" on="0"/>
        <pt x="520" y="0" on="1"/>
        <pt x="514" y="0" on="1"/>
        <pt x="433" y="242" on="1"/>
        <pt x="135" y="242" on="1"/>
        <pt x="55" y="0" on="1"/>
        <pt x="9" y="0" on="1"/>
        <pt x="9" y="6" on="1"/>
        <pt x="252" y="740" on="1"/>
        <pt x="316" y="740" on="1"/>
        <pt x="559" y="6" on="1"/>
        <pt x="559" y="-19" on="1"/>
        <pt x="506" y="-45" on="0"/>
        <pt x="460" y="-101" on="0"/>
        <pt x="460" y="-135" on="1"/>
        <pt x="460" y="-182" on="0"/>
        <pt x="509" y="-182" on="1"/>
        <pt x="533" y="-182" on="0"/>
        <pt x="558" y="-171" on="1"/>
        <pt x="558" y="-208" on="1"/>
        <pt x="534" y="-220" on="0"/>
      </contour>
      <contour>
        <pt x="420" y="285" on="1"/>
        <pt x="322" y="579" on="1"/>
        <pt x="286" y="694" on="1"/>
        <pt x="282" y="694" on="1"/>
        <pt x="246" y="579" on="1"/>
        <pt x="148" y="285" on="1"/>
      </contour>
    </TTGlyph>
    <TTGlyph name="Aogonek.sc" xMin="14" yMin="-170" xMax="495" yMax="577">
      <contour>
        <pt x="446" y="-170" on="1"/>
        <pt x="372" y="-170" on="0"/>
        <pt x="372" y="-105" on="1"/>
        <pt x="372" y="-75" on="0"/>
        <pt x="410" y="-26" on="0"/>
        <pt x="453" y="0" on="1"/>
        <pt x="450" y="0" on="1"/>
        <pt x="383" y="184" on="1"/>
        <pt x="127" y="184" on="1"/>
        <pt x="58" y="0" on="1"/>
        <pt x="14" y="0" on="1"/>
        <pt x="14" y="5" on="1"/>
        <pt x="223" y="577" on="1"/>
        <pt x="287" y="577" on="1"/>
        <pt x="495" y="5" on="1"/>
        <pt x="495" y="-13" on="1"/>
        <pt x="454" y="-29" on="0"/>
        <pt x="410" y="-75" on="0"/>
        <pt x="410" y="-102" on="1"/>
        <pt x="410" y="-121" on="0"/>
        <pt x="430" y="-136" on="0"/>
        <pt x="450" y="-136" on="1"/>
        <pt x="474" y="-136" on="0"/>
        <pt x="495" y="-128" on="1"/>
        <pt x="495" y="-161" on="1"/>
        <pt x="472" y="-170" on="0"/>
      </contour>
      <contour>
        <pt x="370" y="223" on="1"/>
        <pt x="288" y="452" on="1"/>
        <pt x="256" y="536" on="1"/>
        <pt x="252" y="536" on="1"/>
        <pt x="222" y="452" on="1"/>
        <pt x="138" y="223" on="1"/>
      </contour>
    </TTGlyph>
    <TTGlyph name="Aring" xMin="9" yMin="0" xMax="559" yMax="939">
      <contour>
        <pt x="9" y="6" on="1"/>
        <pt x="251" y="739" on="1"/>
        <pt x="221" y="749" on="0"/>
        <pt x="187" y="801" on="0"/>
        <pt x="187" y="836" on="1"/>
        <pt x="187" y="879" on="0"/>
        <pt x="239" y="939" on="0"/>
        <pt x="285" y="939" on="1"/>
        <pt x="331" y="939" on="0"/>
        <pt x="384" y="879" on="0"/>
        <pt x="384" y="836" on="1"/>
        <pt x="384" y="801" on="0"/>
        <pt x="348" y="748" on="0"/>
        <pt x="316" y="738" on="1"/>
        <pt x="559" y="6" on="1"/>
        <pt x="559" y="0" on="1"/>
        <pt x="514" y="0" on="1"/>
        <pt x="433" y="242" on="1"/>
        <pt x="135" y="242" on="1"/>
        <pt x="55" y="0" on="1"/>
        <pt x="9" y="0" on="1"/>
      </contour>
      <contour>
        <pt x="420" y="285" on="1"/>
        <pt x="322" y="579" on="1"/>
        <pt x="286" y="694" on="1"/>
        <pt x="282" y="694" on="1"/>
        <pt x="246" y="579" on="1"/>
        <pt x="148" y="285" on="1"/>
      </contour>
      <contour>
        <pt x="285" y="770" on="1"/>
        <pt x="314" y="770" on="0"/>
        <pt x="347" y="807" on="0"/>
        <pt x="347" y="836" on="1"/>
        <pt x="347" y="865" on="0"/>
        <pt x="315" y="903" on="0"/>
        <pt x="285" y="903" on="1"/>
        <pt x="255" y="903" on="0"/>
        <pt x="224" y="865" on="0"/>
        <pt x="224" y="836" on="1"/>
        <pt x="224" y="807" on="0"/>
        <pt x="255" y="770" on="0"/>
      </contour>
    </TTGlyph>
    <TTGlyph name="Aring.sc" xMin="15" yMin="0" xMax="496" yMax="779">
      <contour>
        <pt x="15" y="5" on="1"/>
        <pt x="224" y="577" on="1"/>
        <pt x="288" y="577" on="1"/>
        <pt x="496" y="5" on="1"/>
        <pt x="496" y="0" on="1"/>
        <pt x="451" y="0" on="1"/>
        <pt x="384" y="184" on="1"/>
        <pt x="127" y="184" on="1"/>
        <pt x="59" y="0" on="1"/>
        <pt x="15" y="0" on="1"/>
      </contour>
      <contour>
        <pt x="371" y="223" on="1"/>
        <pt x="289" y="447" on="1"/>
        <pt x="257" y="536" on="1"/>
        <pt x="253" y="536" on="1"/>
        <pt x="223" y="447" on="1"/>
        <pt x="139" y="223" on="1"/>
      </contour>
      <contour>
        <pt x="255" y="616" on="1"/>
        <pt x="215" y="616" on="0"/>
        <pt x="169" y="663" on="0"/>
        <pt x="169" y="697" on="1"/>
        <pt x="169" y="732" on="0"/>
        <pt x="215" y="779" on="0"/>
        <pt x="255" y="779" on="1"/>
        <pt x="295" y="779" on="0"/>
        <pt x="342" y="732" on="0"/>
        <pt x="342" y="697" on="1"/>
        <pt x="342" y="663" on="0"/>
        <pt x="295" y="616" on="0"/>
      </contour>
      <contour>
        <pt x="255" y="646" on="1"/>
        <pt x="281" y="646" on="0"/>
        <pt x="309" y="674" on="0"/>
        <pt x="309" y="697" on="1"/>
        <pt x="309" y="720" on="0"/>
        <pt x="281" y="749" on="0"/>
        <pt x="255" y="749" on="1"/>
        <pt x="229" y="749" on="0"/>
        <pt x="202" y="720" on="0"/>
        <pt x="202" y="697" on="1"/>
        <pt x="202" y="674" on="0"/>
        <pt x="229" y="646" on="0"/>
      </contour>
    </TTGlyph>
    <TTGlyph name="Aringacute" xMin="10" yMin="0" xMax="560" yMax="930">
      <contour>
        <pt x="10" y="6" on="1"/>
        <pt x="222" y="644" on="1"/>
        <pt x="202" y="658" on="0"/>
        <pt x="181" y="702" on="0"/>
        <pt x="181" y="729" on="1"/>
        <pt x="181" y="770" on="0"/>
        <pt x="225" y="829" on="0"/>
        <pt x="266" y="834" on="1"/>
        <pt x="332" y="930" on="1"/>
        <pt x="382" y="930" on="1"/>
        <pt x="314" y="830" on="1"/>
        <pt x="349" y="821" on="0"/>
        <pt x="386" y="766" on="0"/>
        <pt x="386" y="729" on="1"/>
        <pt x="386" y="703" on="0"/>
        <pt x="366" y="660" on="0"/>
        <pt x="347" y="646" on="1"/>
        <pt x="560" y="6" on="1"/>
        <pt x="560" y="0" on="1"/>
        <pt x="515" y="0" on="1"/>
        <pt x="434" y="242" on="1"/>
        <pt x="136" y="242" on="1"/>
        <pt x="56" y="0" on="1"/>
        <pt x="10" y="0" on="1"/>
      </contour>
      <contour>
        <pt x="284" y="662" on="1"/>
        <pt x="313" y="662" on="0"/>
        <pt x="347" y="700" on="0"/>
        <pt x="347" y="729" on="1"/>
        <pt x="347" y="758" on="0"/>
        <pt x="314" y="797" on="0"/>
        <pt x="284" y="797" on="1"/>
        <pt x="253" y="797" on="0"/>
        <pt x="221" y="758" on="0"/>
        <pt x="221" y="729" on="1"/>
        <pt x="221" y="700" on="0"/>
        <pt x="254" y="662" on="0"/>
      </contour>
      <contour>
        <pt x="420" y="286" on="1"/>
        <pt x="324" y="579" on="1"/>
        <pt x="308" y="626" on="1"/>
        <pt x="262" y="626" on="1"/>
        <pt x="247" y="579" on="1"/>
        <pt x="149" y="286" on="1"/>
      </contour>
    </TTGlyph>
    <TTGlyph name="Aringacute.sc" xMin="15" yMin="0" xMax="496" yMax="734">
      <contour>
        <pt x="15" y="5" on="1"/>
        <pt x="198" y="505" on="1"/>
        <pt x="163" y="528" on="0"/>
        <pt x="163" y="572" on="1"/>
        <pt x="163" y="604" on="0"/>
        <pt x="202" y="651" on="0"/>
        <pt x="238" y="656" on="1"/>
        <pt x="294" y="734" on="1"/>
        <pt x="342" y="734" on="1"/>
        <pt x="283" y="652" on="1"/>
        <pt x="313" y="645" on="0"/>
        <pt x="347" y="601" on="0"/>
        <pt x="347" y="572" on="1"/>
        <pt x="347" y="531" on="0"/>
        <pt x="313" y="506" on="1"/>
        <pt x="496" y="5" on="1"/>
        <pt x="496" y="0" on="1"/>
        <pt x="452" y="0" on="1"/>
        <pt x="384" y="184" on="1"/>
        <pt x="128" y="184" on="1"/>
        <pt x="60" y="0" on="1"/>
        <pt x="15" y="0" on="1"/>
      </contour>
      <contour>
        <pt x="254" y="520" on="1"/>
        <pt x="280" y="520" on="0"/>
        <pt x="310" y="549" on="0"/>
        <pt x="310" y="572" on="1"/>
        <pt x="310" y="595" on="0"/>
        <pt x="281" y="624" on="0"/>
        <pt x="254" y="624" on="1"/>
        <pt x="228" y="624" on="0"/>
        <pt x="200" y="595" on="0"/>
        <pt x="200" y="572" on="1"/>
        <pt x="200" y="549" on="0"/>
        <pt x="228" y="520" on="0"/>
      </contour>
      <contour>
        <pt x="371" y="223" on="1"/>
        <pt x="289" y="447" on="1"/>
        <pt x="275" y="488" on="1"/>
        <pt x="236" y="487" on="1"/>
        <pt x="223" y="447" on="1"/>
        <pt x="139" y="223" on="1"/>
      </contour>
    </TTGlyph>
    <TTGlyph name="Atilde" xMin="9" yMin="0" xMax="559" yMax="908">
      <contour>
        <pt x="9" y="6" on="1"/>
        <pt x="252" y="740" on="1"/>
        <pt x="316" y="740" on="1"/>
        <pt x="559" y="6" on="1"/>
        <pt x="559" y="0" on="1"/>
        <pt x="514" y="0" on="1"/>
        <pt x="433" y="242" on="1"/>
        <pt x="135" y="242" on="1"/>
        <pt x="55" y="0" on="1"/>
        <pt x="9" y="0" on="1"/>
      </contour>
      <contour>
        <pt x="420" y="285" on="1"/>
        <pt x="322" y="579" on="1"/>
        <pt x="286" y="694" on="1"/>
        <pt x="282" y="694" on="1"/>
        <pt x="246" y="579" on="1"/>
        <pt x="148" y="285" on="1"/>
      </contour>
      <contour>
        <pt x="128" y="853" on="1"/>
        <pt x="147" y="876" on="0"/>
        <pt x="198" y="908" on="0"/>
        <pt x="224" y="908" on="1"/>
        <pt x="244" y="908" on="0"/>
        <pt x="278" y="895" on="0"/>
        <pt x="309" y="878" on="0"/>
        <pt x="339" y="865" on="0"/>
        <pt x="357" y="865" on="1"/>
        <pt x="376" y="865" on="0"/>
        <pt x="408" y="886" on="0"/>
        <pt x="421" y="905" on="1"/>
        <pt x="448" y="883" on="1"/>
        <pt x="433" y="857" on="0"/>
        <pt x="380" y="825" on="0"/>
        <pt x="353" y="825" on="1"/>
        <pt x="334" y="825" on="0"/>
        <pt x="301" y="838" on="0"/>
        <pt x="270" y="855" on="0"/>
        <pt x="239" y="868" on="0"/>
        <pt x="222" y="868" on="1"/>
        <pt x="203" y="868" on="0"/>
        <pt x="166" y="846" on="0"/>
        <pt x="152" y="829" on="1"/>
      </contour>
    </TTGlyph>
    <TTGlyph name="Atilde.sc" xMin="15" yMin="0" xMax="496" yMax="713">
      <contour>
        <pt x="15" y="5" on="1"/>
        <pt x="224" y="577" on="1"/>
        <pt x="288" y="577" on="1"/>
        <pt x="496" y="5" on="1"/>
        <pt x="496" y="0" on="1"/>
        <pt x="451" y="0" on="1"/>
        <pt x="384" y="184" on="1"/>
        <pt x="127" y="184" on="1"/>
        <pt x="59" y="0" on="1"/>
        <pt x="15" y="0" on="1"/>
      </contour>
      <contour>
        <pt x="371" y="223" on="1"/>
        <pt x="289" y="447" on="1"/>
        <pt x="257" y="536" on="1"/>
        <pt x="253" y="536" on="1"/>
        <pt x="223" y="447" on="1"/>
        <pt x="139" y="223" on="1"/>
      </contour>
      <contour>
        <pt x="119" y="666" on="1"/>
        <pt x="136" y="686" on="0"/>
        <pt x="182" y="713" on="0"/>
        <pt x="205" y="713" on="1"/>
        <pt x="222" y="713" on="0"/>
        <pt x="251" y="703" on="0"/>
        <pt x="278" y="690" on="0"/>
        <pt x="306" y="680" on="0"/>
        <pt x="321" y="680" on="1"/>
        <pt x="353" y="680" on="0"/>
        <pt x="379" y="711" on="1"/>
        <pt x="402" y="694" on="1"/>
        <pt x="387" y="671" on="0"/>
        <pt x="340" y="643" on="0"/>
        <pt x="316" y="643" on="1"/>
        <pt x="299" y="643" on="0"/>
        <pt x="271" y="654" on="0"/>
        <pt x="243" y="666" on="0"/>
        <pt x="216" y="677" on="0"/>
        <pt x="201" y="677" on="1"/>
        <pt x="184" y="677" on="0"/>
        <pt x="153" y="660" on="0"/>
        <pt x="139" y="646" on="1"/>
      </contour>
    </TTGlyph>
    <TTGlyph name="B" xMin="85" yMin="-10" xMax="529" yMax="750">
      <contour>
        <pt x="282" y="-10" on="1"/>
        <pt x="259" y="-10" on="0"/>
        <pt x="207" y="-8" on="0"/>
        <pt x="154" y="-4" on="0"/>
        <pt x="104" y="2" on="0"/>
        <pt x="85" y="5" on="1"/>
        <pt x="85" y="736" on="1"/>
        <pt x="119" y="740" on="0"/>
        <pt x="170" y="745" on="0"/>
        <pt x="213" y="748" on="0"/>
        <pt x="250" y="750" on="0"/>
        <pt x="269" y="750" on="1"/>
        <pt x="392" y="750" on="0"/>
        <pt x="505" y="655" on="0"/>
        <pt x="505" y="553" on="1"/>
        <pt x="505" y="481" on="0"/>
        <pt x="440" y="391" on="0"/>
        <pt x="383" y="380" on="1"/>
        <pt x="383" y="376" on="1"/>
        <pt x="452" y="365" on="0"/>
        <pt x="529" y="269" on="0"/>
        <pt x="529" y="192" on="1"/>
        <pt x="529" y="-10" on="0"/>
      </contour>
      <contour>
        <pt x="284" y="30" on="1"/>
        <pt x="481" y="30" on="0"/>
        <pt x="481" y="193" on="1"/>
        <pt x="481" y="278" on="0"/>
        <pt x="383" y="354" on="0"/>
        <pt x="274" y="354" on="1"/>
        <pt x="130" y="354" on="1"/>
        <pt x="130" y="40" on="1"/>
        <pt x="139" y="38" on="0"/>
        <pt x="174" y="35" on="0"/>
        <pt x="217" y="32" on="0"/>
        <pt x="263" y="30" on="0"/>
      </contour>
      <contour>
        <pt x="273" y="396" on="1"/>
        <pt x="323" y="396" on="0"/>
        <pt x="393" y="413" on="0"/>
        <pt x="437" y="450" on="0"/>
        <pt x="457" y="509" on="0"/>
        <pt x="457" y="552" on="1"/>
        <pt x="457" y="633" on="0"/>
        <pt x="368" y="708" on="0"/>
        <pt x="270" y="708" on="1"/>
        <pt x="230" y="708" on="0"/>
        <pt x="165" y="705" on="0"/>
        <pt x="130" y="700" on="1"/>
        <pt x="130" y="396" on="1"/>
      </contour>
    </TTGlyph>
    <TTGlyph name="B.sc" xMin="80" yMin="-8" xMax="467" yMax="585">
      <contour>
        <pt x="251" y="-8" on="1"/>
        <pt x="231" y="-8" on="0"/>
        <pt x="186" y="-6" on="0"/>
        <pt x="141" y="-3" on="0"/>
        <pt x="98" y="1" on="0"/>
        <pt x="80" y="4" on="1"/>
        <pt x="80" y="574" on="1"/>
        <pt x="109" y="577" on="0"/>
        <pt x="154" y="581" on="0"/>
        <pt x="191" y="584" on="0"/>
        <pt x="223" y="585" on="0"/>
        <pt x="240" y="585" on="1"/>
        <pt x="349" y="585" on="0"/>
        <pt x="447" y="511" on="0"/>
        <pt x="447" y="430" on="1"/>
        <pt x="447" y="376" on="0"/>
        <pt x="392" y="305" on="0"/>
        <pt x="342" y="296" on="1"/>
        <pt x="342" y="293" on="1"/>
        <pt x="402" y="284" on="0"/>
        <pt x="467" y="211" on="0"/>
        <pt x="467" y="151" on="1"/>
        <pt x="467" y="-8" on="0"/>
      </contour>
      <contour>
        <pt x="253" y="29" on="1"/>
        <pt x="420" y="29" on="0"/>
        <pt x="420" y="152" on="1"/>
        <pt x="420" y="215" on="0"/>
        <pt x="339" y="273" on="0"/>
        <pt x="247" y="273" on="1"/>
        <pt x="124" y="273" on="1"/>
        <pt x="124" y="38" on="1"/>
        <pt x="132" y="36" on="0"/>
        <pt x="161" y="33" on="0"/>
        <pt x="196" y="31" on="0"/>
        <pt x="235" y="29" on="0"/>
      </contour>
      <contour>
        <pt x="246" y="311" on="1"/>
        <pt x="331" y="311" on="0"/>
        <pt x="400" y="364" on="0"/>
        <pt x="400" y="429" on="1"/>
        <pt x="400" y="491" on="0"/>
        <pt x="326" y="546" on="0"/>
        <pt x="243" y="546" on="1"/>
        <pt x="209" y="546" on="0"/>
        <pt x="153" y="543" on="0"/>
        <pt x="124" y="539" on="1"/>
        <pt x="124" y="311" on="1"/>
      </contour>
    </TTGlyph>
    <TTGlyph name="C" xMin="51" yMin="-9" xMax="480" yMax="748">
      <contour>
        <pt x="359" y="-9" on="1"/>
        <pt x="199" y="-8" on="0"/>
        <pt x="51" y="175" on="0"/>
        <pt x="51" y="369" on="1"/>
        <pt x="51" y="469" on="0"/>
        <pt x="87" y="613" on="0"/>
        <pt x="162" y="705" on="0"/>
        <pt x="279" y="748" on="0"/>
        <pt x="360" y="748" on="1"/>
        <pt x="386" y="748" on="0"/>
        <pt x="448" y="742" on="0"/>
        <pt x="480" y="737" on="1"/>
        <pt x="480" y="694" on="1"/>
        <pt x="455" y="699" on="0"/>
        <pt x="394" y="705" on="0"/>
        <pt x="365" y="705" on="1"/>
        <pt x="294" y="705" on="0"/>
        <pt x="194" y="667" on="0"/>
        <pt x="129" y="586" on="0"/>
        <pt x="99" y="458" on="0"/>
        <pt x="99" y="369" on="1"/>
        <pt x="99" y="196" on="0"/>
        <pt x="225" y="34" on="0"/>
        <pt x="359" y="34" on="1"/>
        <pt x="369" y="34" on="0"/>
        <pt x="399" y="36" on="0"/>
        <pt x="433" y="39" on="0"/>
        <pt x="466" y="44" on="0"/>
        <pt x="480" y="46" on="1"/>
        <pt x="480" y="4" on="1"/>
        <pt x="454" y="-2" on="0"/>
        <pt x="393" y="-9" on="0"/>
      </contour>
    </TTGlyph>
    <TTGlyph name="C.sc" xMin="50" yMin="-8" xMax="423" yMax="584">
      <contour>
        <pt x="315" y="-8" on="1"/>
        <pt x="178" y="-6" on="0"/>
        <pt x="50" y="136" on="0"/>
        <pt x="50" y="288" on="1"/>
        <pt x="50" y="443" on="0"/>
        <pt x="177" y="584" on="0"/>
        <pt x="315" y="584" on="1"/>
        <pt x="338" y="584" on="0"/>
        <pt x="395" y="579" on="0"/>
        <pt x="423" y="574" on="1"/>
        <pt x="423" y="533" on="1"/>
        <pt x="400" y="538" on="0"/>
        <pt x="345" y="543" on="0"/>
        <pt x="320" y="543" on="1"/>
        <pt x="203" y="543" on="0"/>
        <pt x="97" y="424" on="0"/>
        <pt x="97" y="288" on="1"/>
        <pt x="97" y="155" on="0"/>
        <pt x="203" y="34" on="0"/>
        <pt x="315" y="34" on="1"/>
        <pt x="324" y="34" on="0"/>
        <pt x="351" y="36" on="0"/>
        <pt x="381" y="39" on="0"/>
        <pt x="411" y="42" on="0"/>
        <pt x="423" y="44" on="1"/>
        <pt x="423" y="5" on="1"/>
        <pt x="400" y="0" on="0"/>
        <pt x="344" y="-8" on="0"/>
      </contour>
    </TTGlyph>
    <TTGlyph name="Cacute" xMin="51" yMin="-9" xMax="480" yMax="921">
      <contour>
        <pt x="359" y="-9" on="1"/>
        <pt x="199" y="-8" on="0"/>
        <pt x="51" y="175" on="0"/>
        <pt x="51" y="369" on="1"/>
        <pt x="51" y="469" on="0"/>
        <pt x="87" y="613" on="0"/>
        <pt x="162" y="705" on="0"/>
        <pt x="279" y="748" on="0"/>
        <pt x="360" y="748" on="1"/>
        <pt x="386" y="748" on="0"/>
        <pt x="448" y="742" on="0"/>
        <pt x="480" y="737" on="1"/>
        <pt x="480" y="694" on="1"/>
        <pt x="455" y="699" on="0"/>
        <pt x="394" y="705" on="0"/>
        <pt x="365" y="705" on="1"/>
        <pt x="294" y="705" on="0"/>
        <pt x="194" y="667" on="0"/>
        <pt x="129" y="586" on="0"/>
        <pt x="99" y="458" on="0"/>
        <pt x="99" y="369" on="1"/>
        <pt x="99" y="196" on="0"/>
        <pt x="225" y="34" on="0"/>
        <pt x="359" y="34" on="1"/>
        <pt x="369" y="34" on="0"/>
        <pt x="399" y="36" on="0"/>
        <pt x="433" y="39" on="0"/>
        <pt x="466" y="44" on="0"/>
        <pt x="480" y="46" on="1"/>
        <pt x="480" y="4" on="1"/>
        <pt x="454" y="-2" on="0"/>
        <pt x="393" y="-9" on="0"/>
      </contour>
      <contour>
        <pt x="292" y="794" on="1"/>
        <pt x="369" y="921" on="1"/>
        <pt x="419" y="921" on="1"/>
        <pt x="332" y="789" on="1"/>
      </contour>
    </TTGlyph>
    <TTGlyph name="Cacute.sc" xMin="50" yMin="-8" xMax="423" yMax="723">
      <contour>
        <pt x="315" y="-8" on="1"/>
        <pt x="178" y="-6" on="0"/>
        <pt x="50" y="136" on="0"/>
        <pt x="50" y="288" on="1"/>
        <pt x="50" y="443" on="0"/>
        <pt x="177" y="584" on="0"/>
        <pt x="315" y="584" on="1"/>
        <pt x="338" y="584" on="0"/>
        <pt x="394" y="579" on="0"/>
        <pt x="423" y="574" on="1"/>
        <pt x="423" y="533" on="1"/>
        <pt x="400" y="538" on="0"/>
        <pt x="345" y="543" on="0"/>
        <pt x="320" y="543" on="1"/>
        <pt x="203" y="543" on="0"/>
        <pt x="97" y="424" on="0"/>
        <pt x="97" y="288" on="1"/>
        <pt x="97" y="155" on="0"/>
        <pt x="203" y="34" on="0"/>
        <pt x="315" y="34" on="1"/>
        <pt x="324" y="34" on="0"/>
        <pt x="351" y="36" on="0"/>
        <pt x="381" y="39" on="0"/>
        <pt x="411" y="42" on="0"/>
        <pt x="423" y="44" on="1"/>
        <pt x="423" y="5" on="1"/>
        <pt x="400" y="0" on="0"/>
        <pt x="344" y="-8" on="0"/>
      </contour>
      <contour>
        <pt x="256" y="620" on="1"/>
        <pt x="322" y="723" on="1"/>
        <pt x="371" y="723" on="1"/>
        <pt x="294" y="617" on="1"/>
      </contour>
    </TTGlyph>
    <TTGlyph name="Ccaron" xMin="51" yMin="-9" xMax="480" yMax="923">
      <contour>
        <pt x="359" y="-9" on="1"/>
        <pt x="199" y="-8" on="0"/>
        <pt x="51" y="175" on="0"/>
        <pt x="51" y="369" on="1"/>
        <pt x="51" y="469" on="0"/>
        <pt x="87" y="613" on="0"/>
        <pt x="162" y="705" on="0"/>
        <pt x="279" y="748" on="0"/>
        <pt x="360" y="748" on="1"/>
        <pt x="386" y="748" on="0"/>
        <pt x="448" y="742" on="0"/>
        <pt x="480" y="737" on="1"/>
        <pt x="480" y="694" on="1"/>
        <pt x="455" y="699" on="0"/>
        <pt x="394" y="705" on="0"/>
        <pt x="365" y="705" on="1"/>
        <pt x="294" y="705" on="0"/>
        <pt x="194" y="667" on="0"/>
        <pt x="129" y="586" on="0"/>
        <pt x="99" y="458" on="0"/>
        <pt x="99" y="369" on="1"/>
        <pt x="99" y="196" on="0"/>
        <pt x="225" y="34" on="0"/>
        <pt x="359" y="34" on="1"/>
        <pt x="369" y="34" on="0"/>
        <pt x="399" y="36" on="0"/>
        <pt x="433" y="39" on="0"/>
        <pt x="466" y="44" on="0"/>
        <pt x="480" y="46" on="1"/>
        <pt x="480" y="4" on="1"/>
        <pt x="454" y="-2" on="0"/>
        <pt x="393" y="-9" on="0"/>
      </contour>
      <contour>
        <pt x="186" y="923" on="1"/>
        <pt x="319" y="850" on="1"/>
        <pt x="452" y="923" on="1"/>
        <pt x="452" y="875" on="1"/>
        <pt x="319" y="803" on="1"/>
        <pt x="186" y="875" on="1"/>
      </contour>
    </TTGlyph>
    <TTGlyph name="Ccaron.sc" xMin="50" yMin="-8" xMax="423" yMax="724">
      <contour>
        <pt x="315" y="-8" on="1"/>
        <pt x="178" y="-6" on="0"/>
        <pt x="50" y="136" on="0"/>
        <pt x="50" y="288" on="1"/>
        <pt x="50" y="443" on="0"/>
        <pt x="177" y="584" on="0"/>
        <pt x="315" y="584" on="1"/>
        <pt x="338" y="584" on="0"/>
        <pt x="394" y="579" on="0"/>
        <pt x="423" y="574" on="1"/>
        <pt x="423" y="533" on="1"/>
        <pt x="400" y="538" on="0"/>
        <pt x="345" y="543" on="0"/>
        <pt x="320" y="543" on="1"/>
        <pt x="203" y="543" on="0"/>
        <pt x="97" y="424" on="0"/>
        <pt x="97" y="288" on="1"/>
        <pt x="97" y="155" on="0"/>
        <pt x="203" y="34" on="0"/>
        <pt x="315" y="34" on="1"/>
        <pt x="324" y="34" on="0"/>
        <pt x="351" y="36" on="0"/>
        <pt x="381" y="39" on="0"/>
        <pt x="411" y="42" on="0"/>
        <pt x="423" y="44" on="1"/>
        <pt x="423" y="5" on="1"/>
        <pt x="400" y="0" on="0"/>
        <pt x="344" y="-8" on="0"/>
      </contour>
      <contour>
        <pt x="165" y="724" on="1"/>
        <pt x="281" y="668" on="1"/>
        <pt x="398" y="724" on="1"/>
        <pt x="398" y="683" on="1"/>
        <pt x="281" y="626" on="1"/>
        <pt x="165" y="683" on="1"/>
      </contour>
    </TTGlyph>
    <TTGlyph name="Ccedilla" xMin="51" yMin="-220" xMax="480" yMax="748">
      <contour>
        <pt x="275" y="-220" on="1"/>
        <pt x="241" y="-220" on="0"/>
        <pt x="208" y="-209" on="1"/>
        <pt x="208" y="-168" on="1"/>
        <pt x="239" y="-180" on="0"/>
        <pt x="269" y="-180" on="1"/>
        <pt x="342" y="-180" on="0"/>
        <pt x="342" y="-108" on="1"/>
        <pt x="342" y="-62" on="0"/>
        <pt x="311" y="-6" on="1"/>
        <pt x="176" y="8" on="0"/>
        <pt x="51" y="189" on="0"/>
        <pt x="51" y="369" on="1"/>
        <pt x="51" y="469" on="0"/>
        <pt x="87" y="613" on="0"/>
        <pt x="162" y="705" on="0"/>
        <pt x="279" y="748" on="0"/>
        <pt x="360" y="748" on="1"/>
        <pt x="386" y="748" on="0"/>
        <pt x="448" y="742" on="0"/>
        <pt x="480" y="737" on="1"/>
        <pt x="480" y="694" on="1"/>
        <pt x="455" y="699" on="0"/>
        <pt x="394" y="705" on="0"/>
        <pt x="365" y="705" on="1"/>
        <pt x="294" y="705" on="0"/>
        <pt x="194" y="667" on="0"/>
        <pt x="129" y="586" on="0"/>
        <pt x="99" y="458" on="0"/>
        <pt x="99" y="369" on="1"/>
        <pt x="99" y="196" on="0"/>
        <pt x="225" y="34" on="0"/>
        <pt x="359" y="34" on="1"/>
        <pt x="369" y="34" on="0"/>
        <pt x="399" y="36" on="0"/>
        <pt x="433" y="39" on="0"/>
        <pt x="466" y="44" on="0"/>
        <pt x="480" y="46" on="1"/>
        <pt x="480" y="4" on="1"/>
        <pt x="454" y="-2" on="0"/>
        <pt x="393" y="-9" on="0"/>
        <pt x="359" y="-9" on="1"/>
        <pt x="356" y="-9" on="1"/>
        <pt x="370" y="-38" on="0"/>
        <pt x="383" y="-88" on="0"/>
        <pt x="383" y="-110" on="1"/>
        <pt x="383" y="-164" on="0"/>
        <pt x="328" y="-220" on="0"/>
      </contour>
    </TTGlyph>
    <TTGlyph name="Ccedilla.sc" xMin="50" yMin="-172" xMax="423" yMax="584">
      <contour>
        <pt x="245" y="-172" on="1"/>
        <pt x="231" y="-172" on="0"/>
        <pt x="200" y="-168" on="0"/>
        <pt x="185" y="-163" on="1"/>
        <pt x="185" y="-127" on="1"/>
        <pt x="198" y="-132" on="0"/>
        <pt x="225" y="-135" on="0"/>
        <pt x="238" y="-135" on="1"/>
        <pt x="271" y="-135" on="0"/>
        <pt x="300" y="-109" on="0"/>
        <pt x="300" y="-81" on="1"/>
        <pt x="300" y="-48" on="0"/>
        <pt x="275" y="-5" on="1"/>
        <pt x="159" y="5" on="0"/>
        <pt x="50" y="147" on="0"/>
        <pt x="50" y="288" on="1"/>
        <pt x="50" y="443" on="0"/>
        <pt x="177" y="584" on="0"/>
        <pt x="315" y="584" on="1"/>
        <pt x="338" y="584" on="0"/>
        <pt x="394" y="579" on="0"/>
        <pt x="423" y="574" on="1"/>
        <pt x="423" y="533" on="1"/>
        <pt x="400" y="538" on="0"/>
        <pt x="345" y="543" on="0"/>
        <pt x="320" y="543" on="1"/>
        <pt x="203" y="543" on="0"/>
        <pt x="97" y="424" on="0"/>
        <pt x="97" y="288" on="1"/>
        <pt x="97" y="155" on="0"/>
        <pt x="203" y="34" on="0"/>
        <pt x="315" y="34" on="1"/>
        <pt x="324" y="34" on="0"/>
        <pt x="351" y="36" on="0"/>
        <pt x="381" y="39" on="0"/>
        <pt x="411" y="42" on="0"/>
        <pt x="423" y="44" on="1"/>
        <pt x="423" y="5" on="1"/>
        <pt x="399" y="-1" on="0"/>
        <pt x="341" y="-8" on="0"/>
        <pt x="315" y="-7" on="1"/>
        <pt x="339" y="-52" on="0"/>
        <pt x="339" y="-85" on="1"/>
        <pt x="339" y="-127" on="0"/>
        <pt x="291" y="-172" on="0"/>
      </contour>
    </TTGlyph>
    <TTGlyph name="Ccircumflex" xMin="51" yMin="-9" xMax="480" yMax="936">
      <contour>
        <pt x="359" y="-9" on="1"/>
        <pt x="199" y="-8" on="0"/>
        <pt x="51" y="175" on="0"/>
        <pt x="51" y="369" on="1"/>
        <pt x="51" y="469" on="0"/>
        <pt x="87" y="613" on="0"/>
        <pt x="162" y="705" on="0"/>
        <pt x="279" y="748" on="0"/>
        <pt x="360" y="748" on="1"/>
        <pt x="386" y="748" on="0"/>
        <pt x="448" y="742" on="0"/>
        <pt x="480" y="737" on="1"/>
        <pt x="480" y="694" on="1"/>
        <pt x="455" y="699" on="0"/>
        <pt x="394" y="705" on="0"/>
        <pt x="365" y="705" on="1"/>
        <pt x="294" y="705" on="0"/>
        <pt x="194" y="667" on="0"/>
        <pt x="129" y="586" on="0"/>
        <pt x="99" y="458" on="0"/>
        <pt x="99" y="369" on="1"/>
        <pt x="99" y="196" on="0"/>
        <pt x="225" y="34" on="0"/>
        <pt x="359" y="34" on="1"/>
        <pt x="369" y="34" on="0"/>
        <pt x="399" y="36" on="0"/>
        <pt x="433" y="39" on="0"/>
        <pt x="466" y="44" on="0"/>
        <pt x="480" y="46" on="1"/>
        <pt x="480" y="4" on="1"/>
        <pt x="454" y="-2" on="0"/>
        <pt x="393" y="-9" on="0"/>
      </contour>
      <contour>
        <pt x="183" y="864" on="1"/>
        <pt x="316" y="936" on="1"/>
        <pt x="449" y="864" on="1"/>
        <pt x="449" y="817" on="1"/>
        <pt x="316" y="889" on="1"/>
        <pt x="183" y="817" on="1"/>
      </contour>
    </TTGlyph>
    <TTGlyph name="Ccircumflex.sc" xMin="50" yMin="-8" xMax="423" yMax="734">
      <contour>
        <pt x="315" y="-8" on="1"/>
        <pt x="178" y="-6" on="0"/>
        <pt x="50" y="136" on="0"/>
        <pt x="50" y="288" on="1"/>
        <pt x="50" y="443" on="0"/>
        <pt x="177" y="584" on="0"/>
        <pt x="315" y="584" on="1"/>
        <pt x="338" y="584" on="0"/>
        <pt x="394" y="579" on="0"/>
        <pt x="423" y="574" on="1"/>
        <pt x="423" y="533" on="1"/>
        <pt x="400" y="538" on="0"/>
        <pt x="345" y="543" on="0"/>
        <pt x="320" y="543" on="1"/>
        <pt x="203" y="543" on="0"/>
        <pt x="97" y="424" on="0"/>
        <pt x="97" y="288" on="1"/>
        <pt x="97" y="155" on="0"/>
        <pt x="203" y="34" on="0"/>
        <pt x="315" y="34" on="1"/>
        <pt x="324" y="34" on="0"/>
        <pt x="351" y="36" on="0"/>
        <pt x="381" y="39" on="0"/>
        <pt x="411" y="42" on="0"/>
        <pt x="423" y="44" on="1"/>
        <pt x="423" y="5" on="1"/>
        <pt x="400" y="0" on="0"/>
        <pt x="344" y="-8" on="0"/>
      </contour>
      <contour>
        <pt x="162" y="677" on="1"/>
        <pt x="279" y="734" on="1"/>
        <pt x="396" y="677" on="1"/>
        <pt x="396" y="635" on="1"/>
        <pt x="279" y="691" on="1"/>
        <pt x="162" y="635" on="1"/>
      </contour>
    </TTGlyph>
    <TTGlyph name="Cdotaccent" xMin="51" yMin="-9" xMax="480" yMax="877">
      <contour>
        <pt x="317" y="806" on="1"/>
        <pt x="301" y="806" on="0"/>
        <pt x="281" y="822" on="0"/>
        <pt x="281" y="841" on="1"/>
        <pt x="281" y="860" on="0"/>
        <pt x="301" y="877" on="0"/>
        <pt x="317" y="877" on="1"/>
        <pt x="333" y="877" on="0"/>
        <pt x="353" y="860" on="0"/>
        <pt x="353" y="841" on="1"/>
        <pt x="353" y="822" on="0"/>
        <pt x="333" y="806" on="0"/>
      </contour>
      <contour>
        <pt x="359" y="-9" on="1"/>
        <pt x="199" y="-8" on="0"/>
        <pt x="51" y="175" on="0"/>
        <pt x="51" y="369" on="1"/>
        <pt x="51" y="469" on="0"/>
        <pt x="87" y="613" on="0"/>
        <pt x="162" y="705" on="0"/>
        <pt x="279" y="748" on="0"/>
        <pt x="360" y="748" on="1"/>
        <pt x="386" y="748" on="0"/>
        <pt x="448" y="742" on="0"/>
        <pt x="480" y="737" on="1"/>
        <pt x="480" y="694" on="1"/>
        <pt x="455" y="699" on="0"/>
        <pt x="394" y="705" on="0"/>
        <pt x="365" y="705" on="1"/>
        <pt x="294" y="705" on="0"/>
        <pt x="194" y="667" on="0"/>
        <pt x="129" y="586" on="0"/>
        <pt x="99" y="458" on="0"/>
        <pt x="99" y="369" on="1"/>
        <pt x="99" y="196" on="0"/>
        <pt x="225" y="34" on="0"/>
        <pt x="359" y="34" on="1"/>
        <pt x="369" y="34" on="0"/>
        <pt x="399" y="36" on="0"/>
        <pt x="433" y="39" on="0"/>
        <pt x="466" y="44" on="0"/>
        <pt x="480" y="46" on="1"/>
        <pt x="480" y="4" on="1"/>
        <pt x="454" y="-2" on="0"/>
        <pt x="393" y="-9" on="0"/>
      </contour>
    </TTGlyph>
    <TTGlyph name="Cdotaccent.sc" xMin="50" yMin="-8" xMax="423" yMax="693">
      <contour>
        <pt x="315" y="-8" on="1"/>
        <pt x="178" y="-6" on="0"/>
        <pt x="50" y="136" on="0"/>
        <pt x="50" y="288" on="1"/>
        <pt x="50" y="443" on="0"/>
        <pt x="177" y="584" on="0"/>
        <pt x="315" y="584" on="1"/>
        <pt x="338" y="584" on="0"/>
        <pt x="394" y="579" on="0"/>
        <pt x="423" y="574" on="1"/>
        <pt x="423" y="533" on="1"/>
        <pt x="400" y="538" on="0"/>
        <pt x="345" y="543" on="0"/>
        <pt x="320" y="543" on="1"/>
        <pt x="203" y="543" on="0"/>
        <pt x="97" y="424" on="0"/>
        <pt x="97" y="288" on="1"/>
        <pt x="97" y="155" on="0"/>
        <pt x="203" y="34" on="0"/>
        <pt x="315" y="34" on="1"/>
        <pt x="324" y="34" on="0"/>
        <pt x="351" y="36" on="0"/>
        <pt x="381" y="39" on="0"/>
        <pt x="411" y="42" on="0"/>
        <pt x="423" y="44" on="1"/>
        <pt x="423" y="5" on="1"/>
        <pt x="400" y="0" on="0"/>
        <pt x="344" y="-8" on="0"/>
      </contour>
      <contour>
        <pt x="280" y="629" on="1"/>
        <pt x="247" y="629" on="0"/>
        <pt x="247" y="661" on="1"/>
        <pt x="247" y="693" on="0"/>
        <pt x="280" y="693" on="1"/>
        <pt x="294" y="693" on="0"/>
        <pt x="314" y="678" on="0"/>
        <pt x="314" y="661" on="1"/>
        <pt x="314" y="644" on="0"/>
        <pt x="294" y="629" on="0"/>
      </contour>
    </TTGlyph>
    <TTGlyph name="D" xMin="85" yMin="-15" xMax="564" yMax="750">
      <contour>
        <pt x="214" y="-15" on="1"/>
        <pt x="178" y="-15" on="0"/>
        <pt x="111" y="-11" on="0"/>
        <pt x="85" y="-6" on="1"/>
        <pt x="85" y="734" on="1"/>
        <pt x="128" y="742" on="0"/>
        <pt x="214" y="750" on="0"/>
        <pt x="246" y="750" on="1"/>
        <pt x="409" y="750" on="0"/>
        <pt x="564" y="564" on="0"/>
        <pt x="564" y="369" on="1"/>
        <pt x="564" y="170" on="0"/>
        <pt x="395" y="-15" on="0"/>
      </contour>
      <contour>
        <pt x="222" y="28" on="1"/>
        <pt x="371" y="28" on="0"/>
        <pt x="516" y="195" on="0"/>
        <pt x="516" y="369" on="1"/>
        <pt x="516" y="544" on="0"/>
        <pt x="385" y="706" on="0"/>
        <pt x="245" y="706" on="1"/>
        <pt x="219" y="706" on="0"/>
        <pt x="158" y="702" on="0"/>
        <pt x="131" y="697" on="1"/>
        <pt x="131" y="35" on="1"/>
        <pt x="157" y="31" on="0"/>
        <pt x="200" y="28" on="0"/>
      </contour>
    </TTGlyph>
    <TTGlyph name="D.sc" xMin="80" yMin="-11" xMax="500" yMax="585">
      <contour>
        <pt x="198" y="-11" on="1"/>
        <pt x="164" y="-11" on="0"/>
        <pt x="103" y="-8" on="0"/>
        <pt x="80" y="-3" on="1"/>
        <pt x="80" y="574" on="1"/>
        <pt x="118" y="579" on="0"/>
        <pt x="193" y="585" on="0"/>
        <pt x="221" y="585" on="1"/>
        <pt x="365" y="585" on="0"/>
        <pt x="500" y="441" on="0"/>
        <pt x="500" y="288" on="1"/>
        <pt x="500" y="133" on="0"/>
        <pt x="355" y="-11" on="0"/>
      </contour>
      <contour>
        <pt x="206" y="30" on="1"/>
        <pt x="332" y="30" on="0"/>
        <pt x="453" y="155" on="0"/>
        <pt x="453" y="288" on="1"/>
        <pt x="453" y="421" on="0"/>
        <pt x="342" y="544" on="0"/>
        <pt x="222" y="544" on="1"/>
        <pt x="200" y="544" on="0"/>
        <pt x="148" y="540" on="0"/>
        <pt x="125" y="537" on="1"/>
        <pt x="125" y="35" on="1"/>
        <pt x="150" y="32" on="0"/>
        <pt x="186" y="30" on="0"/>
      </contour>
    </TTGlyph>
    <TTGlyph name="Dcaron" xMin="85" yMin="-15" xMax="564" yMax="923">
      <contour>
        <pt x="146" y="923" on="1"/>
        <pt x="279" y="850" on="1"/>
        <pt x="412" y="923" on="1"/>
        <pt x="412" y="875" on="1"/>
        <pt x="279" y="803" on="1"/>
        <pt x="146" y="875" on="1"/>
      </contour>
      <contour>
        <pt x="214" y="-15" on="1"/>
        <pt x="178" y="-15" on="0"/>
        <pt x="111" y="-11" on="0"/>
        <pt x="85" y="-6" on="1"/>
        <pt x="85" y="734" on="1"/>
        <pt x="128" y="742" on="0"/>
        <pt x="214" y="750" on="0"/>
        <pt x="246" y="750" on="1"/>
        <pt x="409" y="750" on="0"/>
        <pt x="564" y="564" on="0"/>
        <pt x="564" y="369" on="1"/>
        <pt x="564" y="170" on="0"/>
        <pt x="395" y="-15" on="0"/>
      </contour>
      <contour>
        <pt x="222" y="28" on="1"/>
        <pt x="371" y="28" on="0"/>
        <pt x="516" y="195" on="0"/>
        <pt x="516" y="369" on="1"/>
        <pt x="516" y="544" on="0"/>
        <pt x="385" y="706" on="0"/>
        <pt x="245" y="706" on="1"/>
        <pt x="219" y="706" on="0"/>
        <pt x="158" y="702" on="0"/>
        <pt x="131" y="697" on="1"/>
        <pt x="131" y="35" on="1"/>
        <pt x="157" y="31" on="0"/>
        <pt x="200" y="28" on="0"/>
      </contour>
    </TTGlyph>
    <TTGlyph name="Dcaron.sc" xMin="80" yMin="-11" xMax="500" yMax="724">
      <contour>
        <pt x="198" y="-11" on="1"/>
        <pt x="164" y="-11" on="0"/>
        <pt x="103" y="-8" on="0"/>
        <pt x="80" y="-3" on="1"/>
        <pt x="80" y="574" on="1"/>
        <pt x="118" y="579" on="0"/>
        <pt x="193" y="585" on="0"/>
        <pt x="221" y="585" on="1"/>
        <pt x="365" y="585" on="0"/>
        <pt x="500" y="441" on="0"/>
        <pt x="500" y="288" on="1"/>
        <pt x="500" y="133" on="0"/>
        <pt x="355" y="-11" on="0"/>
      </contour>
      <contour>
        <pt x="206" y="30" on="1"/>
        <pt x="332" y="30" on="0"/>
        <pt x="453" y="155" on="0"/>
        <pt x="453" y="288" on="1"/>
        <pt x="453" y="421" on="0"/>
        <pt x="342" y="544" on="0"/>
        <pt x="222" y="544" on="1"/>
        <pt x="200" y="544" on="0"/>
        <pt x="148" y="540" on="0"/>
        <pt x="125" y="537" on="1"/>
        <pt x="125" y="35" on="1"/>
        <pt x="150" y="32" on="0"/>
        <pt x="186" y="30" on="0"/>
      </contour>
      <contour>
        <pt x="135" y="683" on="1"/>
        <pt x="135" y="724" on="1"/>
        <pt x="252" y="668" on="1"/>
        <pt x="368" y="724" on="1"/>
        <pt x="368" y="683" on="1"/>
        <pt x="252" y="626" on="1"/>
      </contour>
    </TTGlyph>
    <TTGlyph name="Dcroat" xMin="2" yMin="-15" xMax="573" yMax="750">
      <contour>
        <pt x="2" y="390" on="1"/>
        <pt x="94" y="390" on="1"/>
        <pt x="94" y="734" on="1"/>
        <pt x="137" y="742" on="0"/>
        <pt x="223" y="750" on="0"/>
        <pt x="255" y="750" on="1"/>
        <pt x="418" y="750" on="0"/>
        <pt x="573" y="564" on="0"/>
        <pt x="573" y="369" on="1"/>
        <pt x="573" y="170" on="0"/>
        <pt x="404" y="-15" on="0"/>
        <pt x="223" y="-15" on="1"/>
        <pt x="187" y="-15" on="0"/>
        <pt x="120" y="-11" on="0"/>
        <pt x="94" y="-6" on="1"/>
        <pt x="94" y="347" on="1"/>
        <pt x="2" y="347" on="1"/>
      </contour>
      <contour>
        <pt x="231" y="28" on="1"/>
        <pt x="380" y="28" on="0"/>
        <pt x="525" y="195" on="0"/>
        <pt x="525" y="369" on="1"/>
        <pt x="525" y="544" on="0"/>
        <pt x="394" y="706" on="0"/>
        <pt x="254" y="706" on="1"/>
        <pt x="228" y="706" on="0"/>
        <pt x="167" y="702" on="0"/>
        <pt x="140" y="697" on="1"/>
        <pt x="140" y="390" on="1"/>
        <pt x="314" y="390" on="1"/>
        <pt x="314" y="347" on="1"/>
        <pt x="140" y="347" on="1"/>
        <pt x="140" y="35" on="1"/>
        <pt x="166" y="31" on="0"/>
        <pt x="209" y="28" on="0"/>
      </contour>
    </TTGlyph>
    <TTGlyph name="Dcroat.sc" xMin="8" yMin="-11" xMax="507" yMax="585">
      <contour>
        <pt x="8" y="307" on="1"/>
        <pt x="88" y="307" on="1"/>
        <pt x="88" y="574" on="1"/>
        <pt x="125" y="579" on="0"/>
        <pt x="201" y="585" on="0"/>
        <pt x="229" y="585" on="1"/>
        <pt x="373" y="585" on="0"/>
        <pt x="507" y="441" on="0"/>
        <pt x="507" y="288" on="1"/>
        <pt x="507" y="133" on="0"/>
        <pt x="362" y="-11" on="0"/>
        <pt x="204" y="-11" on="1"/>
        <pt x="171" y="-11" on="0"/>
        <pt x="111" y="-8" on="0"/>
        <pt x="88" y="-3" on="1"/>
        <pt x="88" y="267" on="1"/>
        <pt x="8" y="267" on="1"/>
      </contour>
      <contour>
        <pt x="214" y="30" on="1"/>
        <pt x="340" y="30" on="0"/>
        <pt x="461" y="155" on="0"/>
        <pt x="461" y="288" on="1"/>
        <pt x="461" y="422" on="0"/>
        <pt x="350" y="544" on="0"/>
        <pt x="230" y="544" on="1"/>
        <pt x="207" y="544" on="0"/>
        <pt x="156" y="540" on="0"/>
        <pt x="133" y="537" on="1"/>
        <pt x="133" y="307" on="1"/>
        <pt x="280" y="307" on="1"/>
        <pt x="280" y="267" on="1"/>
        <pt x="133" y="267" on="1"/>
        <pt x="133" y="35" on="1"/>
        <pt x="157" y="32" on="0"/>
        <pt x="194" y="30" on="0"/>
      </contour>
    </TTGlyph>
    <TTGlyph name="Ddotbelow" xMin="85" yMin="-167" xMax="564" yMax="750">
      <contour>
        <pt x="283" y="-167" on="1"/>
        <pt x="265" y="-167" on="0"/>
        <pt x="244" y="-149" on="0"/>
        <pt x="244" y="-128" on="1"/>
        <pt x="244" y="-107" on="0"/>
        <pt x="265" y="-89" on="0"/>
        <pt x="283" y="-89" on="1"/>
        <pt x="300" y="-89" on="0"/>
        <pt x="322" y="-107" on="0"/>
        <pt x="322" y="-128" on="1"/>
        <pt x="322" y="-149" on="0"/>
        <pt x="300" y="-167" on="0"/>
      </contour>
      <contour>
        <pt x="214" y="-15" on="1"/>
        <pt x="178" y="-15" on="0"/>
        <pt x="111" y="-11" on="0"/>
        <pt x="85" y="-6" on="1"/>
        <pt x="85" y="734" on="1"/>
        <pt x="128" y="742" on="0"/>
        <pt x="214" y="750" on="0"/>
        <pt x="246" y="750" on="1"/>
        <pt x="409" y="750" on="0"/>
        <pt x="564" y="564" on="0"/>
        <pt x="564" y="369" on="1"/>
        <pt x="564" y="170" on="0"/>
        <pt x="395" y="-15" on="0"/>
      </contour>
      <contour>
        <pt x="222" y="28" on="1"/>
        <pt x="371" y="28" on="0"/>
        <pt x="516" y="195" on="0"/>
        <pt x="516" y="369" on="1"/>
        <pt x="516" y="544" on="0"/>
        <pt x="385" y="706" on="0"/>
        <pt x="245" y="706" on="1"/>
        <pt x="219" y="706" on="0"/>
        <pt x="158" y="702" on="0"/>
        <pt x="131" y="697" on="1"/>
        <pt x="131" y="35" on="1"/>
        <pt x="157" y="31" on="0"/>
        <pt x="200" y="28" on="0"/>
      </contour>
    </TTGlyph>
    <TTGlyph name="Ddotbelow.sc" xMin="80" yMin="-133" xMax="500" yMax="585">
      <contour>
        <pt x="198" y="-11" on="1"/>
        <pt x="164" y="-11" on="0"/>
        <pt x="103" y="-8" on="0"/>
        <pt x="80" y="-3" on="1"/>
        <pt x="80" y="574" on="1"/>
        <pt x="118" y="579" on="0"/>
        <pt x="193" y="585" on="0"/>
        <pt x="221" y="585" on="1"/>
        <pt x="365" y="585" on="0"/>
        <pt x="500" y="441" on="0"/>
        <pt x="500" y="288" on="1"/>
        <pt x="500" y="133" on="0"/>
        <pt x="355" y="-11" on="0"/>
      </contour>
      <contour>
        <pt x="206" y="30" on="1"/>
        <pt x="332" y="30" on="0"/>
        <pt x="453" y="155" on="0"/>
        <pt x="453" y="288" on="1"/>
        <pt x="453" y="421" on="0"/>
        <pt x="342" y="544" on="0"/>
        <pt x="222" y="544" on="1"/>
        <pt x="200" y="544" on="0"/>
        <pt x="148" y="540" on="0"/>
        <pt x="125" y="537" on="1"/>
        <pt x="125" y="35" on="1"/>
        <pt x="150" y="32" on="0"/>
        <pt x="186" y="30" on="0"/>
      </contour>
      <contour>
        <pt x="255" y="-133" on="1"/>
        <pt x="221" y="-133" on="0"/>
        <pt x="221" y="-101" on="1"/>
        <pt x="221" y="-83" on="0"/>
        <pt x="239" y="-68" on="0"/>
        <pt x="255" y="-68" on="1"/>
        <pt x="271" y="-68" on="0"/>
        <pt x="290" y="-83" on="0"/>
        <pt x="290" y="-101" on="1"/>
        <pt x="290" y="-119" on="0"/>
        <pt x="271" y="-133" on="0"/>
      </contour>
    </TTGlyph>
    <TTGlyph name="Delta" xMin="22" yMin="0" xMax="585" yMax="740">
      <contour>
        <pt x="274" y="740" on="1"/>
        <pt x="334" y="740" on="1"/>
        <pt x="585" y="0" on="1"/>
        <pt x="22" y="0" on="1"/>
      </contour>
      <contour>
        <pt x="523" y="43" on="1"/>
        <pt x="303" y="690" on="1"/>
        <pt x="83" y="43" on="1"/>
      </contour>
    </TTGlyph>
    <TTGlyph name="E" xMin="85" yMin="0" xMax="483" yMax="740">
      <contour>
        <pt x="85" y="740" on="1"/>
        <pt x="475" y="740" on="1"/>
        <pt x="475" y="697" on="1"/>
        <pt x="131" y="697" on="1"/>
        <pt x="131" y="398" on="1"/>
        <pt x="445" y="398" on="1"/>
        <pt x="445" y="354" on="1"/>
        <pt x="131" y="354" on="1"/>
        <pt x="131" y="43" on="1"/>
        <pt x="483" y="43" on="1"/>
        <pt x="483" y="0" on="1"/>
        <pt x="85" y="0" on="1"/>
      </contour>
    </TTGlyph>
    <TTGlyph name="E.sc" xMin="80" yMin="0" xMax="429" yMax="577">
      <contour>
        <pt x="80" y="577" on="1"/>
        <pt x="422" y="577" on="1"/>
        <pt x="422" y="537" on="1"/>
        <pt x="126" y="537" on="1"/>
        <pt x="126" y="313" on="1"/>
        <pt x="397" y="313" on="1"/>
        <pt x="397" y="273" on="1"/>
        <pt x="126" y="273" on="1"/>
        <pt x="126" y="41" on="1"/>
        <pt x="429" y="41" on="1"/>
        <pt x="429" y="0" on="1"/>
        <pt x="80" y="0" on="1"/>
      </contour>
    </TTGlyph>
    <TTGlyph name="Eacute" xMin="85" yMin="0" xMax="483" yMax="921">
      <contour>
        <pt x="255" y="794" on="1"/>
        <pt x="332" y="921" on="1"/>
        <pt x="382" y="921" on="1"/>
        <pt x="295" y="789" on="1"/>
      </contour>
      <contour>
        <pt x="85" y="740" on="1"/>
        <pt x="475" y="740" on="1"/>
        <pt x="475" y="697" on="1"/>
        <pt x="131" y="697" on="1"/>
        <pt x="131" y="398" on="1"/>
        <pt x="445" y="398" on="1"/>
        <pt x="445" y="354" on="1"/>
        <pt x="131" y="354" on="1"/>
        <pt x="131" y="43" on="1"/>
        <pt x="483" y="43" on="1"/>
        <pt x="483" y="0" on="1"/>
        <pt x="85" y="0" on="1"/>
      </contour>
    </TTGlyph>
    <TTGlyph name="Eacute.sc" xMin="80" yMin="0" xMax="429" yMax="723">
      <contour>
        <pt x="80" y="577" on="1"/>
        <pt x="422" y="577" on="1"/>
        <pt x="422" y="537" on="1"/>
        <pt x="126" y="537" on="1"/>
        <pt x="126" y="313" on="1"/>
        <pt x="397" y="313" on="1"/>
        <pt x="397" y="273" on="1"/>
        <pt x="126" y="273" on="1"/>
        <pt x="126" y="41" on="1"/>
        <pt x="429" y="41" on="1"/>
        <pt x="429" y="0" on="1"/>
        <pt x="80" y="0" on="1"/>
      </contour>
      <contour>
        <pt x="228" y="620" on="1"/>
        <pt x="293" y="723" on="1"/>
        <pt x="342" y="723" on="1"/>
        <pt x="266" y="617" on="1"/>
      </contour>
    </TTGlyph>
    <TTGlyph name="Ebreve" xMin="85" yMin="0" xMax="483" yMax="950">
      <contour>
        <pt x="279" y="815" on="1"/>
        <pt x="210" y="815" on="0"/>
        <pt x="132" y="887" on="0"/>
        <pt x="132" y="950" on="1"/>
        <pt x="173" y="950" on="1"/>
        <pt x="173" y="904" on="0"/>
        <pt x="228" y="853" on="0"/>
        <pt x="279" y="853" on="1"/>
        <pt x="330" y="853" on="0"/>
        <pt x="385" y="904" on="0"/>
        <pt x="385" y="950" on="1"/>
        <pt x="427" y="950" on="1"/>
        <pt x="427" y="887" on="0"/>
        <pt x="349" y="815" on="0"/>
      </contour>
      <contour>
        <pt x="85" y="740" on="1"/>
        <pt x="475" y="740" on="1"/>
        <pt x="475" y="697" on="1"/>
        <pt x="131" y="697" on="1"/>
        <pt x="131" y="398" on="1"/>
        <pt x="445" y="398" on="1"/>
        <pt x="445" y="354" on="1"/>
        <pt x="131" y="354" on="1"/>
        <pt x="131" y="43" on="1"/>
        <pt x="483" y="43" on="1"/>
        <pt x="483" y="0" on="1"/>
        <pt x="85" y="0" on="1"/>
      </contour>
    </TTGlyph>
    <TTGlyph name="Ebreve.sc" xMin="80" yMin="0" xMax="429" yMax="744">
      <contour>
        <pt x="251" y="634" on="1"/>
        <pt x="190" y="634" on="0"/>
        <pt x="122" y="693" on="0"/>
        <pt x="122" y="744" on="1"/>
        <pt x="161" y="744" on="1"/>
        <pt x="161" y="706" on="0"/>
        <pt x="208" y="667" on="0"/>
        <pt x="251" y="667" on="1"/>
        <pt x="295" y="667" on="0"/>
        <pt x="342" y="706" on="0"/>
        <pt x="342" y="744" on="1"/>
        <pt x="380" y="744" on="1"/>
        <pt x="380" y="693" on="0"/>
        <pt x="313" y="634" on="0"/>
      </contour>
      <contour>
        <pt x="80" y="577" on="1"/>
        <pt x="422" y="577" on="1"/>
        <pt x="422" y="537" on="1"/>
        <pt x="126" y="537" on="1"/>
        <pt x="126" y="313" on="1"/>
        <pt x="397" y="313" on="1"/>
        <pt x="397" y="273" on="1"/>
        <pt x="126" y="273" on="1"/>
        <pt x="126" y="41" on="1"/>
        <pt x="429" y="41" on="1"/>
        <pt x="429" y="0" on="1"/>
        <pt x="80" y="0" on="1"/>
      </contour>
    </TTGlyph>
    <TTGlyph name="Ecaron" xMin="85" yMin="0" xMax="483" yMax="923">
      <contour>
        <pt x="149" y="923" on="1"/>
        <pt x="282" y="850" on="1"/>
        <pt x="415" y="923" on="1"/>
        <pt x="415" y="875" on="1"/>
        <pt x="282" y="803" on="1"/>
        <pt x="149" y="875" on="1"/>
      </contour>
      <contour>
        <pt x="85" y="740" on="1"/>
        <pt x="475" y="740" on="1"/>
        <pt x="475" y="697" on="1"/>
        <pt x="131" y="697" on="1"/>
        <pt x="131" y="398" on="1"/>
        <pt x="445" y="398" on="1"/>
        <pt x="445" y="354" on="1"/>
        <pt x="131" y="354" on="1"/>
        <pt x="131" y="43" on="1"/>
        <pt x="483" y="43" on="1"/>
        <pt x="483" y="0" on="1"/>
        <pt x="85" y="0" on="1"/>
      </contour>
    </TTGlyph>
    <TTGlyph name="Ecaron.sc" xMin="80" yMin="0" xMax="429" yMax="724">
      <contour>
        <pt x="80" y="577" on="1"/>
        <pt x="422" y="577" on="1"/>
        <pt x="422" y="537" on="1"/>
        <pt x="126" y="537" on="1"/>
        <pt x="126" y="313" on="1"/>
        <pt x="397" y="313" on="1"/>
        <pt x="397" y="273" on="1"/>
        <pt x="126" y="273" on="1"/>
        <pt x="126" y="41" on="1"/>
        <pt x="429" y="41" on="1"/>
        <pt x="429" y="0" on="1"/>
        <pt x="80" y="0" on="1"/>
      </contour>
      <contour>
        <pt x="137" y="683" on="1"/>
        <pt x="137" y="724" on="1"/>
        <pt x="253" y="668" on="1"/>
        <pt x="370" y="724" on="1"/>
        <pt x="370" y="683" on="1"/>
        <pt x="253" y="626" on="1"/>
      </contour>
    </TTGlyph>
    <TTGlyph name="Ecircumflex" xMin="85" yMin="0" xMax="483" yMax="936">
      <contour>
        <pt x="85" y="740" on="1"/>
        <pt x="475" y="740" on="1"/>
        <pt x="475" y="697" on="1"/>
        <pt x="131" y="697" on="1"/>
        <pt x="131" y="398" on="1"/>
        <pt x="445" y="398" on="1"/>
        <pt x="445" y="354" on="1"/>
        <pt x="131" y="354" on="1"/>
        <pt x="131" y="43" on="1"/>
        <pt x="483" y="43" on="1"/>
        <pt x="483" y="0" on="1"/>
        <pt x="85" y="0" on="1"/>
      </contour>
      <contour>
        <pt x="146" y="864" on="1"/>
        <pt x="279" y="936" on="1"/>
        <pt x="412" y="864" on="1"/>
        <pt x="412" y="817" on="1"/>
        <pt x="279" y="889" on="1"/>
        <pt x="146" y="817" on="1"/>
      </contour>
    </TTGlyph>
    <TTGlyph name="Ecircumflex.sc" xMin="80" yMin="0" xMax="429" yMax="734">
      <contour>
        <pt x="80" y="577" on="1"/>
        <pt x="422" y="577" on="1"/>
        <pt x="422" y="537" on="1"/>
        <pt x="126" y="537" on="1"/>
        <pt x="126" y="313" on="1"/>
        <pt x="397" y="313" on="1"/>
        <pt x="397" y="273" on="1"/>
        <pt x="126" y="273" on="1"/>
        <pt x="126" y="41" on="1"/>
        <pt x="429" y="41" on="1"/>
        <pt x="429" y="0" on="1"/>
        <pt x="80" y="0" on="1"/>
      </contour>
      <contour>
        <pt x="135" y="677" on="1"/>
        <pt x="251" y="734" on="1"/>
        <pt x="368" y="677" on="1"/>
        <pt x="368" y="635" on="1"/>
        <pt x="251" y="691" on="1"/>
        <pt x="135" y="635" on="1"/>
      </contour>
    </TTGlyph>
    <TTGlyph name="Edblgrave" xMin="85" yMin="0" xMax="483" yMax="918">
      <contour>
        <pt x="85" y="740" on="1"/>
        <pt x="475" y="740" on="1"/>
        <pt x="475" y="697" on="1"/>
        <pt x="131" y="697" on="1"/>
        <pt x="131" y="398" on="1"/>
        <pt x="445" y="398" on="1"/>
        <pt x="445" y="354" on="1"/>
        <pt x="131" y="354" on="1"/>
        <pt x="131" y="43" on="1"/>
        <pt x="483" y="43" on="1"/>
        <pt x="483" y="0" on="1"/>
        <pt x="85" y="0" on="1"/>
      </contour>
      <contour>
        <pt x="196" y="787" on="1"/>
        <pt x="108" y="918" on="1"/>
        <pt x="156" y="918" on="1"/>
        <pt x="233" y="801" on="1"/>
      </contour>
      <contour>
        <pt x="329" y="787" on="1"/>
        <pt x="241" y="918" on="1"/>
        <pt x="289" y="918" on="1"/>
        <pt x="367" y="801" on="1"/>
      </contour>
    </TTGlyph>
    <TTGlyph name="Edblgrave.sc" xMin="80" yMin="0" xMax="429" yMax="721">
      <contour>
        <pt x="80" y="577" on="1"/>
        <pt x="422" y="577" on="1"/>
        <pt x="422" y="537" on="1"/>
        <pt x="126" y="537" on="1"/>
        <pt x="126" y="313" on="1"/>
        <pt x="397" y="313" on="1"/>
        <pt x="397" y="273" on="1"/>
        <pt x="126" y="273" on="1"/>
        <pt x="126" y="41" on="1"/>
        <pt x="429" y="41" on="1"/>
        <pt x="429" y="0" on="1"/>
        <pt x="80" y="0" on="1"/>
      </contour>
      <contour>
        <pt x="100" y="721" on="1"/>
        <pt x="146" y="721" on="1"/>
        <pt x="212" y="625" on="1"/>
        <pt x="177" y="615" on="1"/>
      </contour>
      <contour>
        <pt x="216" y="721" on="1"/>
        <pt x="263" y="721" on="1"/>
        <pt x="328" y="625" on="1"/>
        <pt x="293" y="615" on="1"/>
      </contour>
    </TTGlyph>
    <TTGlyph name="Edieresis" xMin="85" yMin="0" xMax="483" yMax="889">
      <contour>
        <pt x="180" y="817" on="1"/>
        <pt x="164" y="817" on="0"/>
        <pt x="144" y="834" on="0"/>
        <pt x="144" y="853" on="1"/>
        <pt x="144" y="872" on="0"/>
        <pt x="164" y="889" on="0"/>
        <pt x="180" y="889" on="1"/>
        <pt x="195" y="889" on="0"/>
        <pt x="216" y="872" on="0"/>
        <pt x="216" y="853" on="1"/>
        <pt x="216" y="834" on="0"/>
        <pt x="195" y="817" on="0"/>
      </contour>
      <contour>
        <pt x="378" y="817" on="1"/>
        <pt x="361" y="817" on="0"/>
        <pt x="341" y="834" on="0"/>
        <pt x="341" y="853" on="1"/>
        <pt x="341" y="872" on="0"/>
        <pt x="361" y="889" on="0"/>
        <pt x="378" y="889" on="1"/>
        <pt x="392" y="889" on="0"/>
        <pt x="414" y="872" on="0"/>
        <pt x="414" y="853" on="1"/>
        <pt x="414" y="834" on="0"/>
        <pt x="392" y="817" on="0"/>
      </contour>
      <contour>
        <pt x="85" y="740" on="1"/>
        <pt x="475" y="740" on="1"/>
        <pt x="475" y="697" on="1"/>
        <pt x="131" y="697" on="1"/>
        <pt x="131" y="398" on="1"/>
        <pt x="445" y="398" on="1"/>
        <pt x="445" y="354" on="1"/>
        <pt x="131" y="354" on="1"/>
        <pt x="131" y="43" on="1"/>
        <pt x="483" y="43" on="1"/>
        <pt x="483" y="0" on="1"/>
        <pt x="85" y="0" on="1"/>
      </contour>
    </TTGlyph>
    <TTGlyph name="Edieresis.sc" xMin="80" yMin="0" xMax="429" yMax="701">
      <contour>
        <pt x="163" y="637" on="1"/>
        <pt x="148" y="637" on="0"/>
        <pt x="130" y="652" on="0"/>
        <pt x="130" y="669" on="1"/>
        <pt x="130" y="686" on="0"/>
        <pt x="148" y="701" on="0"/>
        <pt x="163" y="701" on="1"/>
        <pt x="178" y="701" on="0"/>
        <pt x="197" y="686" on="0"/>
        <pt x="197" y="669" on="1"/>
        <pt x="197" y="652" on="0"/>
        <pt x="178" y="637" on="0"/>
      </contour>
      <contour>
        <pt x="339" y="637" on="1"/>
        <pt x="324" y="637" on="0"/>
        <pt x="306" y="652" on="0"/>
        <pt x="306" y="669" on="1"/>
        <pt x="306" y="686" on="0"/>
        <pt x="324" y="701" on="0"/>
        <pt x="339" y="701" on="1"/>
        <pt x="353" y="701" on="0"/>
        <pt x="373" y="686" on="0"/>
        <pt x="373" y="669" on="1"/>
        <pt x="373" y="652" on="0"/>
        <pt x="353" y="637" on="0"/>
      </contour>
      <contour>
        <pt x="80" y="577" on="1"/>
        <pt x="422" y="577" on="1"/>
        <pt x="422" y="537" on="1"/>
        <pt x="126" y="537" on="1"/>
        <pt x="126" y="313" on="1"/>
        <pt x="397" y="313" on="1"/>
        <pt x="397" y="273" on="1"/>
        <pt x="126" y="273" on="1"/>
        <pt x="126" y="41" on="1"/>
        <pt x="429" y="41" on="1"/>
        <pt x="429" y="0" on="1"/>
        <pt x="80" y="0" on="1"/>
      </contour>
    </TTGlyph>
    <TTGlyph name="Edotaccent" xMin="85" yMin="0" xMax="483" yMax="877">
      <contour>
        <pt x="279" y="806" on="1"/>
        <pt x="263" y="806" on="0"/>
        <pt x="243" y="822" on="0"/>
        <pt x="243" y="841" on="1"/>
        <pt x="243" y="860" on="0"/>
        <pt x="263" y="877" on="0"/>
        <pt x="279" y="877" on="1"/>
        <pt x="295" y="877" on="0"/>
        <pt x="315" y="860" on="0"/>
        <pt x="315" y="841" on="1"/>
        <pt x="315" y="822" on="0"/>
        <pt x="295" y="806" on="0"/>
      </contour>
      <contour>
        <pt x="85" y="740" on="1"/>
        <pt x="475" y="740" on="1"/>
        <pt x="475" y="697" on="1"/>
        <pt x="131" y="697" on="1"/>
        <pt x="131" y="398" on="1"/>
        <pt x="445" y="398" on="1"/>
        <pt x="445" y="354" on="1"/>
        <pt x="131" y="354" on="1"/>
        <pt x="131" y="43" on="1"/>
        <pt x="483" y="43" on="1"/>
        <pt x="483" y="0" on="1"/>
        <pt x="85" y="0" on="1"/>
      </contour>
    </TTGlyph>
    <TTGlyph name="Edotaccent.sc" xMin="80" yMin="0" xMax="429" yMax="693">
      <contour>
        <pt x="251" y="629" on="1"/>
        <pt x="218" y="629" on="0"/>
        <pt x="218" y="661" on="1"/>
        <pt x="218" y="693" on="0"/>
        <pt x="251" y="693" on="1"/>
        <pt x="265" y="693" on="0"/>
        <pt x="284" y="678" on="0"/>
        <pt x="284" y="661" on="1"/>
        <pt x="284" y="644" on="0"/>
        <pt x="265" y="629" on="0"/>
      </contour>
      <contour>
        <pt x="80" y="577" on="1"/>
        <pt x="422" y="577" on="1"/>
        <pt x="422" y="537" on="1"/>
        <pt x="126" y="537" on="1"/>
        <pt x="126" y="313" on="1"/>
        <pt x="397" y="313" on="1"/>
        <pt x="397" y="273" on="1"/>
        <pt x="126" y="273" on="1"/>
        <pt x="126" y="41" on="1"/>
        <pt x="429" y="41" on="1"/>
        <pt x="429" y="0" on="1"/>
        <pt x="80" y="0" on="1"/>
      </contour>
    </TTGlyph>
    <TTGlyph name="Edotbelow" xMin="85" yMin="-167" xMax="483" yMax="740">
      <contour>
        <pt x="85" y="740" on="1"/>
        <pt x="475" y="740" on="1"/>
        <pt x="475" y="697" on="1"/>
        <pt x="131" y="697" on="1"/>
        <pt x="131" y="398" on="1"/>
        <pt x="445" y="398" on="1"/>
        <pt x="445" y="354" on="1"/>
        <pt x="131" y="354" on="1"/>
        <pt x="131" y="43" on="1"/>
        <pt x="483" y="43" on="1"/>
        <pt x="483" y="0" on="1"/>
        <pt x="85" y="0" on="1"/>
      </contour>
      <contour>
        <pt x="297" y="-167" on="1"/>
        <pt x="279" y="-167" on="0"/>
        <pt x="258" y="-149" on="0"/>
        <pt x="258" y="-128" on="1"/>
        <pt x="258" y="-107" on="0"/>
        <pt x="279" y="-89" on="0"/>
        <pt x="297" y="-89" on="1"/>
        <pt x="314" y="-89" on="0"/>
        <pt x="336" y="-107" on="0"/>
        <pt x="336" y="-128" on="1"/>
        <pt x="336" y="-149" on="0"/>
        <pt x="314" y="-167" on="0"/>
      </contour>
    </TTGlyph>
    <TTGlyph name="Edotbelow.sc" xMin="80" yMin="-133" xMax="429" yMax="577">
      <contour>
        <pt x="266" y="-133" on="1"/>
        <pt x="231" y="-133" on="0"/>
        <pt x="231" y="-101" on="1"/>
        <pt x="231" y="-83" on="0"/>
        <pt x="249" y="-68" on="0"/>
        <pt x="266" y="-68" on="1"/>
        <pt x="282" y="-68" on="0"/>
        <pt x="302" y="-83" on="0"/>
        <pt x="302" y="-101" on="1"/>
        <pt x="302" y="-119" on="0"/>
        <pt x="282" y="-133" on="0"/>
      </contour>
      <contour>
        <pt x="80" y="577" on="1"/>
        <pt x="422" y="577" on="1"/>
        <pt x="422" y="537" on="1"/>
        <pt x="126" y="537" on="1"/>
        <pt x="126" y="313" on="1"/>
        <pt x="397" y="313" on="1"/>
        <pt x="397" y="273" on="1"/>
        <pt x="126" y="273" on="1"/>
        <pt x="126" y="41" on="1"/>
        <pt x="429" y="41" on="1"/>
        <pt x="429" y="0" on="1"/>
        <pt x="80" y="0" on="1"/>
      </contour>
    </TTGlyph>
    <TTGlyph name="Egrave" xMin="85" yMin="0" xMax="483" yMax="921">
      <contour>
        <pt x="258" y="789" on="1"/>
        <pt x="170" y="921" on="1"/>
        <pt x="220" y="921" on="1"/>
        <pt x="298" y="803" on="1"/>
      </contour>
      <contour>
        <pt x="85" y="740" on="1"/>
        <pt x="475" y="740" on="1"/>
        <pt x="475" y="697" on="1"/>
        <pt x="131" y="697" on="1"/>
        <pt x="131" y="398" on="1"/>
        <pt x="445" y="398" on="1"/>
        <pt x="445" y="354" on="1"/>
        <pt x="131" y="354" on="1"/>
        <pt x="131" y="43" on="1"/>
        <pt x="483" y="43" on="1"/>
        <pt x="483" y="0" on="1"/>
        <pt x="85" y="0" on="1"/>
      </contour>
    </TTGlyph>
    <TTGlyph name="Egrave.sc" xMin="80" yMin="0" xMax="429" yMax="723">
      <contour>
        <pt x="80" y="577" on="1"/>
        <pt x="422" y="577" on="1"/>
        <pt x="422" y="537" on="1"/>
        <pt x="126" y="537" on="1"/>
        <pt x="126" y="313" on="1"/>
        <pt x="397" y="313" on="1"/>
        <pt x="397" y="273" on="1"/>
        <pt x="126" y="273" on="1"/>
        <pt x="126" y="41" on="1"/>
        <pt x="429" y="41" on="1"/>
        <pt x="429" y="0" on="1"/>
        <pt x="80" y="0" on="1"/>
      </contour>
      <contour>
        <pt x="155" y="723" on="1"/>
        <pt x="203" y="723" on="1"/>
        <pt x="269" y="627" on="1"/>
        <pt x="231" y="617" on="1"/>
      </contour>
    </TTGlyph>
    <TTGlyph name="Einvertedbreve" xMin="85" yMin="0" xMax="483" yMax="958">
      <contour>
        <pt x="85" y="740" on="1"/>
        <pt x="475" y="740" on="1"/>
        <pt x="475" y="697" on="1"/>
        <pt x="131" y="697" on="1"/>
        <pt x="131" y="398" on="1"/>
        <pt x="445" y="398" on="1"/>
        <pt x="445" y="354" on="1"/>
        <pt x="131" y="354" on="1"/>
        <pt x="131" y="43" on="1"/>
        <pt x="483" y="43" on="1"/>
        <pt x="483" y="0" on="1"/>
        <pt x="85" y="0" on="1"/>
      </contour>
      <contour>
        <pt x="384" y="822" on="1"/>
        <pt x="384" y="869" on="0"/>
        <pt x="329" y="920" on="0"/>
        <pt x="278" y="920" on="1"/>
        <pt x="227" y="920" on="0"/>
        <pt x="172" y="869" on="0"/>
        <pt x="172" y="822" on="1"/>
        <pt x="131" y="822" on="1"/>
        <pt x="131" y="885" on="0"/>
        <pt x="209" y="958" on="0"/>
        <pt x="278" y="958" on="1"/>
        <pt x="348" y="958" on="0"/>
        <pt x="425" y="885" on="0"/>
        <pt x="425" y="822" on="1"/>
      </contour>
    </TTGlyph>
    <TTGlyph name="Einvertedbreve.sc" xMin="80" yMin="0" xMax="429" yMax="749">
      <contour>
        <pt x="121" y="640" on="1"/>
        <pt x="121" y="691" on="0"/>
        <pt x="188" y="749" on="0"/>
        <pt x="251" y="749" on="1"/>
        <pt x="312" y="749" on="0"/>
        <pt x="380" y="691" on="0"/>
        <pt x="380" y="640" on="1"/>
        <pt x="341" y="640" on="1"/>
        <pt x="341" y="677" on="0"/>
        <pt x="294" y="716" on="0"/>
        <pt x="251" y="716" on="1"/>
        <pt x="207" y="716" on="0"/>
        <pt x="160" y="677" on="0"/>
        <pt x="160" y="640" on="1"/>
      </contour>
      <contour>
        <pt x="80" y="577" on="1"/>
        <pt x="422" y="577" on="1"/>
        <pt x="422" y="537" on="1"/>
        <pt x="126" y="537" on="1"/>
        <pt x="126" y="313" on="1"/>
        <pt x="397" y="313" on="1"/>
        <pt x="397" y="273" on="1"/>
        <pt x="126" y="273" on="1"/>
        <pt x="126" y="41" on="1"/>
        <pt x="429" y="41" on="1"/>
        <pt x="429" y="0" on="1"/>
        <pt x="80" y="0" on="1"/>
      </contour>
    </TTGlyph>
    <TTGlyph name="Emacron" xMin="85" yMin="0" xMax="483" yMax="883">
      <contour>
        <pt x="151" y="883" on="1"/>
        <pt x="393" y="883" on="1"/>
        <pt x="393" y="842" on="1"/>
        <pt x="151" y="842" on="1"/>
      </contour>
      <contour>
        <pt x="85" y="740" on="1"/>
        <pt x="475" y="740" on="1"/>
        <pt x="475" y="697" on="1"/>
        <pt x="131" y="697" on="1"/>
        <pt x="131" y="398" on="1"/>
        <pt x="445" y="398" on="1"/>
        <pt x="445" y="354" on="1"/>
        <pt x="131" y="354" on="1"/>
        <pt x="131" y="43" on="1"/>
        <pt x="483" y="43" on="1"/>
        <pt x="483" y="0" on="1"/>
        <pt x="85" y="0" on="1"/>
      </contour>
    </TTGlyph>
    <TTGlyph name="Emacron.sc" xMin="80" yMin="0" xMax="429" yMax="693">
      <contour>
        <pt x="80" y="577" on="1"/>
        <pt x="422" y="577" on="1"/>
        <pt x="422" y="537" on="1"/>
        <pt x="126" y="537" on="1"/>
        <pt x="126" y="313" on="1"/>
        <pt x="397" y="313" on="1"/>
        <pt x="397" y="273" on="1"/>
        <pt x="126" y="273" on="1"/>
        <pt x="126" y="41" on="1"/>
        <pt x="429" y="41" on="1"/>
        <pt x="429" y="0" on="1"/>
        <pt x="80" y="0" on="1"/>
      </contour>
      <contour>
        <pt x="139" y="693" on="1"/>
        <pt x="353" y="693" on="1"/>
        <pt x="353" y="656" on="1"/>
        <pt x="139" y="656" on="1"/>
      </contour>
    </TTGlyph>
    <TTGlyph name="Eng" xMin="85" yMin="-180" xMax="599" yMax="740">
      <contour>
        <pt x="477" y="-170" on="1"/>
        <pt x="500" y="-125" on="0"/>
        <pt x="537" y="-30" on="0"/>
        <pt x="545" y="8" on="1"/>
        <pt x="185" y="573" on="1"/>
        <pt x="134" y="661" on="1"/>
        <pt x="129" y="660" on="1"/>
        <pt x="129" y="0" on="1"/>
        <pt x="85" y="0" on="1"/>
        <pt x="85" y="740" on="1"/>
        <pt x="132" y="740" on="1"/>
        <pt x="499" y="165" on="1"/>
        <pt x="549" y="78" on="1"/>
        <pt x="554" y="79" on="1"/>
        <pt x="554" y="740" on="1"/>
        <pt x="599" y="740" on="1"/>
        <pt x="599" y="58" on="1"/>
        <pt x="599" y="35" on="0"/>
        <pt x="586" y="-25" on="0"/>
        <pt x="562" y="-89" on="0"/>
        <pt x="531" y="-153" on="0"/>
        <pt x="513" y="-180" on="1"/>
      </contour>
    </TTGlyph>
    <TTGlyph name="Eng.sc" xMin="81" yMin="-143" xMax="528" yMax="577">
      <contour>
        <pt x="418" y="-133" on="1"/>
        <pt x="438" y="-97" on="0"/>
        <pt x="469" y="-21" on="0"/>
        <pt x="476" y="10" on="1"/>
        <pt x="172" y="433" on="1"/>
        <pt x="128" y="500" on="1"/>
        <pt x="123" y="500" on="1"/>
        <pt x="123" y="0" on="1"/>
        <pt x="81" y="0" on="1"/>
        <pt x="81" y="577" on="1"/>
        <pt x="125" y="577" on="1"/>
        <pt x="436" y="144" on="1"/>
        <pt x="480" y="76" on="1"/>
        <pt x="485" y="77" on="1"/>
        <pt x="485" y="577" on="1"/>
        <pt x="528" y="577" on="1"/>
        <pt x="528" y="51" on="1"/>
        <pt x="528" y="32" on="0"/>
        <pt x="516" y="-16" on="0"/>
        <pt x="496" y="-69" on="0"/>
        <pt x="468" y="-121" on="0"/>
        <pt x="453" y="-143" on="1"/>
      </contour>
    </TTGlyph>
    <TTGlyph name="Eogonek" xMin="85" yMin="-220" xMax="483" yMax="740">
      <contour>
        <pt x="85" y="740" on="1"/>
        <pt x="475" y="740" on="1"/>
        <pt x="475" y="697" on="1"/>
        <pt x="131" y="697" on="1"/>
        <pt x="131" y="398" on="1"/>
        <pt x="445" y="398" on="1"/>
        <pt x="445" y="354" on="1"/>
        <pt x="131" y="354" on="1"/>
        <pt x="131" y="43" on="1"/>
        <pt x="483" y="43" on="1"/>
        <pt x="483" y="-19" on="1"/>
        <pt x="430" y="-45" on="0"/>
        <pt x="384" y="-101" on="0"/>
        <pt x="384" y="-135" on="1"/>
        <pt x="384" y="-182" on="0"/>
        <pt x="433" y="-182" on="1"/>
        <pt x="457" y="-182" on="0"/>
        <pt x="482" y="-171" on="1"/>
        <pt x="482" y="-208" on="1"/>
        <pt x="458" y="-220" on="0"/>
        <pt x="427" y="-220" on="1"/>
        <pt x="387" y="-220" on="0"/>
        <pt x="344" y="-178" on="0"/>
        <pt x="344" y="-138" on="1"/>
        <pt x="344" y="-99" on="0"/>
        <pt x="391" y="-32" on="0"/>
        <pt x="444" y="0" on="1"/>
        <pt x="85" y="0" on="1"/>
      </contour>
    </TTGlyph>
    <TTGlyph name="Eogonek.sc" xMin="81" yMin="-172" xMax="429" yMax="577">
      <contour>
        <pt x="380" y="-172" on="1"/>
        <pt x="305" y="-172" on="0"/>
        <pt x="305" y="-107" on="1"/>
        <pt x="305" y="-76" on="0"/>
        <pt x="345" y="-26" on="0"/>
        <pt x="390" y="0" on="1"/>
        <pt x="81" y="0" on="1"/>
        <pt x="81" y="577" on="1"/>
        <pt x="422" y="577" on="1"/>
        <pt x="422" y="537" on="1"/>
        <pt x="126" y="537" on="1"/>
        <pt x="126" y="313" on="1"/>
        <pt x="397" y="313" on="1"/>
        <pt x="397" y="273" on="1"/>
        <pt x="126" y="273" on="1"/>
        <pt x="126" y="41" on="1"/>
        <pt x="429" y="41" on="1"/>
        <pt x="429" y="-14" on="1"/>
        <pt x="388" y="-30" on="0"/>
        <pt x="343" y="-77" on="0"/>
        <pt x="343" y="-105" on="1"/>
        <pt x="343" y="-138" on="0"/>
        <pt x="384" y="-138" on="1"/>
        <pt x="407" y="-138" on="0"/>
        <pt x="428" y="-130" on="1"/>
        <pt x="428" y="-162" on="1"/>
        <pt x="405" y="-172" on="0"/>
      </contour>
    </TTGlyph>
    <TTGlyph name="Eth" xMin="2" yMin="-15" xMax="573" yMax="750">
      <contour>
        <pt x="2" y="390" on="1"/>
        <pt x="94" y="390" on="1"/>
        <pt x="94" y="734" on="1"/>
        <pt x="137" y="742" on="0"/>
        <pt x="223" y="750" on="0"/>
        <pt x="255" y="750" on="1"/>
        <pt x="418" y="750" on="0"/>
        <pt x="573" y="564" on="0"/>
        <pt x="573" y="369" on="1"/>
        <pt x="573" y="170" on="0"/>
        <pt x="404" y="-15" on="0"/>
        <pt x="223" y="-15" on="1"/>
        <pt x="187" y="-15" on="0"/>
        <pt x="120" y="-11" on="0"/>
        <pt x="94" y="-6" on="1"/>
        <pt x="94" y="347" on="1"/>
        <pt x="2" y="347" on="1"/>
      </contour>
      <contour>
        <pt x="231" y="28" on="1"/>
        <pt x="380" y="28" on="0"/>
        <pt x="525" y="195" on="0"/>
        <pt x="525" y="369" on="1"/>
        <pt x="525" y="544" on="0"/>
        <pt x="394" y="706" on="0"/>
        <pt x="254" y="706" on="1"/>
        <pt x="228" y="706" on="0"/>
        <pt x="167" y="702" on="0"/>
        <pt x="140" y="697" on="1"/>
        <pt x="140" y="390" on="1"/>
        <pt x="314" y="390" on="1"/>
        <pt x="314" y="347" on="1"/>
        <pt x="140" y="347" on="1"/>
        <pt x="140" y="35" on="1"/>
        <pt x="166" y="31" on="0"/>
        <pt x="209" y="28" on="0"/>
      </contour>
    </TTGlyph>
    <TTGlyph name="Eth.sc" xMin="8" yMin="-11" xMax="507" yMax="585">
      <contour>
        <pt x="8" y="307" on="1"/>
        <pt x="87" y="307" on="1"/>
        <pt x="87" y="574" on="1"/>
        <pt x="125" y="579" on="0"/>
        <pt x="201" y="585" on="0"/>
        <pt x="229" y="585" on="1"/>
        <pt x="373" y="585" on="0"/>
        <pt x="507" y="441" on="0"/>
        <pt x="507" y="288" on="1"/>
        <pt x="507" y="133" on="0"/>
        <pt x="362" y="-11" on="0"/>
        <pt x="204" y="-11" on="1"/>
        <pt x="171" y="-11" on="0"/>
        <pt x="110" y="-8" on="0"/>
        <pt x="87" y="-3" on="1"/>
        <pt x="87" y="268" on="1"/>
        <pt x="8" y="268" on="1"/>
      </contour>
      <contour>
        <pt x="214" y="30" on="1"/>
        <pt x="339" y="30" on="0"/>
        <pt x="461" y="155" on="0"/>
        <pt x="461" y="288" on="1"/>
        <pt x="461" y="422" on="0"/>
        <pt x="350" y="544" on="0"/>
        <pt x="230" y="544" on="1"/>
        <pt x="207" y="544" on="0"/>
        <pt x="156" y="540" on="0"/>
        <pt x="133" y="537" on="1"/>
        <pt x="133" y="307" on="1"/>
        <pt x="280" y="307" on="1"/>
        <pt x="280" y="268" on="1"/>
        <pt x="133" y="268" on="1"/>
        <pt x="133" y="35" on="1"/>
        <pt x="157" y="32" on="0"/>
        <pt x="194" y="30" on="0"/>
      </contour>
    </TTGlyph>
    <TTGlyph name="Etilde" xMin="85" yMin="0" xMax="483" yMax="908">
      <contour>
        <pt x="122" y="853" on="1"/>
        <pt x="141" y="876" on="0"/>
        <pt x="192" y="908" on="0"/>
        <pt x="218" y="908" on="1"/>
        <pt x="238" y="908" on="0"/>
        <pt x="272" y="895" on="0"/>
        <pt x="303" y="878" on="0"/>
        <pt x="333" y="865" on="0"/>
        <pt x="351" y="865" on="1"/>
        <pt x="370" y="865" on="0"/>
        <pt x="402" y="886" on="0"/>
        <pt x="415" y="905" on="1"/>
        <pt x="442" y="883" on="1"/>
        <pt x="427" y="857" on="0"/>
        <pt x="374" y="825" on="0"/>
        <pt x="347" y="825" on="1"/>
        <pt x="328" y="825" on="0"/>
        <pt x="295" y="838" on="0"/>
        <pt x="264" y="855" on="0"/>
        <pt x="233" y="868" on="0"/>
        <pt x="216" y="868" on="1"/>
        <pt x="197" y="868" on="0"/>
        <pt x="160" y="846" on="0"/>
        <pt x="146" y="829" on="1"/>
      </contour>
      <contour>
        <pt x="85" y="740" on="1"/>
        <pt x="475" y="740" on="1"/>
        <pt x="475" y="697" on="1"/>
        <pt x="131" y="697" on="1"/>
        <pt x="131" y="398" on="1"/>
        <pt x="445" y="398" on="1"/>
        <pt x="445" y="354" on="1"/>
        <pt x="131" y="354" on="1"/>
        <pt x="131" y="43" on="1"/>
        <pt x="483" y="43" on="1"/>
        <pt x="483" y="0" on="1"/>
        <pt x="85" y="0" on="1"/>
      </contour>
    </TTGlyph>
    <TTGlyph name="Etilde.sc" xMin="80" yMin="0" xMax="429" yMax="713">
      <contour>
        <pt x="114" y="666" on="1"/>
        <pt x="131" y="686" on="0"/>
        <pt x="176" y="713" on="0"/>
        <pt x="199" y="713" on="1"/>
        <pt x="217" y="713" on="0"/>
        <pt x="246" y="703" on="0"/>
        <pt x="273" y="690" on="0"/>
        <pt x="300" y="680" on="0"/>
        <pt x="316" y="680" on="1"/>
        <pt x="349" y="680" on="0"/>
        <pt x="374" y="711" on="1"/>
        <pt x="396" y="694" on="1"/>
        <pt x="382" y="671" on="0"/>
        <pt x="334" y="643" on="0"/>
        <pt x="311" y="643" on="1"/>
        <pt x="294" y="643" on="0"/>
        <pt x="265" y="654" on="0"/>
        <pt x="238" y="666" on="0"/>
        <pt x="210" y="677" on="0"/>
        <pt x="195" y="677" on="1"/>
        <pt x="179" y="677" on="0"/>
        <pt x="147" y="660" on="0"/>
        <pt x="134" y="646" on="1"/>
      </contour>
      <contour>
        <pt x="80" y="577" on="1"/>
        <pt x="422" y="577" on="1"/>
        <pt x="422" y="537" on="1"/>
        <pt x="126" y="537" on="1"/>
        <pt x="126" y="313" on="1"/>
        <pt x="397" y="313" on="1"/>
        <pt x="397" y="273" on="1"/>
        <pt x="126" y="273" on="1"/>
        <pt x="126" y="41" on="1"/>
        <pt x="429" y="41" on="1"/>
        <pt x="429" y="0" on="1"/>
        <pt x="80" y="0" on="1"/>
      </contour>
    </TTGlyph>
    <TTGlyph name="Euro" xMin="42" yMin="-10" xMax="487" yMax="748">
      <contour>
        <pt x="42" y="473" on="1"/>
        <pt x="124" y="473" on="1"/>
        <pt x="132" y="546" on="0"/>
        <pt x="175" y="650" on="0"/>
        <pt x="248" y="717" on="0"/>
        <pt x="353" y="748" on="0"/>
        <pt x="423" y="748" on="1"/>
        <pt x="445" y="748" on="0"/>
        <pt x="472" y="747" on="0"/>
        <pt x="487" y="745" on="1"/>
        <pt x="469" y="702" on="1"/>
        <pt x="461" y="703" on="0"/>
        <pt x="443" y="705" on="0"/>
        <pt x="429" y="705" on="1"/>
        <pt x="369" y="705" on="0"/>
        <pt x="279" y="679" on="0"/>
        <pt x="216" y="624" on="0"/>
        <pt x="178" y="536" on="0"/>
        <pt x="171" y="473" on="1"/>
        <pt x="410" y="473" on="1"/>
        <pt x="391" y="434" on="1"/>
        <pt x="168" y="434" on="1"/>
        <pt x="166" y="418" on="0"/>
        <pt x="166" y="386" on="0"/>
        <pt x="166" y="369" on="1"/>
        <pt x="166" y="352" on="0"/>
        <pt x="167" y="321" on="0"/>
        <pt x="168" y="306" on="1"/>
        <pt x="376" y="306" on="1"/>
        <pt x="357" y="266" on="1"/>
        <pt x="172" y="266" on="1"/>
        <pt x="188" y="144" on="0"/>
        <pt x="308" y="34" on="0"/>
        <pt x="424" y="34" on="1"/>
        <pt x="432" y="34" on="0"/>
        <pt x="458" y="35" on="0"/>
        <pt x="472" y="37" on="1"/>
        <pt x="472" y="-8" on="1"/>
        <pt x="463" y="-10" on="0"/>
        <pt x="442" y="-10" on="0"/>
        <pt x="425" y="-10" on="1"/>
        <pt x="287" y="-8" on="0"/>
        <pt x="142" y="123" on="0"/>
        <pt x="125" y="266" on="1"/>
        <pt x="42" y="266" on="1"/>
        <pt x="42" y="306" on="1"/>
        <pt x="121" y="306" on="1"/>
        <pt x="119" y="321" on="0"/>
        <pt x="119" y="352" on="0"/>
        <pt x="119" y="369" on="1"/>
        <pt x="119" y="386" on="0"/>
        <pt x="119" y="418" on="0"/>
        <pt x="121" y="434" on="1"/>
        <pt x="42" y="434" on="1"/>
      </contour>
    </TTGlyph>
    <TTGlyph name="Euro.tab" xMin="32" yMin="-10" xMax="475" yMax="748">
      <contour>
        <pt x="32" y="473" on="1"/>
        <pt x="113" y="473" on="1"/>
        <pt x="121" y="546" on="0"/>
        <pt x="164" y="651" on="0"/>
        <pt x="237" y="717" on="0"/>
        <pt x="341" y="748" on="0"/>
        <pt x="411" y="748" on="1"/>
        <pt x="433" y="748" on="0"/>
        <pt x="460" y="747" on="0"/>
        <pt x="475" y="745" on="1"/>
        <pt x="458" y="702" on="1"/>
        <pt x="450" y="703" on="0"/>
        <pt x="431" y="705" on="0"/>
        <pt x="417" y="705" on="1"/>
        <pt x="298" y="705" on="0"/>
        <pt x="176" y="597" on="0"/>
        <pt x="162" y="473" on="1"/>
        <pt x="399" y="473" on="1"/>
        <pt x="380" y="434" on="1"/>
        <pt x="157" y="434" on="1"/>
        <pt x="156" y="419" on="0"/>
        <pt x="155" y="386" on="0"/>
        <pt x="155" y="369" on="1"/>
        <pt x="155" y="334" on="0"/>
        <pt x="158" y="306" on="1"/>
        <pt x="364" y="306" on="1"/>
        <pt x="346" y="266" on="1"/>
        <pt x="162" y="266" on="1"/>
        <pt x="177" y="145" on="0"/>
        <pt x="298" y="34" on="0"/>
        <pt x="413" y="34" on="1"/>
        <pt x="421" y="34" on="0"/>
        <pt x="446" y="35" on="0"/>
        <pt x="460" y="37" on="1"/>
        <pt x="460" y="-8" on="1"/>
        <pt x="452" y="-10" on="0"/>
        <pt x="430" y="-10" on="0"/>
        <pt x="413" y="-10" on="1"/>
        <pt x="276" y="-8" on="0"/>
        <pt x="130" y="123" on="0"/>
        <pt x="114" y="266" on="1"/>
        <pt x="32" y="266" on="1"/>
        <pt x="32" y="306" on="1"/>
        <pt x="110" y="306" on="1"/>
        <pt x="108" y="321" on="0"/>
        <pt x="108" y="352" on="0"/>
        <pt x="108" y="369" on="1"/>
        <pt x="108" y="386" on="0"/>
        <pt x="109" y="419" on="0"/>
        <pt x="110" y="434" on="1"/>
        <pt x="32" y="434" on="1"/>
      </contour>
    </TTGlyph>
    <TTGlyph name="F" xMin="85" yMin="0" xMax="460" yMax="740">
      <contour>
        <pt x="85" y="740" on="1"/>
        <pt x="460" y="740" on="1"/>
        <pt x="460" y="697" on="1"/>
        <pt x="131" y="697" on="1"/>
        <pt x="131" y="396" on="1"/>
        <pt x="438" y="396" on="1"/>
        <pt x="438" y="353" on="1"/>
        <pt x="131" y="353" on="1"/>
        <pt x="131" y="0" on="1"/>
        <pt x="85" y="0" on="1"/>
      </contour>
    </TTGlyph>
    <TTGlyph name="F.sc" xMin="80" yMin="0" xMax="410" yMax="577">
      <contour>
        <pt x="80" y="577" on="1"/>
        <pt x="410" y="577" on="1"/>
        <pt x="410" y="536" on="1"/>
        <pt x="126" y="536" on="1"/>
        <pt x="126" y="311" on="1"/>
        <pt x="390" y="311" on="1"/>
        <pt x="390" y="270" on="1"/>
        <pt x="126" y="270" on="1"/>
        <pt x="126" y="0" on="1"/>
        <pt x="80" y="0" on="1"/>
      </contour>
    </TTGlyph>
    <TTGlyph name="F_B.sc" xMin="80" yMin="-8" xMax="897" yMax="585">
      <contour>
        <pt x="80" y="577" on="1"/>
        <pt x="410" y="577" on="1"/>
        <pt x="410" y="536" on="1"/>
        <pt x="126" y="536" on="1"/>
        <pt x="126" y="311" on="1"/>
        <pt x="390" y="311" on="1"/>
        <pt x="390" y="270" on="1"/>
        <pt x="126" y="270" on="1"/>
        <pt x="126" y="0" on="1"/>
        <pt x="80" y="0" on="1"/>
      </contour>
      <contour>
        <pt x="681" y="-8" on="1"/>
        <pt x="661" y="-8" on="0"/>
        <pt x="616" y="-6" on="0"/>
        <pt x="571" y="-3" on="0"/>
        <pt x="528" y="1" on="0"/>
        <pt x="510" y="4" on="1"/>
        <pt x="510" y="574" on="1"/>
        <pt x="539" y="577" on="0"/>
        <pt x="584" y="581" on="0"/>
        <pt x="621" y="584" on="0"/>
        <pt x="653" y="585" on="0"/>
        <pt x="670" y="585" on="1"/>
        <pt x="779" y="585" on="0"/>
        <pt x="877" y="511" on="0"/>
        <pt x="877" y="430" on="1"/>
        <pt x="877" y="376" on="0"/>
        <pt x="822" y="305" on="0"/>
        <pt x="772" y="296" on="1"/>
        <pt x="772" y="293" on="1"/>
        <pt x="832" y="284" on="0"/>
        <pt x="897" y="211" on="0"/>
        <pt x="897" y="151" on="1"/>
        <pt x="897" y="-8" on="0"/>
      </contour>
      <contour>
        <pt x="683" y="29" on="1"/>
        <pt x="850" y="29" on="0"/>
        <pt x="850" y="152" on="1"/>
        <pt x="850" y="215" on="0"/>
        <pt x="769" y="273" on="0"/>
        <pt x="677" y="273" on="1"/>
        <pt x="554" y="273" on="1"/>
        <pt x="554" y="38" on="1"/>
        <pt x="562" y="36" on="0"/>
        <pt x="591" y="33" on="0"/>
        <pt x="626" y="31" on="0"/>
        <pt x="665" y="29" on="0"/>
      </contour>
      <contour>
        <pt x="676" y="311" on="1"/>
        <pt x="761" y="311" on="0"/>
        <pt x="830" y="364" on="0"/>
        <pt x="830" y="429" on="1"/>
        <pt x="830" y="491" on="0"/>
        <pt x="756" y="546" on="0"/>
        <pt x="673" y="546" on="1"/>
        <pt x="639" y="546" on="0"/>
        <pt x="583" y="543" on="0"/>
        <pt x="554" y="539" on="1"/>
        <pt x="554" y="311" on="1"/>
      </contour>
    </TTGlyph>
    <TTGlyph name="F_F.sc" xMin="80" yMin="0" xMax="839" yMax="577">
      <contour>
        <pt x="80" y="577" on="1"/>
        <pt x="410" y="577" on="1"/>
        <pt x="410" y="536" on="1"/>
        <pt x="126" y="536" on="1"/>
        <pt x="126" y="311" on="1"/>
        <pt x="390" y="311" on="1"/>
        <pt x="390" y="270" on="1"/>
        <pt x="126" y="270" on="1"/>
        <pt x="126" y="0" on="1"/>
        <pt x="80" y="0" on="1"/>
      </contour>
      <contour>
        <pt x="509" y="577" on="1"/>
        <pt x="839" y="577" on="1"/>
        <pt x="839" y="536" on="1"/>
        <pt x="555" y="536" on="1"/>
        <pt x="555" y="311" on="1"/>
        <pt x="819" y="311" on="1"/>
        <pt x="819" y="270" on="1"/>
        <pt x="555" y="270" on="1"/>
        <pt x="555" y="0" on="1"/>
        <pt x="509" y="0" on="1"/>
      </contour>
    </TTGlyph>
    <TTGlyph name="F_F_B.sc" xMin="80" yMin="-8" xMax="1326" yMax="585">
      <contour>
        <pt x="80" y="577" on="1"/>
        <pt x="410" y="577" on="1"/>
        <pt x="410" y="536" on="1"/>
        <pt x="126" y="536" on="1"/>
        <pt x="126" y="311" on="1"/>
        <pt x="390" y="311" on="1"/>
        <pt x="390" y="270" on="1"/>
        <pt x="126" y="270" on="1"/>
        <pt x="126" y="0" on="1"/>
        <pt x="80" y="0" on="1"/>
      </contour>
      <contour>
        <pt x="509" y="577" on="1"/>
        <pt x="839" y="577" on="1"/>
        <pt x="839" y="536" on="1"/>
        <pt x="555" y="536" on="1"/>
        <pt x="555" y="311" on="1"/>
        <pt x="819" y="311" on="1"/>
        <pt x="819" y="270" on="1"/>
        <pt x="555" y="270" on="1"/>
        <pt x="555" y="0" on="1"/>
        <pt x="509" y="0" on="1"/>
      </contour>
      <contour>
        <pt x="1110" y="-8" on="1"/>
        <pt x="1090" y="-8" on="0"/>
        <pt x="1045" y="-6" on="0"/>
        <pt x="1000" y="-3" on="0"/>
        <pt x="957" y="1" on="0"/>
        <pt x="939" y="4" on="1"/>
        <pt x="939" y="574" on="1"/>
        <pt x="968" y="577" on="0"/>
        <pt x="1013" y="581" on="0"/>
        <pt x="1050" y="584" on="0"/>
        <pt x="1082" y="585" on="0"/>
        <pt x="1099" y="585" on="1"/>
        <pt x="1208" y="585" on="0"/>
        <pt x="1306" y="511" on="0"/>
        <pt x="1306" y="430" on="1"/>
        <pt x="1306" y="376" on="0"/>
        <pt x="1251" y="305" on="0"/>
        <pt x="1201" y="296" on="1"/>
        <pt x="1201" y="293" on="1"/>
        <pt x="1261" y="284" on="0"/>
        <pt x="1326" y="211" on="0"/>
        <pt x="1326" y="151" on="1"/>
        <pt x="1326" y="-8" on="0"/>
      </contour>
      <contour>
        <pt x="1112" y="29" on="1"/>
        <pt x="1279" y="29" on="0"/>
        <pt x="1279" y="152" on="1"/>
        <pt x="1279" y="215" on="0"/>
        <pt x="1198" y="273" on="0"/>
        <pt x="1106" y="273" on="1"/>
        <pt x="983" y="273" on="1"/>
        <pt x="983" y="38" on="1"/>
        <pt x="991" y="36" on="0"/>
        <pt x="1020" y="33" on="0"/>
        <pt x="1055" y="31" on="0"/>
        <pt x="1094" y="29" on="0"/>
      </contour>
      <contour>
        <pt x="1105" y="311" on="1"/>
        <pt x="1190" y="311" on="0"/>
        <pt x="1259" y="364" on="0"/>
        <pt x="1259" y="429" on="1"/>
        <pt x="1259" y="491" on="0"/>
        <pt x="1185" y="546" on="0"/>
        <pt x="1102" y="546" on="1"/>
        <pt x="1068" y="546" on="0"/>
        <pt x="1012" y="543" on="0"/>
        <pt x="983" y="539" on="1"/>
        <pt x="983" y="311" on="1"/>
      </contour>
    </TTGlyph>
    <TTGlyph name="F_F_H.sc" xMin="80" yMin="0" xMax="1362" yMax="577">
      <contour>
        <pt x="80" y="577" on="1"/>
        <pt x="410" y="577" on="1"/>
        <pt x="410" y="536" on="1"/>
        <pt x="126" y="536" on="1"/>
        <pt x="126" y="311" on="1"/>
        <pt x="390" y="311" on="1"/>
        <pt x="390" y="270" on="1"/>
        <pt x="126" y="270" on="1"/>
        <pt x="126" y="0" on="1"/>
        <pt x="80" y="0" on="1"/>
      </contour>
      <contour>
        <pt x="509" y="577" on="1"/>
        <pt x="839" y="577" on="1"/>
        <pt x="839" y="536" on="1"/>
        <pt x="555" y="536" on="1"/>
        <pt x="555" y="311" on="1"/>
        <pt x="819" y="311" on="1"/>
        <pt x="819" y="270" on="1"/>
        <pt x="555" y="270" on="1"/>
        <pt x="555" y="0" on="1"/>
        <pt x="509" y="0" on="1"/>
      </contour>
      <contour>
        <pt x="938" y="577" on="1"/>
        <pt x="984" y="577" on="1"/>
        <pt x="984" y="316" on="1"/>
        <pt x="1316" y="316" on="1"/>
        <pt x="1316" y="577" on="1"/>
        <pt x="1362" y="577" on="1"/>
        <pt x="1362" y="0" on="1"/>
        <pt x="1316" y="0" on="1"/>
        <pt x="1316" y="274" on="1"/>
        <pt x="984" y="274" on="1"/>
        <pt x="984" y="0" on="1"/>
        <pt x="938" y="0" on="1"/>
      </contour>
    </TTGlyph>
    <TTGlyph name="F_F_I.sc" xMin="80" yMin="0" xMax="984" yMax="577">
      <contour>
        <pt x="80" y="577" on="1"/>
        <pt x="410" y="577" on="1"/>
        <pt x="410" y="536" on="1"/>
        <pt x="126" y="536" on="1"/>
        <pt x="126" y="311" on="1"/>
        <pt x="390" y="311" on="1"/>
        <pt x="390" y="270" on="1"/>
        <pt x="126" y="270" on="1"/>
        <pt x="126" y="0" on="1"/>
        <pt x="80" y="0" on="1"/>
      </contour>
      <contour>
        <pt x="509" y="577" on="1"/>
        <pt x="839" y="577" on="1"/>
        <pt x="839" y="536" on="1"/>
        <pt x="555" y="536" on="1"/>
        <pt x="555" y="311" on="1"/>
        <pt x="819" y="311" on="1"/>
        <pt x="819" y="270" on="1"/>
        <pt x="555" y="270" on="1"/>
        <pt x="555" y="0" on="1"/>
        <pt x="509" y="0" on="1"/>
      </contour>
      <contour>
        <pt x="938" y="577" on="1"/>
        <pt x="984" y="577" on="1"/>
        <pt x="984" y="0" on="1"/>
        <pt x="938" y="0" on="1"/>
      </contour>
    </TTGlyph>
    <TTGlyph name="F_F_J.sc" xMin="80" yMin="-141" xMax="996" yMax="577">
      <contour>
        <pt x="80" y="577" on="1"/>
        <pt x="410" y="577" on="1"/>
        <pt x="410" y="536" on="1"/>
        <pt x="126" y="536" on="1"/>
        <pt x="126" y="311" on="1"/>
        <pt x="390" y="311" on="1"/>
        <pt x="390" y="270" on="1"/>
        <pt x="126" y="270" on="1"/>
        <pt x="126" y="0" on="1"/>
        <pt x="80" y="0" on="1"/>
      </contour>
      <contour>
        <pt x="509" y="577" on="1"/>
        <pt x="839" y="577" on="1"/>
        <pt x="839" y="536" on="1"/>
        <pt x="555" y="536" on="1"/>
        <pt x="555" y="311" on="1"/>
        <pt x="819" y="311" on="1"/>
        <pt x="819" y="270" on="1"/>
        <pt x="555" y="270" on="1"/>
        <pt x="555" y="0" on="1"/>
        <pt x="509" y="0" on="1"/>
      </contour>
      <contour>
        <pt x="880" y="-124" on="1"/>
        <pt x="901" y="-84" on="0"/>
        <pt x="928" y="-20" on="0"/>
        <pt x="944" y="41" on="0"/>
        <pt x="950" y="103" on="0"/>
        <pt x="950" y="142" on="1"/>
        <pt x="950" y="577" on="1"/>
        <pt x="996" y="577" on="1"/>
        <pt x="996" y="140" on="1"/>
        <pt x="996" y="103" on="0"/>
        <pt x="987" y="35" on="0"/>
        <pt x="967" y="-32" on="0"/>
        <pt x="935" y="-102" on="0"/>
        <pt x="912" y="-141" on="1"/>
      </contour>
    </TTGlyph>
    <TTGlyph name="F_F_K.sc" xMin="80" yMin="0" xMax="1360" yMax="577">
      <contour>
        <pt x="80" y="577" on="1"/>
        <pt x="410" y="577" on="1"/>
        <pt x="410" y="536" on="1"/>
        <pt x="126" y="536" on="1"/>
        <pt x="126" y="311" on="1"/>
        <pt x="390" y="311" on="1"/>
        <pt x="390" y="270" on="1"/>
        <pt x="126" y="270" on="1"/>
        <pt x="126" y="0" on="1"/>
        <pt x="80" y="0" on="1"/>
      </contour>
      <contour>
        <pt x="509" y="577" on="1"/>
        <pt x="839" y="577" on="1"/>
        <pt x="839" y="536" on="1"/>
        <pt x="555" y="536" on="1"/>
        <pt x="555" y="311" on="1"/>
        <pt x="819" y="311" on="1"/>
        <pt x="819" y="270" on="1"/>
        <pt x="555" y="270" on="1"/>
        <pt x="555" y="0" on="1"/>
        <pt x="509" y="0" on="1"/>
      </contour>
      <contour>
        <pt x="938" y="577" on="1"/>
        <pt x="984" y="577" on="1"/>
        <pt x="984" y="315" on="1"/>
        <pt x="1081" y="315" on="1"/>
        <pt x="1289" y="577" on="1"/>
        <pt x="1344" y="577" on="1"/>
        <pt x="1139" y="317" on="1"/>
        <pt x="1114" y="297" on="1"/>
        <pt x="1114" y="293" on="1"/>
        <pt x="1141" y="275" on="1"/>
        <pt x="1360" y="0" on="1"/>
        <pt x="1307" y="0" on="1"/>
        <pt x="1086" y="273" on="1"/>
        <pt x="984" y="273" on="1"/>
        <pt x="984" y="0" on="1"/>
        <pt x="938" y="0" on="1"/>
      </contour>
    </TTGlyph>
    <TTGlyph name="F_F_L.sc" xMin="80" yMin="0" xMax="1233" yMax="577">
      <contour>
        <pt x="938" y="577" on="1"/>
        <pt x="984" y="577" on="1"/>
        <pt x="984" y="41" on="1"/>
        <pt x="1233" y="41" on="1"/>
        <pt x="1233" y="0" on="1"/>
        <pt x="938" y="0" on="1"/>
      </contour>
      <contour>
        <pt x="80" y="577" on="1"/>
        <pt x="410" y="577" on="1"/>
        <pt x="410" y="536" on="1"/>
        <pt x="126" y="536" on="1"/>
        <pt x="126" y="311" on="1"/>
        <pt x="390" y="311" on="1"/>
        <pt x="390" y="270" on="1"/>
        <pt x="126" y="270" on="1"/>
        <pt x="126" y="0" on="1"/>
        <pt x="80" y="0" on="1"/>
      </contour>
      <contour>
        <pt x="509" y="577" on="1"/>
        <pt x="839" y="577" on="1"/>
        <pt x="839" y="536" on="1"/>
        <pt x="555" y="536" on="1"/>
        <pt x="555" y="311" on="1"/>
        <pt x="819" y="311" on="1"/>
        <pt x="819" y="270" on="1"/>
        <pt x="555" y="270" on="1"/>
        <pt x="555" y="0" on="1"/>
        <pt x="509" y="0" on="1"/>
      </contour>
    </TTGlyph>
    <TTGlyph name="F_F_T.sc" xMin="80" yMin="0" xMax="1271" yMax="577">
      <contour>
        <pt x="1044" y="535" on="1"/>
        <pt x="861" y="535" on="1"/>
        <pt x="861" y="577" on="1"/>
        <pt x="1271" y="577" on="1"/>
        <pt x="1271" y="535" on="1"/>
        <pt x="1089" y="535" on="1"/>
        <pt x="1089" y="0" on="1"/>
        <pt x="1044" y="0" on="1"/>
      </contour>
      <contour>
        <pt x="80" y="577" on="1"/>
        <pt x="410" y="577" on="1"/>
        <pt x="410" y="536" on="1"/>
        <pt x="126" y="536" on="1"/>
        <pt x="126" y="311" on="1"/>
        <pt x="390" y="311" on="1"/>
        <pt x="390" y="270" on="1"/>
        <pt x="126" y="270" on="1"/>
        <pt x="126" y="0" on="1"/>
        <pt x="80" y="0" on="1"/>
      </contour>
      <contour>
        <pt x="509" y="577" on="1"/>
        <pt x="839" y="577" on="1"/>
        <pt x="839" y="536" on="1"/>
        <pt x="555" y="536" on="1"/>
        <pt x="555" y="311" on="1"/>
        <pt x="819" y="311" on="1"/>
        <pt x="819" y="270" on="1"/>
        <pt x="555" y="270" on="1"/>
        <pt x="555" y="0" on="1"/>
        <pt x="509" y="0" on="1"/>
      </contour>
    </TTGlyph>
    <TTGlyph name="F_H.sc" xMin="80" yMin="0" xMax="933" yMax="577">
      <contour>
        <pt x="80" y="577" on="1"/>
        <pt x="410" y="577" on="1"/>
        <pt x="410" y="536" on="1"/>
        <pt x="126" y="536" on="1"/>
        <pt x="126" y="311" on="1"/>
        <pt x="390" y="311" on="1"/>
        <pt x="390" y="270" on="1"/>
        <pt x="126" y="270" on="1"/>
        <pt x="126" y="0" on="1"/>
        <pt x="80" y="0" on="1"/>
      </contour>
      <contour>
        <pt x="509" y="577" on="1"/>
        <pt x="555" y="577" on="1"/>
        <pt x="555" y="316" on="1"/>
        <pt x="887" y="316" on="1"/>
        <pt x="887" y="577" on="1"/>
        <pt x="933" y="577" on="1"/>
        <pt x="933" y="0" on="1"/>
        <pt x="887" y="0" on="1"/>
        <pt x="887" y="274" on="1"/>
        <pt x="555" y="274" on="1"/>
        <pt x="555" y="0" on="1"/>
        <pt x="509" y="0" on="1"/>
      </contour>
    </TTGlyph>
    <TTGlyph name="F_I.sc" xMin="80" yMin="0" xMax="555" yMax="577">
      <contour>
        <pt x="80" y="577" on="1"/>
        <pt x="410" y="577" on="1"/>
        <pt x="410" y="536" on="1"/>
        <pt x="126" y="536" on="1"/>
        <pt x="126" y="311" on="1"/>
        <pt x="390" y="311" on="1"/>
        <pt x="390" y="270" on="1"/>
        <pt x="126" y="270" on="1"/>
        <pt x="126" y="0" on="1"/>
        <pt x="80" y="0" on="1"/>
      </contour>
      <contour>
        <pt x="509" y="577" on="1"/>
        <pt x="555" y="577" on="1"/>
        <pt x="555" y="0" on="1"/>
        <pt x="509" y="0" on="1"/>
      </contour>
    </TTGlyph>
    <TTGlyph name="F_J.sc" xMin="80" yMin="-141" xMax="567" yMax="577">
      <contour>
        <pt x="80" y="577" on="1"/>
        <pt x="410" y="577" on="1"/>
        <pt x="410" y="536" on="1"/>
        <pt x="126" y="536" on="1"/>
        <pt x="126" y="311" on="1"/>
        <pt x="390" y="311" on="1"/>
        <pt x="390" y="270" on="1"/>
        <pt x="126" y="270" on="1"/>
        <pt x="126" y="0" on="1"/>
        <pt x="80" y="0" on="1"/>
      </contour>
      <contour>
        <pt x="451" y="-124" on="1"/>
        <pt x="472" y="-84" on="0"/>
        <pt x="499" y="-20" on="0"/>
        <pt x="515" y="41" on="0"/>
        <pt x="521" y="103" on="0"/>
        <pt x="521" y="142" on="1"/>
        <pt x="521" y="577" on="1"/>
        <pt x="567" y="577" on="1"/>
        <pt x="567" y="140" on="1"/>
        <pt x="567" y="103" on="0"/>
        <pt x="558" y="35" on="0"/>
        <pt x="538" y="-32" on="0"/>
        <pt x="506" y="-102" on="0"/>
        <pt x="483" y="-141" on="1"/>
      </contour>
    </TTGlyph>
    <TTGlyph name="F_K.sc" xMin="80" yMin="0" xMax="931" yMax="577">
      <contour>
        <pt x="80" y="577" on="1"/>
        <pt x="410" y="577" on="1"/>
        <pt x="410" y="536" on="1"/>
        <pt x="126" y="536" on="1"/>
        <pt x="126" y="311" on="1"/>
        <pt x="390" y="311" on="1"/>
        <pt x="390" y="270" on="1"/>
        <pt x="126" y="270" on="1"/>
        <pt x="126" y="0" on="1"/>
        <pt x="80" y="0" on="1"/>
      </contour>
      <contour>
        <pt x="509" y="577" on="1"/>
        <pt x="555" y="577" on="1"/>
        <pt x="555" y="315" on="1"/>
        <pt x="652" y="315" on="1"/>
        <pt x="860" y="577" on="1"/>
        <pt x="915" y="577" on="1"/>
        <pt x="710" y="317" on="1"/>
        <pt x="685" y="297" on="1"/>
        <pt x="685" y="293" on="1"/>
        <pt x="712" y="275" on="1"/>
        <pt x="931" y="0" on="1"/>
        <pt x="878" y="0" on="1"/>
        <pt x="657" y="273" on="1"/>
        <pt x="555" y="273" on="1"/>
        <pt x="555" y="0" on="1"/>
        <pt x="509" y="0" on="1"/>
      </contour>
    </TTGlyph>
    <TTGlyph name="F_L.sc" xMin="80" yMin="0" xMax="804" yMax="577">
      <contour>
        <pt x="509" y="577" on="1"/>
        <pt x="555" y="577" on="1"/>
        <pt x="555" y="41" on="1"/>
        <pt x="804" y="41" on="1"/>
        <pt x="804" y="0" on="1"/>
        <pt x="509" y="0" on="1"/>
      </contour>
      <contour>
        <pt x="80" y="577" on="1"/>
        <pt x="410" y="577" on="1"/>
        <pt x="410" y="536" on="1"/>
        <pt x="126" y="536" on="1"/>
        <pt x="126" y="311" on="1"/>
        <pt x="390" y="311" on="1"/>
        <pt x="390" y="270" on="1"/>
        <pt x="126" y="270" on="1"/>
        <pt x="126" y="0" on="1"/>
        <pt x="80" y="0" on="1"/>
      </contour>
    </TTGlyph>
    <TTGlyph name="F_T.sc" xMin="80" yMin="0" xMax="842" yMax="577">
      <contour>
        <pt x="615" y="535" on="1"/>
        <pt x="432" y="535" on="1"/>
        <pt x="432" y="577" on="1"/>
        <pt x="842" y="577" on="1"/>
        <pt x="842" y="535" on="1"/>
        <pt x="660" y="535" on="1"/>
        <pt x="660" y="0" on="1"/>
        <pt x="615" y="0" on="1"/>
      </contour>
      <contour>
        <pt x="80" y="577" on="1"/>
        <pt x="410" y="577" on="1"/>
        <pt x="410" y="536" on="1"/>
        <pt x="126" y="536" on="1"/>
        <pt x="126" y="311" on="1"/>
        <pt x="390" y="311" on="1"/>
        <pt x="390" y="270" on="1"/>
        <pt x="126" y="270" on="1"/>
        <pt x="126" y="0" on="1"/>
        <pt x="80" y="0" on="1"/>
      </contour>
    </TTGlyph>
    <TTGlyph name="G" xMin="51" yMin="-9" xMax="515" yMax="748">
      <contour>
        <pt x="363" y="-9" on="1"/>
        <pt x="201" y="-8" on="0"/>
        <pt x="51" y="175" on="0"/>
        <pt x="51" y="369" on="1"/>
        <pt x="51" y="469" on="0"/>
        <pt x="88" y="612" on="0"/>
        <pt x="165" y="704" on="0"/>
        <pt x="284" y="748" on="0"/>
        <pt x="367" y="748" on="1"/>
        <pt x="396" y="748" on="0"/>
        <pt x="477" y="739" on="0"/>
        <pt x="515" y="731" on="1"/>
        <pt x="515" y="687" on="1"/>
        <pt x="473" y="697" on="0"/>
        <pt x="403" y="705" on="0"/>
        <pt x="371" y="705" on="1"/>
        <pt x="299" y="705" on="0"/>
        <pt x="196" y="667" on="0"/>
        <pt x="130" y="586" on="0"/>
        <pt x="99" y="458" on="0"/>
        <pt x="99" y="369" on="1"/>
        <pt x="99" y="196" on="0"/>
        <pt x="227" y="34" on="0"/>
        <pt x="362" y="34" on="1"/>
        <pt x="380" y="34" on="0"/>
        <pt x="440" y="39" on="0"/>
        <pt x="470" y="44" on="1"/>
        <pt x="470" y="376" on="1"/>
        <pt x="515" y="376" on="1"/>
        <pt x="515" y="8" on="1"/>
        <pt x="472" y="0" on="0"/>
        <pt x="398" y="-9" on="0"/>
      </contour>
    </TTGlyph>
    <TTGlyph name="G.sc" xMin="50" yMin="-8" xMax="454" yMax="584">
      <contour>
        <pt x="318" y="-8" on="1"/>
        <pt x="179" y="-6" on="0"/>
        <pt x="50" y="136" on="0"/>
        <pt x="50" y="288" on="1"/>
        <pt x="50" y="442" on="0"/>
        <pt x="181" y="584" on="0"/>
        <pt x="324" y="584" on="1"/>
        <pt x="350" y="584" on="0"/>
        <pt x="419" y="577" on="0"/>
        <pt x="454" y="569" on="1"/>
        <pt x="454" y="528" on="1"/>
        <pt x="416" y="536" on="0"/>
        <pt x="356" y="543" on="0"/>
        <pt x="327" y="543" on="1"/>
        <pt x="266" y="543" on="0"/>
        <pt x="179" y="514" on="0"/>
        <pt x="123" y="452" on="0"/>
        <pt x="97" y="355" on="0"/>
        <pt x="97" y="288" on="1"/>
        <pt x="97" y="156" on="0"/>
        <pt x="204" y="34" on="0"/>
        <pt x="319" y="34" on="1"/>
        <pt x="334" y="34" on="0"/>
        <pt x="387" y="38" on="0"/>
        <pt x="411" y="42" on="1"/>
        <pt x="411" y="293" on="1"/>
        <pt x="454" y="293" on="1"/>
        <pt x="454" y="8" on="1"/>
        <pt x="416" y="0" on="0"/>
        <pt x="349" y="-8" on="0"/>
      </contour>
    </TTGlyph>
    <TTGlyph name="Gacute" xMin="51" yMin="-9" xMax="515" yMax="921">
      <contour>
        <pt x="314" y="794" on="1"/>
        <pt x="391" y="921" on="1"/>
        <pt x="441" y="921" on="1"/>
        <pt x="354" y="789" on="1"/>
      </contour>
      <contour>
        <pt x="363" y="-9" on="1"/>
        <pt x="201" y="-8" on="0"/>
        <pt x="51" y="175" on="0"/>
        <pt x="51" y="369" on="1"/>
        <pt x="51" y="469" on="0"/>
        <pt x="88" y="612" on="0"/>
        <pt x="165" y="704" on="0"/>
        <pt x="284" y="748" on="0"/>
        <pt x="367" y="748" on="1"/>
        <pt x="396" y="748" on="0"/>
        <pt x="477" y="739" on="0"/>
        <pt x="515" y="731" on="1"/>
        <pt x="515" y="687" on="1"/>
        <pt x="473" y="697" on="0"/>
        <pt x="403" y="705" on="0"/>
        <pt x="371" y="705" on="1"/>
        <pt x="299" y="705" on="0"/>
        <pt x="196" y="667" on="0"/>
        <pt x="130" y="586" on="0"/>
        <pt x="99" y="458" on="0"/>
        <pt x="99" y="369" on="1"/>
        <pt x="99" y="196" on="0"/>
        <pt x="227" y="34" on="0"/>
        <pt x="362" y="34" on="1"/>
        <pt x="380" y="34" on="0"/>
        <pt x="440" y="39" on="0"/>
        <pt x="470" y="44" on="1"/>
        <pt x="470" y="376" on="1"/>
        <pt x="515" y="376" on="1"/>
        <pt x="515" y="8" on="1"/>
        <pt x="472" y="0" on="0"/>
        <pt x="398" y="-9" on="0"/>
      </contour>
    </TTGlyph>
    <TTGlyph name="Gacute.sc" xMin="50" yMin="-8" xMax="454" yMax="723">
      <contour>
        <pt x="318" y="-8" on="1"/>
        <pt x="179" y="-6" on="0"/>
        <pt x="50" y="136" on="0"/>
        <pt x="50" y="288" on="1"/>
        <pt x="50" y="442" on="0"/>
        <pt x="181" y="584" on="0"/>
        <pt x="324" y="584" on="1"/>
        <pt x="350" y="584" on="0"/>
        <pt x="419" y="577" on="0"/>
        <pt x="454" y="569" on="1"/>
        <pt x="454" y="528" on="1"/>
        <pt x="416" y="536" on="0"/>
        <pt x="356" y="543" on="0"/>
        <pt x="327" y="543" on="1"/>
        <pt x="266" y="543" on="0"/>
        <pt x="179" y="514" on="0"/>
        <pt x="123" y="452" on="0"/>
        <pt x="97" y="355" on="0"/>
        <pt x="97" y="288" on="1"/>
        <pt x="97" y="156" on="0"/>
        <pt x="204" y="34" on="0"/>
        <pt x="319" y="34" on="1"/>
        <pt x="334" y="34" on="0"/>
        <pt x="387" y="38" on="0"/>
        <pt x="411" y="42" on="1"/>
        <pt x="411" y="293" on="1"/>
        <pt x="454" y="293" on="1"/>
        <pt x="454" y="8" on="1"/>
        <pt x="416" y="0" on="0"/>
        <pt x="349" y="-8" on="0"/>
      </contour>
      <contour>
        <pt x="274" y="620" on="1"/>
        <pt x="340" y="723" on="1"/>
        <pt x="388" y="723" on="1"/>
        <pt x="312" y="617" on="1"/>
      </contour>
    </TTGlyph>
    <TTGlyph name="Gbreve" xMin="51" yMin="-9" xMax="515" yMax="950">
      <contour>
        <pt x="339" y="815" on="1"/>
        <pt x="270" y="815" on="0"/>
        <pt x="192" y="887" on="0"/>
        <pt x="192" y="950" on="1"/>
        <pt x="233" y="950" on="1"/>
        <pt x="233" y="904" on="0"/>
        <pt x="288" y="853" on="0"/>
        <pt x="339" y="853" on="1"/>
        <pt x="390" y="853" on="0"/>
        <pt x="445" y="904" on="0"/>
        <pt x="445" y="950" on="1"/>
        <pt x="487" y="950" on="1"/>
        <pt x="487" y="887" on="0"/>
        <pt x="409" y="815" on="0"/>
      </contour>
      <contour>
        <pt x="363" y="-9" on="1"/>
        <pt x="201" y="-8" on="0"/>
        <pt x="51" y="175" on="0"/>
        <pt x="51" y="369" on="1"/>
        <pt x="51" y="469" on="0"/>
        <pt x="88" y="612" on="0"/>
        <pt x="165" y="704" on="0"/>
        <pt x="284" y="748" on="0"/>
        <pt x="367" y="748" on="1"/>
        <pt x="396" y="748" on="0"/>
        <pt x="477" y="739" on="0"/>
        <pt x="515" y="731" on="1"/>
        <pt x="515" y="687" on="1"/>
        <pt x="473" y="697" on="0"/>
        <pt x="403" y="705" on="0"/>
        <pt x="371" y="705" on="1"/>
        <pt x="299" y="705" on="0"/>
        <pt x="196" y="667" on="0"/>
        <pt x="130" y="586" on="0"/>
        <pt x="99" y="458" on="0"/>
        <pt x="99" y="369" on="1"/>
        <pt x="99" y="196" on="0"/>
        <pt x="227" y="34" on="0"/>
        <pt x="362" y="34" on="1"/>
        <pt x="380" y="34" on="0"/>
        <pt x="440" y="39" on="0"/>
        <pt x="470" y="44" on="1"/>
        <pt x="470" y="376" on="1"/>
        <pt x="515" y="376" on="1"/>
        <pt x="515" y="8" on="1"/>
        <pt x="472" y="0" on="0"/>
        <pt x="398" y="-9" on="0"/>
      </contour>
    </TTGlyph>
    <TTGlyph name="Gbreve.sc" xMin="50" yMin="-8" xMax="454" yMax="744">
      <contour>
        <pt x="318" y="-8" on="1"/>
        <pt x="179" y="-6" on="0"/>
        <pt x="50" y="136" on="0"/>
        <pt x="50" y="288" on="1"/>
        <pt x="50" y="442" on="0"/>
        <pt x="181" y="584" on="0"/>
        <pt x="324" y="584" on="1"/>
        <pt x="350" y="584" on="0"/>
        <pt x="419" y="577" on="0"/>
        <pt x="454" y="569" on="1"/>
        <pt x="454" y="528" on="1"/>
        <pt x="416" y="536" on="0"/>
        <pt x="356" y="543" on="0"/>
        <pt x="327" y="543" on="1"/>
        <pt x="266" y="543" on="0"/>
        <pt x="179" y="514" on="0"/>
        <pt x="123" y="452" on="0"/>
        <pt x="97" y="355" on="0"/>
        <pt x="97" y="288" on="1"/>
        <pt x="97" y="156" on="0"/>
        <pt x="204" y="34" on="0"/>
        <pt x="319" y="34" on="1"/>
        <pt x="334" y="34" on="0"/>
        <pt x="387" y="38" on="0"/>
        <pt x="411" y="42" on="1"/>
        <pt x="411" y="293" on="1"/>
        <pt x="454" y="293" on="1"/>
        <pt x="454" y="8" on="1"/>
        <pt x="416" y="0" on="0"/>
        <pt x="349" y="-8" on="0"/>
      </contour>
      <contour>
        <pt x="298" y="634" on="1"/>
        <pt x="237" y="634" on="0"/>
        <pt x="169" y="693" on="0"/>
        <pt x="169" y="744" on="1"/>
        <pt x="208" y="744" on="1"/>
        <pt x="208" y="706" on="0"/>
        <pt x="255" y="667" on="0"/>
        <pt x="298" y="667" on="1"/>
        <pt x="342" y="667" on="0"/>
        <pt x="389" y="706" on="0"/>
        <pt x="389" y="744" on="1"/>
        <pt x="428" y="744" on="1"/>
        <pt x="428" y="693" on="0"/>
        <pt x="360" y="634" on="0"/>
      </contour>
    </TTGlyph>
    <TTGlyph name="Gcircumflex" xMin="51" yMin="-9" xMax="515" yMax="936">
      <contour>
        <pt x="363" y="-9" on="1"/>
        <pt x="201" y="-8" on="0"/>
        <pt x="51" y="175" on="0"/>
        <pt x="51" y="369" on="1"/>
        <pt x="51" y="469" on="0"/>
        <pt x="88" y="612" on="0"/>
        <pt x="165" y="704" on="0"/>
        <pt x="284" y="748" on="0"/>
        <pt x="367" y="748" on="1"/>
        <pt x="396" y="748" on="0"/>
        <pt x="477" y="739" on="0"/>
        <pt x="515" y="731" on="1"/>
        <pt x="515" y="687" on="1"/>
        <pt x="473" y="697" on="0"/>
        <pt x="403" y="705" on="0"/>
        <pt x="371" y="705" on="1"/>
        <pt x="299" y="705" on="0"/>
        <pt x="196" y="667" on="0"/>
        <pt x="130" y="586" on="0"/>
        <pt x="99" y="458" on="0"/>
        <pt x="99" y="369" on="1"/>
        <pt x="99" y="196" on="0"/>
        <pt x="227" y="34" on="0"/>
        <pt x="362" y="34" on="1"/>
        <pt x="380" y="34" on="0"/>
        <pt x="440" y="39" on="0"/>
        <pt x="470" y="44" on="1"/>
        <pt x="470" y="376" on="1"/>
        <pt x="515" y="376" on="1"/>
        <pt x="515" y="8" on="1"/>
        <pt x="472" y="0" on="0"/>
        <pt x="398" y="-9" on="0"/>
      </contour>
      <contour>
        <pt x="205" y="864" on="1"/>
        <pt x="338" y="936" on="1"/>
        <pt x="471" y="864" on="1"/>
        <pt x="471" y="817" on="1"/>
        <pt x="338" y="889" on="1"/>
        <pt x="205" y="817" on="1"/>
      </contour>
    </TTGlyph>
    <TTGlyph name="Gcircumflex.sc" xMin="50" yMin="-8" xMax="454" yMax="734">
      <contour>
        <pt x="318" y="-8" on="1"/>
        <pt x="179" y="-6" on="0"/>
        <pt x="50" y="136" on="0"/>
        <pt x="50" y="288" on="1"/>
        <pt x="50" y="442" on="0"/>
        <pt x="181" y="584" on="0"/>
        <pt x="324" y="584" on="1"/>
        <pt x="350" y="584" on="0"/>
        <pt x="419" y="577" on="0"/>
        <pt x="454" y="569" on="1"/>
        <pt x="454" y="528" on="1"/>
        <pt x="416" y="536" on="0"/>
        <pt x="356" y="543" on="0"/>
        <pt x="327" y="543" on="1"/>
        <pt x="266" y="543" on="0"/>
        <pt x="179" y="514" on="0"/>
        <pt x="123" y="452" on="0"/>
        <pt x="97" y="355" on="0"/>
        <pt x="97" y="288" on="1"/>
        <pt x="97" y="156" on="0"/>
        <pt x="204" y="34" on="0"/>
        <pt x="319" y="34" on="1"/>
        <pt x="334" y="34" on="0"/>
        <pt x="387" y="38" on="0"/>
        <pt x="411" y="42" on="1"/>
        <pt x="411" y="293" on="1"/>
        <pt x="454" y="293" on="1"/>
        <pt x="454" y="8" on="1"/>
        <pt x="416" y="0" on="0"/>
        <pt x="349" y="-8" on="0"/>
      </contour>
      <contour>
        <pt x="180" y="677" on="1"/>
        <pt x="297" y="734" on="1"/>
        <pt x="414" y="677" on="1"/>
        <pt x="414" y="635" on="1"/>
        <pt x="297" y="691" on="1"/>
        <pt x="180" y="635" on="1"/>
      </contour>
    </TTGlyph>
    <TTGlyph name="Gcommaaccent" xMin="51" yMin="-220" xMax="515" yMax="748">
      <contour>
        <pt x="327" y="-67" on="1"/>
        <pt x="374" y="-67" on="1"/>
        <pt x="319" y="-220" on="1"/>
        <pt x="276" y="-220" on="1"/>
      </contour>
      <contour>
        <pt x="363" y="-9" on="1"/>
        <pt x="201" y="-8" on="0"/>
        <pt x="51" y="175" on="0"/>
        <pt x="51" y="369" on="1"/>
        <pt x="51" y="469" on="0"/>
        <pt x="88" y="612" on="0"/>
        <pt x="165" y="704" on="0"/>
        <pt x="284" y="748" on="0"/>
        <pt x="367" y="748" on="1"/>
        <pt x="396" y="748" on="0"/>
        <pt x="477" y="739" on="0"/>
        <pt x="515" y="731" on="1"/>
        <pt x="515" y="687" on="1"/>
        <pt x="473" y="697" on="0"/>
        <pt x="403" y="705" on="0"/>
        <pt x="371" y="705" on="1"/>
        <pt x="299" y="705" on="0"/>
        <pt x="196" y="667" on="0"/>
        <pt x="130" y="586" on="0"/>
        <pt x="99" y="458" on="0"/>
        <pt x="99" y="369" on="1"/>
        <pt x="99" y="196" on="0"/>
        <pt x="227" y="34" on="0"/>
        <pt x="362" y="34" on="1"/>
        <pt x="380" y="34" on="0"/>
        <pt x="440" y="39" on="0"/>
        <pt x="470" y="44" on="1"/>
        <pt x="470" y="376" on="1"/>
        <pt x="515" y="376" on="1"/>
        <pt x="515" y="8" on="1"/>
        <pt x="472" y="0" on="0"/>
        <pt x="398" y="-9" on="0"/>
      </contour>
    </TTGlyph>
    <TTGlyph name="Gcommaaccent.sc" xMin="50" yMin="-172" xMax="454" yMax="584">
      <contour>
        <pt x="318" y="-8" on="1"/>
        <pt x="179" y="-6" on="0"/>
        <pt x="50" y="136" on="0"/>
        <pt x="50" y="288" on="1"/>
        <pt x="50" y="442" on="0"/>
        <pt x="181" y="584" on="0"/>
        <pt x="324" y="584" on="1"/>
        <pt x="350" y="584" on="0"/>
        <pt x="419" y="577" on="0"/>
        <pt x="454" y="569" on="1"/>
        <pt x="454" y="528" on="1"/>
        <pt x="416" y="536" on="0"/>
        <pt x="356" y="543" on="0"/>
        <pt x="327" y="543" on="1"/>
        <pt x="266" y="543" on="0"/>
        <pt x="179" y="514" on="0"/>
        <pt x="123" y="452" on="0"/>
        <pt x="97" y="355" on="0"/>
        <pt x="97" y="288" on="1"/>
        <pt x="97" y="156" on="0"/>
        <pt x="204" y="34" on="0"/>
        <pt x="319" y="34" on="1"/>
        <pt x="334" y="34" on="0"/>
        <pt x="387" y="38" on="0"/>
        <pt x="411" y="42" on="1"/>
        <pt x="411" y="293" on="1"/>
        <pt x="454" y="293" on="1"/>
        <pt x="454" y="8" on="1"/>
        <pt x="416" y="0" on="0"/>
        <pt x="349" y="-8" on="0"/>
      </contour>
      <contour>
        <pt x="284" y="-53" on="1"/>
        <pt x="331" y="-53" on="1"/>
        <pt x="282" y="-172" on="1"/>
        <pt x="242" y="-172" on="1"/>
      </contour>
    </TTGlyph>
    <TTGlyph name="Gdotaccent" xMin="51" yMin="-9" xMax="515" yMax="877">
      <contour>
        <pt x="338" y="806" on="1"/>
        <pt x="322" y="806" on="0"/>
        <pt x="302" y="822" on="0"/>
        <pt x="302" y="841" on="1"/>
        <pt x="302" y="860" on="0"/>
        <pt x="322" y="877" on="0"/>
        <pt x="338" y="877" on="1"/>
        <pt x="354" y="877" on="0"/>
        <pt x="374" y="860" on="0"/>
        <pt x="374" y="841" on="1"/>
        <pt x="374" y="822" on="0"/>
        <pt x="354" y="806" on="0"/>
      </contour>
      <contour>
        <pt x="363" y="-9" on="1"/>
        <pt x="201" y="-8" on="0"/>
        <pt x="51" y="175" on="0"/>
        <pt x="51" y="369" on="1"/>
        <pt x="51" y="469" on="0"/>
        <pt x="88" y="612" on="0"/>
        <pt x="165" y="704" on="0"/>
        <pt x="284" y="748" on="0"/>
        <pt x="367" y="748" on="1"/>
        <pt x="396" y="748" on="0"/>
        <pt x="477" y="739" on="0"/>
        <pt x="515" y="731" on="1"/>
        <pt x="515" y="687" on="1"/>
        <pt x="473" y="697" on="0"/>
        <pt x="403" y="705" on="0"/>
        <pt x="371" y="705" on="1"/>
        <pt x="299" y="705" on="0"/>
        <pt x="196" y="667" on="0"/>
        <pt x="130" y="586" on="0"/>
        <pt x="99" y="458" on="0"/>
        <pt x="99" y="369" on="1"/>
        <pt x="99" y="196" on="0"/>
        <pt x="227" y="34" on="0"/>
        <pt x="362" y="34" on="1"/>
        <pt x="380" y="34" on="0"/>
        <pt x="440" y="39" on="0"/>
        <pt x="470" y="44" on="1"/>
        <pt x="470" y="376" on="1"/>
        <pt x="515" y="376" on="1"/>
        <pt x="515" y="8" on="1"/>
        <pt x="472" y="0" on="0"/>
        <pt x="398" y="-9" on="0"/>
      </contour>
    </TTGlyph>
    <TTGlyph name="Gdotaccent.sc" xMin="50" yMin="-8" xMax="454" yMax="693">
      <contour>
        <pt x="318" y="-8" on="1"/>
        <pt x="179" y="-6" on="0"/>
        <pt x="50" y="136" on="0"/>
        <pt x="50" y="288" on="1"/>
        <pt x="50" y="442" on="0"/>
        <pt x="181" y="584" on="0"/>
        <pt x="324" y="584" on="1"/>
        <pt x="350" y="584" on="0"/>
        <pt x="419" y="577" on="0"/>
        <pt x="454" y="569" on="1"/>
        <pt x="454" y="528" on="1"/>
        <pt x="416" y="536" on="0"/>
        <pt x="356" y="543" on="0"/>
        <pt x="327" y="543" on="1"/>
        <pt x="266" y="543" on="0"/>
        <pt x="179" y="514" on="0"/>
        <pt x="123" y="452" on="0"/>
        <pt x="97" y="355" on="0"/>
        <pt x="97" y="288" on="1"/>
        <pt x="97" y="156" on="0"/>
        <pt x="204" y="34" on="0"/>
        <pt x="319" y="34" on="1"/>
        <pt x="334" y="34" on="0"/>
        <pt x="387" y="38" on="0"/>
        <pt x="411" y="42" on="1"/>
        <pt x="411" y="293" on="1"/>
        <pt x="454" y="293" on="1"/>
        <pt x="454" y="8" on="1"/>
        <pt x="416" y="0" on="0"/>
        <pt x="349" y="-8" on="0"/>
      </contour>
      <contour>
        <pt x="298" y="629" on="1"/>
        <pt x="283" y="629" on="0"/>
        <pt x="264" y="644" on="0"/>
        <pt x="264" y="661" on="1"/>
        <pt x="264" y="678" on="0"/>
        <pt x="283" y="693" on="0"/>
        <pt x="298" y="693" on="1"/>
        <pt x="312" y="693" on="0"/>
        <pt x="332" y="678" on="0"/>
        <pt x="332" y="661" on="1"/>
        <pt x="332" y="644" on="0"/>
        <pt x="312" y="629" on="0"/>
      </contour>
    </TTGlyph>
    <TTGlyph name="H" xMin="85" yMin="0" xMax="568" yMax="740">
      <contour>
        <pt x="85" y="740" on="1"/>
        <pt x="131" y="740" on="1"/>
        <pt x="131" y="400" on="1"/>
        <pt x="521" y="400" on="1"/>
        <pt x="521" y="740" on="1"/>
        <pt x="568" y="740" on="1"/>
        <pt x="568" y="0" on="1"/>
        <pt x="521" y="0" on="1"/>
        <pt x="521" y="356" on="1"/>
        <pt x="131" y="356" on="1"/>
        <pt x="131" y="0" on="1"/>
        <pt x="85" y="0" on="1"/>
      </contour>
    </TTGlyph>
    <TTGlyph name="H.sc" xMin="80" yMin="0" xMax="504" yMax="577">
      <contour>
        <pt x="80" y="577" on="1"/>
        <pt x="126" y="577" on="1"/>
        <pt x="126" y="316" on="1"/>
        <pt x="458" y="316" on="1"/>
        <pt x="458" y="577" on="1"/>
        <pt x="504" y="577" on="1"/>
        <pt x="504" y="0" on="1"/>
        <pt x="458" y="0" on="1"/>
        <pt x="458" y="274" on="1"/>
        <pt x="126" y="274" on="1"/>
        <pt x="126" y="0" on="1"/>
        <pt x="80" y="0" on="1"/>
      </contour>
    </TTGlyph>
    <TTGlyph name="Hbar" xMin="3" yMin="0" xMax="680" yMax="740">
      <contour>
        <pt x="3" y="581" on="1"/>
        <pt x="100" y="581" on="1"/>
        <pt x="100" y="740" on="1"/>
        <pt x="146" y="740" on="1"/>
        <pt x="146" y="581" on="1"/>
        <pt x="536" y="581" on="1"/>
        <pt x="536" y="740" on="1"/>
        <pt x="583" y="740" on="1"/>
        <pt x="583" y="581" on="1"/>
        <pt x="680" y="581" on="1"/>
        <pt x="680" y="549" on="1"/>
        <pt x="583" y="549" on="1"/>
        <pt x="583" y="0" on="1"/>
        <pt x="536" y="0" on="1"/>
        <pt x="536" y="356" on="1"/>
        <pt x="146" y="356" on="1"/>
        <pt x="146" y="0" on="1"/>
        <pt x="100" y="0" on="1"/>
        <pt x="100" y="549" on="1"/>
        <pt x="3" y="549" on="1"/>
      </contour>
      <contour>
        <pt x="536" y="400" on="1"/>
        <pt x="536" y="549" on="1"/>
        <pt x="146" y="549" on="1"/>
        <pt x="146" y="400" on="1"/>
      </contour>
    </TTGlyph>
    <TTGlyph name="Hbar.sc" xMin="9" yMin="0" xMax="596" yMax="577">
      <contour>
        <pt x="9" y="456" on="1"/>
        <pt x="91" y="456" on="1"/>
        <pt x="91" y="577" on="1"/>
        <pt x="136" y="577" on="1"/>
        <pt x="136" y="456" on="1"/>
        <pt x="468" y="456" on="1"/>
        <pt x="468" y="577" on="1"/>
        <pt x="514" y="577" on="1"/>
        <pt x="514" y="456" on="1"/>
        <pt x="596" y="456" on="1"/>
        <pt x="596" y="427" on="1"/>
        <pt x="514" y="427" on="1"/>
        <pt x="514" y="0" on="1"/>
        <pt x="468" y="0" on="1"/>
        <pt x="468" y="274" on="1"/>
        <pt x="136" y="274" on="1"/>
        <pt x="136" y="0" on="1"/>
        <pt x="91" y="0" on="1"/>
        <pt x="91" y="427" on="1"/>
        <pt x="9" y="427" on="1"/>
      </contour>
      <contour>
        <pt x="468" y="315" on="1"/>
        <pt x="468" y="427" on="1"/>
        <pt x="136" y="427" on="1"/>
        <pt x="136" y="315" on="1"/>
      </contour>
    </TTGlyph>
    <TTGlyph name="Hcircumflex" xMin="85" yMin="0" xMax="568" yMax="936">
      <contour>
        <pt x="85" y="740" on="1"/>
        <pt x="131" y="740" on="1"/>
        <pt x="131" y="400" on="1"/>
        <pt x="521" y="400" on="1"/>
        <pt x="521" y="740" on="1"/>
        <pt x="568" y="740" on="1"/>
        <pt x="568" y="0" on="1"/>
        <pt x="521" y="0" on="1"/>
        <pt x="521" y="356" on="1"/>
        <pt x="131" y="356" on="1"/>
        <pt x="131" y="0" on="1"/>
        <pt x="85" y="0" on="1"/>
      </contour>
      <contour>
        <pt x="183" y="864" on="1"/>
        <pt x="316" y="936" on="1"/>
        <pt x="449" y="864" on="1"/>
        <pt x="449" y="817" on="1"/>
        <pt x="316" y="889" on="1"/>
        <pt x="183" y="817" on="1"/>
      </contour>
    </TTGlyph>
    <TTGlyph name="Hcircumflex.sc" xMin="80" yMin="0" xMax="504" yMax="734">
      <contour>
        <pt x="80" y="577" on="1"/>
        <pt x="126" y="577" on="1"/>
        <pt x="126" y="316" on="1"/>
        <pt x="458" y="316" on="1"/>
        <pt x="458" y="577" on="1"/>
        <pt x="504" y="577" on="1"/>
        <pt x="504" y="0" on="1"/>
        <pt x="458" y="0" on="1"/>
        <pt x="458" y="274" on="1"/>
        <pt x="126" y="274" on="1"/>
        <pt x="126" y="0" on="1"/>
        <pt x="80" y="0" on="1"/>
      </contour>
      <contour>
        <pt x="167" y="677" on="1"/>
        <pt x="284" y="734" on="1"/>
        <pt x="400" y="677" on="1"/>
        <pt x="400" y="635" on="1"/>
        <pt x="284" y="691" on="1"/>
        <pt x="167" y="635" on="1"/>
      </contour>
    </TTGlyph>
    <TTGlyph name="Hdotbelow" xMin="85" yMin="-167" xMax="568" yMax="740">
      <contour>
        <pt x="85" y="740" on="1"/>
        <pt x="131" y="740" on="1"/>
        <pt x="131" y="400" on="1"/>
        <pt x="521" y="400" on="1"/>
        <pt x="521" y="740" on="1"/>
        <pt x="568" y="740" on="1"/>
        <pt x="568" y="0" on="1"/>
        <pt x="521" y="0" on="1"/>
        <pt x="521" y="356" on="1"/>
        <pt x="131" y="356" on="1"/>
        <pt x="131" y="0" on="1"/>
        <pt x="85" y="0" on="1"/>
      </contour>
      <contour>
        <pt x="334" y="-167" on="1"/>
        <pt x="316" y="-167" on="0"/>
        <pt x="295" y="-149" on="0"/>
        <pt x="295" y="-128" on="1"/>
        <pt x="295" y="-107" on="0"/>
        <pt x="316" y="-89" on="0"/>
        <pt x="334" y="-89" on="1"/>
        <pt x="351" y="-89" on="0"/>
        <pt x="373" y="-107" on="0"/>
        <pt x="373" y="-128" on="1"/>
        <pt x="373" y="-149" on="0"/>
        <pt x="351" y="-167" on="0"/>
      </contour>
    </TTGlyph>
    <TTGlyph name="Hdotbelow.sc" xMin="80" yMin="-133" xMax="504" yMax="577">
      <contour>
        <pt x="80" y="577" on="1"/>
        <pt x="126" y="577" on="1"/>
        <pt x="126" y="316" on="1"/>
        <pt x="458" y="316" on="1"/>
        <pt x="458" y="577" on="1"/>
        <pt x="504" y="577" on="1"/>
        <pt x="504" y="0" on="1"/>
        <pt x="458" y="0" on="1"/>
        <pt x="458" y="274" on="1"/>
        <pt x="126" y="274" on="1"/>
        <pt x="126" y="0" on="1"/>
        <pt x="80" y="0" on="1"/>
      </contour>
      <contour>
        <pt x="299" y="-133" on="1"/>
        <pt x="264" y="-133" on="0"/>
        <pt x="264" y="-101" on="1"/>
        <pt x="264" y="-83" on="0"/>
        <pt x="282" y="-68" on="0"/>
        <pt x="299" y="-68" on="1"/>
        <pt x="315" y="-68" on="0"/>
        <pt x="334" y="-83" on="0"/>
        <pt x="334" y="-101" on="1"/>
        <pt x="334" y="-119" on="0"/>
        <pt x="315" y="-133" on="0"/>
      </contour>
    </TTGlyph>
    <TTGlyph name="I" xMin="85" yMin="0" xMax="131" yMax="740">
      <contour>
        <pt x="85" y="740" on="1"/>
        <pt x="131" y="740" on="1"/>
        <pt x="131" y="0" on="1"/>
        <pt x="85" y="0" on="1"/>
      </contour>
    </TTGlyph>
    <TTGlyph name="I.sc" xMin="80" yMin="0" xMax="126" yMax="577">
      <contour>
        <pt x="80" y="577" on="1"/>
        <pt x="126" y="577" on="1"/>
        <pt x="126" y="0" on="1"/>
        <pt x="80" y="0" on="1"/>
      </contour>
    </TTGlyph>
    <TTGlyph name="IJ" xMin="85" yMin="-178" xMax="349" yMax="740">
      <contour>
        <pt x="85" y="740" on="1"/>
        <pt x="131" y="740" on="1"/>
        <pt x="131" y="0" on="1"/>
        <pt x="85" y="0" on="1"/>
      </contour>
      <contour>
        <pt x="220" y="-159" on="1"/>
        <pt x="245" y="-107" on="0"/>
        <pt x="277" y="-25" on="0"/>
        <pt x="296" y="52" on="0"/>
        <pt x="303" y="131" on="0"/>
        <pt x="303" y="181" on="1"/>
        <pt x="303" y="740" on="1"/>
        <pt x="349" y="740" on="1"/>
        <pt x="349" y="180" on="1"/>
        <pt x="349" y="133" on="0"/>
        <pt x="338" y="46" on="0"/>
        <pt x="315" y="-41" on="0"/>
        <pt x="278" y="-129" on="0"/>
        <pt x="253" y="-178" on="1"/>
      </contour>
    </TTGlyph>
    <TTGlyph name="Iacute" xMin="85" yMin="0" xMax="214" yMax="921">
      <contour>
        <pt x="85" y="740" on="1"/>
        <pt x="131" y="740" on="1"/>
        <pt x="131" y="0" on="1"/>
        <pt x="85" y="0" on="1"/>
      </contour>
      <contour>
        <pt x="87" y="794" on="1"/>
        <pt x="164" y="921" on="1"/>
        <pt x="214" y="921" on="1"/>
        <pt x="127" y="789" on="1"/>
      </contour>
    </TTGlyph>
    <TTGlyph name="Iacute.sc" xMin="80" yMin="0" xMax="196" yMax="723">
      <contour>
        <pt x="80" y="577" on="1"/>
        <pt x="126" y="577" on="1"/>
        <pt x="126" y="0" on="1"/>
        <pt x="80" y="0" on="1"/>
      </contour>
      <contour>
        <pt x="82" y="620" on="1"/>
        <pt x="148" y="723" on="1"/>
        <pt x="196" y="723" on="1"/>
        <pt x="120" y="617" on="1"/>
      </contour>
    </TTGlyph>
    <TTGlyph name="Ibreve" xMin="-36" yMin="0" xMax="259" yMax="950">
      <contour>
        <pt x="85" y="740" on="1"/>
        <pt x="131" y="740" on="1"/>
        <pt x="131" y="0" on="1"/>
        <pt x="85" y="0" on="1"/>
      </contour>
      <contour>
        <pt x="111" y="815" on="1"/>
        <pt x="42" y="815" on="0"/>
        <pt x="-36" y="887" on="0"/>
        <pt x="-36" y="950" on="1"/>
        <pt x="5" y="950" on="1"/>
        <pt x="5" y="904" on="0"/>
        <pt x="60" y="853" on="0"/>
        <pt x="111" y="853" on="1"/>
        <pt x="162" y="853" on="0"/>
        <pt x="217" y="904" on="0"/>
        <pt x="217" y="950" on="1"/>
        <pt x="259" y="950" on="1"/>
        <pt x="259" y="887" on="0"/>
        <pt x="181" y="815" on="0"/>
      </contour>
    </TTGlyph>
    <TTGlyph name="Ibreve.sc" xMin="-23" yMin="0" xMax="235" yMax="744">
      <contour>
        <pt x="80" y="577" on="1"/>
        <pt x="126" y="577" on="1"/>
        <pt x="126" y="0" on="1"/>
        <pt x="80" y="0" on="1"/>
      </contour>
      <contour>
        <pt x="106" y="634" on="1"/>
        <pt x="44" y="634" on="0"/>
        <pt x="-23" y="693" on="0"/>
        <pt x="-23" y="744" on="1"/>
        <pt x="15" y="744" on="1"/>
        <pt x="15" y="706" on="0"/>
        <pt x="62" y="667" on="0"/>
        <pt x="106" y="667" on="1"/>
        <pt x="149" y="667" on="0"/>
        <pt x="196" y="706" on="0"/>
        <pt x="196" y="744" on="1"/>
        <pt x="235" y="744" on="1"/>
        <pt x="235" y="693" on="0"/>
        <pt x="167" y="634" on="0"/>
      </contour>
    </TTGlyph>
    <TTGlyph name="Icircumflex" xMin="-23" yMin="0" xMax="243" yMax="936">
      <contour>
        <pt x="85" y="740" on="1"/>
        <pt x="131" y="740" on="1"/>
        <pt x="131" y="0" on="1"/>
        <pt x="85" y="0" on="1"/>
      </contour>
      <contour>
        <pt x="-23" y="864" on="1"/>
        <pt x="110" y="936" on="1"/>
        <pt x="243" y="864" on="1"/>
        <pt x="243" y="817" on="1"/>
        <pt x="110" y="889" on="1"/>
        <pt x="-23" y="817" on="1"/>
      </contour>
    </TTGlyph>
    <TTGlyph name="Icircumflex.sc" xMin="-11" yMin="0" xMax="222" yMax="734">
      <contour>
        <pt x="80" y="577" on="1"/>
        <pt x="126" y="577" on="1"/>
        <pt x="126" y="0" on="1"/>
        <pt x="80" y="0" on="1"/>
      </contour>
      <contour>
        <pt x="-11" y="677" on="1"/>
        <pt x="106" y="734" on="1"/>
        <pt x="222" y="677" on="1"/>
        <pt x="222" y="635" on="1"/>
        <pt x="106" y="691" on="1"/>
        <pt x="-11" y="635" on="1"/>
      </contour>
    </TTGlyph>
    <TTGlyph name="Idblgrave" xMin="-61" yMin="0" xMax="198" yMax="918">
      <contour>
        <pt x="85" y="740" on="1"/>
        <pt x="131" y="740" on="1"/>
        <pt x="131" y="0" on="1"/>
        <pt x="85" y="0" on="1"/>
      </contour>
      <contour>
        <pt x="27" y="787" on="1"/>
        <pt x="-61" y="918" on="1"/>
        <pt x="-13" y="918" on="1"/>
        <pt x="64" y="801" on="1"/>
      </contour>
      <contour>
        <pt x="160" y="787" on="1"/>
        <pt x="72" y="918" on="1"/>
        <pt x="120" y="918" on="1"/>
        <pt x="198" y="801" on="1"/>
      </contour>
    </TTGlyph>
    <TTGlyph name="Idblgrave.sc" xMin="-45" yMin="0" xMax="184" yMax="721">
      <contour>
        <pt x="80" y="577" on="1"/>
        <pt x="126" y="577" on="1"/>
        <pt x="126" y="0" on="1"/>
        <pt x="80" y="0" on="1"/>
      </contour>
      <contour>
        <pt x="32" y="615" on="1"/>
        <pt x="-45" y="721" on="1"/>
        <pt x="1" y="721" on="1"/>
        <pt x="67" y="625" on="1"/>
      </contour>
      <contour>
        <pt x="149" y="615" on="1"/>
        <pt x="72" y="721" on="1"/>
        <pt x="117" y="721" on="1"/>
        <pt x="184" y="625" on="1"/>
      </contour>
    </TTGlyph>
    <TTGlyph name="Idieresis" xMin="-24" yMin="0" xMax="246" yMax="889">
      <contour>
        <pt x="85" y="740" on="1"/>
        <pt x="131" y="740" on="1"/>
        <pt x="131" y="0" on="1"/>
        <pt x="85" y="0" on="1"/>
      </contour>
      <contour>
        <pt x="12" y="817" on="1"/>
        <pt x="-4" y="817" on="0"/>
        <pt x="-24" y="834" on="0"/>
        <pt x="-24" y="853" on="1"/>
        <pt x="-24" y="872" on="0"/>
        <pt x="-4" y="889" on="0"/>
        <pt x="12" y="889" on="1"/>
        <pt x="27" y="889" on="0"/>
        <pt x="48" y="872" on="0"/>
        <pt x="48" y="853" on="1"/>
        <pt x="48" y="834" on="0"/>
        <pt x="27" y="817" on="0"/>
      </contour>
      <contour>
        <pt x="210" y="817" on="1"/>
        <pt x="193" y="817" on="0"/>
        <pt x="173" y="834" on="0"/>
        <pt x="173" y="853" on="1"/>
        <pt x="173" y="872" on="0"/>
        <pt x="193" y="889" on="0"/>
        <pt x="210" y="889" on="1"/>
        <pt x="224" y="889" on="0"/>
        <pt x="246" y="872" on="0"/>
        <pt x="246" y="853" on="1"/>
        <pt x="246" y="834" on="0"/>
        <pt x="224" y="817" on="0"/>
      </contour>
    </TTGlyph>
    <TTGlyph name="Idieresis.sc" xMin="-16" yMin="0" xMax="227" yMax="701">
      <contour>
        <pt x="80" y="577" on="1"/>
        <pt x="126" y="577" on="1"/>
        <pt x="126" y="0" on="1"/>
        <pt x="80" y="0" on="1"/>
      </contour>
      <contour>
        <pt x="17" y="637" on="1"/>
        <pt x="2" y="637" on="0"/>
        <pt x="-16" y="652" on="0"/>
        <pt x="-16" y="669" on="1"/>
        <pt x="-16" y="686" on="0"/>
        <pt x="2" y="701" on="0"/>
        <pt x="17" y="701" on="1"/>
        <pt x="32" y="701" on="0"/>
        <pt x="51" y="686" on="0"/>
        <pt x="51" y="669" on="1"/>
        <pt x="51" y="652" on="0"/>
        <pt x="32" y="637" on="0"/>
      </contour>
      <contour>
        <pt x="193" y="637" on="1"/>
        <pt x="178" y="637" on="0"/>
        <pt x="159" y="652" on="0"/>
        <pt x="159" y="669" on="1"/>
        <pt x="159" y="686" on="0"/>
        <pt x="178" y="701" on="0"/>
        <pt x="193" y="701" on="1"/>
        <pt x="207" y="701" on="0"/>
        <pt x="227" y="686" on="0"/>
        <pt x="227" y="669" on="1"/>
        <pt x="227" y="652" on="0"/>
        <pt x="207" y="637" on="0"/>
      </contour>
    </TTGlyph>
    <TTGlyph name="Idotaccent" xMin="74" yMin="0" xMax="146" yMax="877">
      <contour>
        <pt x="85" y="740" on="1"/>
        <pt x="131" y="740" on="1"/>
        <pt x="131" y="0" on="1"/>
        <pt x="85" y="0" on="1"/>
      </contour>
      <contour>
        <pt x="110" y="806" on="1"/>
        <pt x="94" y="806" on="0"/>
        <pt x="74" y="822" on="0"/>
        <pt x="74" y="841" on="1"/>
        <pt x="74" y="860" on="0"/>
        <pt x="94" y="877" on="0"/>
        <pt x="110" y="877" on="1"/>
        <pt x="126" y="877" on="0"/>
        <pt x="146" y="860" on="0"/>
        <pt x="146" y="841" on="1"/>
        <pt x="146" y="822" on="0"/>
        <pt x="126" y="806" on="0"/>
      </contour>
    </TTGlyph>
    <TTGlyph name="Idotaccent.sc" xMin="72" yMin="0" xMax="139" yMax="693">
      <contour>
        <pt x="80" y="577" on="1"/>
        <pt x="126" y="577" on="1"/>
        <pt x="126" y="0" on="1"/>
        <pt x="80" y="0" on="1"/>
      </contour>
      <contour>
        <pt x="105" y="629" on="1"/>
        <pt x="90" y="629" on="0"/>
        <pt x="72" y="644" on="0"/>
        <pt x="72" y="661" on="1"/>
        <pt x="72" y="678" on="0"/>
        <pt x="90" y="693" on="0"/>
        <pt x="105" y="693" on="1"/>
        <pt x="120" y="693" on="0"/>
        <pt x="139" y="678" on="0"/>
        <pt x="139" y="661" on="1"/>
        <pt x="139" y="644" on="0"/>
        <pt x="120" y="629" on="0"/>
      </contour>
    </TTGlyph>
    <TTGlyph name="Idotbelow" xMin="71" yMin="-167" xMax="149" yMax="740">
      <contour>
        <pt x="85" y="740" on="1"/>
        <pt x="131" y="740" on="1"/>
        <pt x="131" y="0" on="1"/>
        <pt x="85" y="0" on="1"/>
      </contour>
      <contour>
        <pt x="110" y="-167" on="1"/>
        <pt x="92" y="-167" on="0"/>
        <pt x="71" y="-149" on="0"/>
        <pt x="71" y="-128" on="1"/>
        <pt x="71" y="-107" on="0"/>
        <pt x="92" y="-89" on="0"/>
        <pt x="110" y="-89" on="1"/>
        <pt x="127" y="-89" on="0"/>
        <pt x="149" y="-107" on="0"/>
        <pt x="149" y="-128" on="1"/>
        <pt x="149" y="-149" on="0"/>
        <pt x="127" y="-167" on="0"/>
      </contour>
    </TTGlyph>
    <TTGlyph name="Idotbelow.sc" xMin="70" yMin="-133" xMax="141" yMax="577">
      <contour>
        <pt x="80" y="577" on="1"/>
        <pt x="126" y="577" on="1"/>
        <pt x="126" y="0" on="1"/>
        <pt x="80" y="0" on="1"/>
      </contour>
      <contour>
        <pt x="105" y="-133" on="1"/>
        <pt x="70" y="-133" on="0"/>
        <pt x="70" y="-101" on="1"/>
        <pt x="70" y="-83" on="0"/>
        <pt x="88" y="-68" on="0"/>
        <pt x="105" y="-68" on="1"/>
        <pt x="121" y="-68" on="0"/>
        <pt x="141" y="-83" on="0"/>
        <pt x="141" y="-101" on="1"/>
        <pt x="141" y="-119" on="0"/>
        <pt x="121" y="-133" on="0"/>
      </contour>
    </TTGlyph>
    <TTGlyph name="Igrave" xMin="1" yMin="0" xMax="131" yMax="921">
      <contour>
        <pt x="85" y="740" on="1"/>
        <pt x="131" y="740" on="1"/>
        <pt x="131" y="0" on="1"/>
        <pt x="85" y="0" on="1"/>
      </contour>
      <contour>
        <pt x="89" y="789" on="1"/>
        <pt x="1" y="921" on="1"/>
        <pt x="51" y="921" on="1"/>
        <pt x="129" y="803" on="1"/>
      </contour>
    </TTGlyph>
    <TTGlyph name="Igrave.sc" xMin="9" yMin="0" xMax="127" yMax="723">
      <contour>
        <pt x="80" y="577" on="1"/>
        <pt x="127" y="577" on="1"/>
        <pt x="127" y="0" on="1"/>
        <pt x="80" y="0" on="1"/>
      </contour>
      <contour>
        <pt x="85" y="617" on="1"/>
        <pt x="9" y="723" on="1"/>
        <pt x="57" y="723" on="1"/>
        <pt x="124" y="627" on="1"/>
      </contour>
    </TTGlyph>
    <TTGlyph name="Iinvertedbreve" xMin="-37" yMin="0" xMax="257" yMax="958">
      <contour>
        <pt x="85" y="740" on="1"/>
        <pt x="131" y="740" on="1"/>
        <pt x="131" y="0" on="1"/>
        <pt x="85" y="0" on="1"/>
      </contour>
      <contour>
        <pt x="216" y="822" on="1"/>
        <pt x="216" y="869" on="0"/>
        <pt x="161" y="920" on="0"/>
        <pt x="110" y="920" on="1"/>
        <pt x="59" y="920" on="0"/>
        <pt x="4" y="869" on="0"/>
        <pt x="4" y="822" on="1"/>
        <pt x="-37" y="822" on="1"/>
        <pt x="-37" y="885" on="0"/>
        <pt x="41" y="958" on="0"/>
        <pt x="110" y="958" on="1"/>
        <pt x="180" y="958" on="0"/>
        <pt x="257" y="885" on="0"/>
        <pt x="257" y="822" on="1"/>
      </contour>
    </TTGlyph>
    <TTGlyph name="Iinvertedbreve.sc" xMin="-24" yMin="0" xMax="234" yMax="749">
      <contour>
        <pt x="80" y="577" on="1"/>
        <pt x="126" y="577" on="1"/>
        <pt x="126" y="0" on="1"/>
        <pt x="80" y="0" on="1"/>
      </contour>
      <contour>
        <pt x="195" y="640" on="1"/>
        <pt x="195" y="677" on="0"/>
        <pt x="149" y="716" on="0"/>
        <pt x="105" y="716" on="1"/>
        <pt x="62" y="716" on="0"/>
        <pt x="15" y="677" on="0"/>
        <pt x="15" y="640" on="1"/>
        <pt x="-24" y="640" on="1"/>
        <pt x="-24" y="691" on="0"/>
        <pt x="43" y="749" on="0"/>
        <pt x="105" y="749" on="1"/>
        <pt x="167" y="749" on="0"/>
        <pt x="234" y="691" on="0"/>
        <pt x="234" y="640" on="1"/>
      </contour>
    </TTGlyph>
    <TTGlyph name="Imacron" xMin="-17" yMin="0" xMax="225" yMax="883">
      <contour>
        <pt x="85" y="740" on="1"/>
        <pt x="131" y="740" on="1"/>
        <pt x="131" y="0" on="1"/>
        <pt x="85" y="0" on="1"/>
      </contour>
      <contour>
        <pt x="-17" y="883" on="1"/>
        <pt x="225" y="883" on="1"/>
        <pt x="225" y="842" on="1"/>
        <pt x="-17" y="842" on="1"/>
      </contour>
    </TTGlyph>
    <TTGlyph name="Imacron.sc" xMin="-7" yMin="0" xMax="208" yMax="693">
      <contour>
        <pt x="80" y="577" on="1"/>
        <pt x="126" y="577" on="1"/>
        <pt x="126" y="0" on="1"/>
        <pt x="80" y="0" on="1"/>
      </contour>
      <contour>
        <pt x="-7" y="693" on="1"/>
        <pt x="208" y="693" on="1"/>
        <pt x="208" y="656" on="1"/>
        <pt x="-7" y="656" on="1"/>
      </contour>
    </TTGlyph>
    <TTGlyph name="Iogonek" xMin="-8" yMin="-220" xMax="131" yMax="740">
      <contour>
        <pt x="85" y="740" on="1"/>
        <pt x="131" y="740" on="1"/>
        <pt x="131" y="-19" on="1"/>
        <pt x="78" y="-45" on="0"/>
        <pt x="32" y="-101" on="0"/>
        <pt x="32" y="-135" on="1"/>
        <pt x="32" y="-182" on="0"/>
        <pt x="81" y="-182" on="1"/>
        <pt x="105" y="-182" on="0"/>
        <pt x="130" y="-171" on="1"/>
        <pt x="130" y="-208" on="1"/>
        <pt x="106" y="-220" on="0"/>
        <pt x="75" y="-220" on="1"/>
        <pt x="35" y="-220" on="0"/>
        <pt x="-8" y="-178" on="0"/>
        <pt x="-8" y="-138" on="1"/>
        <pt x="-8" y="-99" on="0"/>
        <pt x="39" y="-32" on="0"/>
        <pt x="92" y="0" on="1"/>
        <pt x="85" y="0" on="1"/>
      </contour>
    </TTGlyph>
    <TTGlyph name="Iogonek.sc" xMin="2" yMin="-172" xMax="126" yMax="577">
      <contour>
        <pt x="81" y="577" on="1"/>
        <pt x="126" y="577" on="1"/>
        <pt x="126" y="-14" on="1"/>
        <pt x="85" y="-30" on="0"/>
        <pt x="40" y="-77" on="0"/>
        <pt x="40" y="-105" on="1"/>
        <pt x="40" y="-138" on="0"/>
        <pt x="81" y="-138" on="1"/>
        <pt x="104" y="-138" on="0"/>
        <pt x="126" y="-130" on="1"/>
        <pt x="126" y="-162" on="1"/>
        <pt x="115" y="-167" on="0"/>
        <pt x="91" y="-172" on="0"/>
        <pt x="77" y="-172" on="1"/>
        <pt x="41" y="-172" on="0"/>
        <pt x="2" y="-139" on="0"/>
        <pt x="2" y="-107" on="1"/>
        <pt x="2" y="-76" on="0"/>
        <pt x="42" y="-26" on="0"/>
        <pt x="87" y="0" on="1"/>
        <pt x="81" y="0" on="1"/>
      </contour>
    </TTGlyph>
    <TTGlyph name="Itilde" xMin="-46" yMin="0" xMax="274" yMax="908">
      <contour>
        <pt x="85" y="740" on="1"/>
        <pt x="131" y="740" on="1"/>
        <pt x="131" y="0" on="1"/>
        <pt x="85" y="0" on="1"/>
      </contour>
      <contour>
        <pt x="-46" y="853" on="1"/>
        <pt x="-27" y="876" on="0"/>
        <pt x="24" y="908" on="0"/>
        <pt x="50" y="908" on="1"/>
        <pt x="70" y="908" on="0"/>
        <pt x="104" y="895" on="0"/>
        <pt x="135" y="878" on="0"/>
        <pt x="165" y="865" on="0"/>
        <pt x="183" y="865" on="1"/>
        <pt x="202" y="865" on="0"/>
        <pt x="234" y="886" on="0"/>
        <pt x="247" y="905" on="1"/>
        <pt x="274" y="883" on="1"/>
        <pt x="259" y="857" on="0"/>
        <pt x="206" y="825" on="0"/>
        <pt x="179" y="825" on="1"/>
        <pt x="160" y="825" on="0"/>
        <pt x="127" y="838" on="0"/>
        <pt x="96" y="855" on="0"/>
        <pt x="65" y="868" on="0"/>
        <pt x="48" y="868" on="1"/>
        <pt x="29" y="868" on="0"/>
        <pt x="-8" y="846" on="0"/>
        <pt x="-22" y="829" on="1"/>
      </contour>
    </TTGlyph>
    <TTGlyph name="Itilde.sc" xMin="-32" yMin="0" xMax="250" yMax="713">
      <contour>
        <pt x="80" y="577" on="1"/>
        <pt x="126" y="577" on="1"/>
        <pt x="126" y="0" on="1"/>
        <pt x="80" y="0" on="1"/>
      </contour>
      <contour>
        <pt x="-32" y="666" on="1"/>
        <pt x="-15" y="686" on="0"/>
        <pt x="31" y="713" on="0"/>
        <pt x="54" y="713" on="1"/>
        <pt x="71" y="713" on="0"/>
        <pt x="100" y="703" on="0"/>
        <pt x="127" y="690" on="0"/>
        <pt x="154" y="680" on="0"/>
        <pt x="170" y="680" on="1"/>
        <pt x="203" y="680" on="0"/>
        <pt x="228" y="711" on="1"/>
        <pt x="250" y="694" on="1"/>
        <pt x="236" y="671" on="0"/>
        <pt x="189" y="643" on="0"/>
        <pt x="165" y="643" on="1"/>
        <pt x="148" y="643" on="0"/>
        <pt x="119" y="654" on="0"/>
        <pt x="91" y="666" on="0"/>
        <pt x="64" y="677" on="0"/>
        <pt x="49" y="677" on="1"/>
        <pt x="33" y="677" on="0"/>
        <pt x="2" y="660" on="0"/>
        <pt x="-12" y="646" on="1"/>
      </contour>
    </TTGlyph>
    <TTGlyph name="J" xMin="4" yMin="-178" xMax="133" yMax="740">
      <contour>
        <pt x="4" y="-159" on="1"/>
        <pt x="29" y="-107" on="0"/>
        <pt x="61" y="-25" on="0"/>
        <pt x="80" y="52" on="0"/>
        <pt x="87" y="131" on="0"/>
        <pt x="87" y="181" on="1"/>
        <pt x="87" y="740" on="1"/>
        <pt x="133" y="740" on="1"/>
        <pt x="133" y="180" on="1"/>
        <pt x="133" y="133" on="0"/>
        <pt x="122" y="46" on="0"/>
        <pt x="99" y="-41" on="0"/>
        <pt x="62" y="-129" on="0"/>
        <pt x="37" y="-178" on="1"/>
      </contour>
    </TTGlyph>
    <TTGlyph name="J.sc" xMin="12" yMin="-141" xMax="128" yMax="577">
      <contour>
        <pt x="12" y="-124" on="1"/>
        <pt x="33" y="-84" on="0"/>
        <pt x="60" y="-20" on="0"/>
        <pt x="76" y="41" on="0"/>
        <pt x="82" y="103" on="0"/>
        <pt x="82" y="142" on="1"/>
        <pt x="82" y="577" on="1"/>
        <pt x="128" y="577" on="1"/>
        <pt x="128" y="140" on="1"/>
        <pt x="128" y="103" on="0"/>
        <pt x="119" y="35" on="0"/>
        <pt x="99" y="-32" on="0"/>
        <pt x="67" y="-102" on="0"/>
        <pt x="44" y="-141" on="1"/>
      </contour>
    </TTGlyph>
    <TTGlyph name="Jcircumflex" xMin="-25" yMin="-178" xMax="241" yMax="936">
      <contour>
        <pt x="4" y="-159" on="1"/>
        <pt x="29" y="-107" on="0"/>
        <pt x="61" y="-25" on="0"/>
        <pt x="80" y="52" on="0"/>
        <pt x="87" y="131" on="0"/>
        <pt x="87" y="181" on="1"/>
        <pt x="87" y="740" on="1"/>
        <pt x="133" y="740" on="1"/>
        <pt x="133" y="180" on="1"/>
        <pt x="133" y="133" on="0"/>
        <pt x="122" y="46" on="0"/>
        <pt x="99" y="-41" on="0"/>
        <pt x="62" y="-129" on="0"/>
        <pt x="37" y="-178" on="1"/>
      </contour>
      <contour>
        <pt x="-25" y="864" on="1"/>
        <pt x="108" y="936" on="1"/>
        <pt x="241" y="864" on="1"/>
        <pt x="241" y="817" on="1"/>
        <pt x="108" y="889" on="1"/>
        <pt x="-25" y="817" on="1"/>
      </contour>
    </TTGlyph>
    <TTGlyph name="Jcircumflex.sc" xMin="-13" yMin="-141" xMax="220" yMax="734">
      <contour>
        <pt x="13" y="-124" on="1"/>
        <pt x="34" y="-84" on="0"/>
        <pt x="60" y="-20" on="0"/>
        <pt x="76" y="41" on="0"/>
        <pt x="82" y="103" on="0"/>
        <pt x="82" y="142" on="1"/>
        <pt x="82" y="577" on="1"/>
        <pt x="128" y="577" on="1"/>
        <pt x="128" y="140" on="1"/>
        <pt x="128" y="103" on="0"/>
        <pt x="119" y="35" on="0"/>
        <pt x="98" y="-32" on="0"/>
        <pt x="66" y="-102" on="0"/>
        <pt x="44" y="-141" on="1"/>
      </contour>
      <contour>
        <pt x="-13" y="677" on="1"/>
        <pt x="104" y="734" on="1"/>
        <pt x="220" y="677" on="1"/>
        <pt x="220" y="635" on="1"/>
        <pt x="104" y="691" on="1"/>
        <pt x="-13" y="635" on="1"/>
      </contour>
    </TTGlyph>
    <TTGlyph name="K" xMin="85" yMin="0" xMax="568" yMax="740">
      <contour>
        <pt x="85" y="740" on="1"/>
        <pt x="131" y="740" on="1"/>
        <pt x="131" y="398" on="1"/>
        <pt x="242" y="398" on="1"/>
        <pt x="492" y="740" on="1"/>
        <pt x="548" y="740" on="1"/>
        <pt x="304" y="406" on="1"/>
        <pt x="278" y="381" on="1"/>
        <pt x="278" y="376" on="1"/>
        <pt x="306" y="353" on="1"/>
        <pt x="568" y="0" on="1"/>
        <pt x="513" y="0" on="1"/>
        <pt x="249" y="355" on="1"/>
        <pt x="131" y="355" on="1"/>
        <pt x="131" y="0" on="1"/>
        <pt x="85" y="0" on="1"/>
      </contour>
    </TTGlyph>
    <TTGlyph name="K.sc" xMin="80" yMin="0" xMax="502" yMax="577">
      <contour>
        <pt x="80" y="577" on="1"/>
        <pt x="126" y="577" on="1"/>
        <pt x="126" y="315" on="1"/>
        <pt x="223" y="315" on="1"/>
        <pt x="431" y="577" on="1"/>
        <pt x="486" y="577" on="1"/>
        <pt x="281" y="317" on="1"/>
        <pt x="256" y="297" on="1"/>
        <pt x="256" y="293" on="1"/>
        <pt x="283" y="275" on="1"/>
        <pt x="502" y="0" on="1"/>
        <pt x="449" y="0" on="1"/>
        <pt x="228" y="273" on="1"/>
        <pt x="126" y="273" on="1"/>
        <pt x="126" y="0" on="1"/>
        <pt x="80" y="0" on="1"/>
      </contour>
    </TTGlyph>
    <TTGlyph name="Kcommaaccent" xMin="85" yMin="-220" xMax="568" yMax="740">
      <contour>
        <pt x="279" y="-67" on="1"/>
        <pt x="326" y="-67" on="1"/>
        <pt x="271" y="-220" on="1"/>
        <pt x="228" y="-220" on="1"/>
      </contour>
      <contour>
        <pt x="85" y="740" on="1"/>
        <pt x="131" y="740" on="1"/>
        <pt x="131" y="398" on="1"/>
        <pt x="242" y="398" on="1"/>
        <pt x="492" y="740" on="1"/>
        <pt x="548" y="740" on="1"/>
        <pt x="304" y="406" on="1"/>
        <pt x="278" y="381" on="1"/>
        <pt x="278" y="376" on="1"/>
        <pt x="306" y="353" on="1"/>
        <pt x="568" y="0" on="1"/>
        <pt x="513" y="0" on="1"/>
        <pt x="249" y="355" on="1"/>
        <pt x="131" y="355" on="1"/>
        <pt x="131" y="0" on="1"/>
        <pt x="85" y="0" on="1"/>
      </contour>
    </TTGlyph>
    <TTGlyph name="Kcommaaccent.sc" xMin="80" yMin="-172" xMax="502" yMax="577">
      <contour>
        <pt x="80" y="577" on="1"/>
        <pt x="126" y="577" on="1"/>
        <pt x="126" y="315" on="1"/>
        <pt x="223" y="315" on="1"/>
        <pt x="431" y="577" on="1"/>
        <pt x="486" y="577" on="1"/>
        <pt x="281" y="317" on="1"/>
        <pt x="256" y="297" on="1"/>
        <pt x="256" y="293" on="1"/>
        <pt x="283" y="275" on="1"/>
        <pt x="502" y="0" on="1"/>
        <pt x="449" y="0" on="1"/>
        <pt x="228" y="273" on="1"/>
        <pt x="126" y="273" on="1"/>
        <pt x="126" y="0" on="1"/>
        <pt x="80" y="0" on="1"/>
      </contour>
      <contour>
        <pt x="248" y="-53" on="1"/>
        <pt x="295" y="-53" on="1"/>
        <pt x="247" y="-172" on="1"/>
        <pt x="205" y="-172" on="1"/>
      </contour>
    </TTGlyph>
    <TTGlyph name="L" xMin="85" yMin="0" xMax="418" yMax="740">
      <contour>
        <pt x="85" y="740" on="1"/>
        <pt x="131" y="740" on="1"/>
        <pt x="131" y="43" on="1"/>
        <pt x="418" y="43" on="1"/>
        <pt x="418" y="0" on="1"/>
        <pt x="85" y="0" on="1"/>
      </contour>
    </TTGlyph>
    <TTGlyph name="L.sc" xMin="80" yMin="0" xMax="375" yMax="577">
      <contour>
        <pt x="80" y="577" on="1"/>
        <pt x="126" y="577" on="1"/>
        <pt x="126" y="41" on="1"/>
        <pt x="375" y="41" on="1"/>
        <pt x="375" y="0" on="1"/>
        <pt x="80" y="0" on="1"/>
      </contour>
    </TTGlyph>
    <TTGlyph name="Lacute" xMin="85" yMin="0" xMax="418" yMax="921">
      <contour>
        <pt x="96" y="794" on="1"/>
        <pt x="173" y="921" on="1"/>
        <pt x="223" y="921" on="1"/>
        <pt x="136" y="789" on="1"/>
      </contour>
      <contour>
        <pt x="85" y="740" on="1"/>
        <pt x="131" y="740" on="1"/>
        <pt x="131" y="43" on="1"/>
        <pt x="418" y="43" on="1"/>
        <pt x="418" y="0" on="1"/>
        <pt x="85" y="0" on="1"/>
      </contour>
    </TTGlyph>
    <TTGlyph name="Lacute.sc" xMin="80" yMin="0" xMax="375" yMax="723">
      <contour>
        <pt x="80" y="577" on="1"/>
        <pt x="126" y="577" on="1"/>
        <pt x="126" y="41" on="1"/>
        <pt x="375" y="41" on="1"/>
        <pt x="375" y="0" on="1"/>
        <pt x="80" y="0" on="1"/>
      </contour>
      <contour>
        <pt x="90" y="620" on="1"/>
        <pt x="156" y="723" on="1"/>
        <pt x="205" y="723" on="1"/>
        <pt x="128" y="617" on="1"/>
      </contour>
    </TTGlyph>
    <TTGlyph name="Lcaron" xMin="85" yMin="0" xMax="418" yMax="745">
      <contour>
        <pt x="333" y="745" on="1"/>
        <pt x="376" y="745" on="1"/>
        <pt x="354" y="517" on="1"/>
        <pt x="333" y="517" on="1"/>
      </contour>
      <contour>
        <pt x="85" y="740" on="1"/>
        <pt x="131" y="740" on="1"/>
        <pt x="131" y="43" on="1"/>
        <pt x="418" y="43" on="1"/>
        <pt x="418" y="0" on="1"/>
        <pt x="85" y="0" on="1"/>
      </contour>
    </TTGlyph>
    <TTGlyph name="Lcaron.sc" xMin="81" yMin="0" xMax="375" yMax="585">
      <contour>
        <pt x="81" y="577" on="1"/>
        <pt x="126" y="577" on="1"/>
        <pt x="126" y="41" on="1"/>
        <pt x="375" y="41" on="1"/>
        <pt x="375" y="0" on="1"/>
        <pt x="81" y="0" on="1"/>
      </contour>
      <contour>
        <pt x="299" y="585" on="1"/>
        <pt x="340" y="585" on="1"/>
        <pt x="320" y="407" on="1"/>
        <pt x="299" y="407" on="1"/>
      </contour>
    </TTGlyph>
    <TTGlyph name="Lcommaaccent" xMin="85" yMin="-220" xMax="418" yMax="740">
      <contour>
        <pt x="241" y="-67" on="1"/>
        <pt x="288" y="-67" on="1"/>
        <pt x="233" y="-220" on="1"/>
        <pt x="190" y="-220" on="1"/>
      </contour>
      <contour>
        <pt x="85" y="740" on="1"/>
        <pt x="131" y="740" on="1"/>
        <pt x="131" y="43" on="1"/>
        <pt x="418" y="43" on="1"/>
        <pt x="418" y="0" on="1"/>
        <pt x="85" y="0" on="1"/>
      </contour>
    </TTGlyph>
    <TTGlyph name="Lcommaaccent.sc" xMin="80" yMin="-172" xMax="375" yMax="577">
      <contour>
        <pt x="80" y="577" on="1"/>
        <pt x="126" y="577" on="1"/>
        <pt x="126" y="41" on="1"/>
        <pt x="375" y="41" on="1"/>
        <pt x="375" y="0" on="1"/>
        <pt x="80" y="0" on="1"/>
      </contour>
      <contour>
        <pt x="214" y="-53" on="1"/>
        <pt x="261" y="-53" on="1"/>
        <pt x="212" y="-172" on="1"/>
        <pt x="171" y="-172" on="1"/>
      </contour>
    </TTGlyph>
    <TTGlyph name="Ldot" xMin="85" yMin="0" xMax="418" yMax="740">
      <contour>
        <pt x="85" y="740" on="1"/>
        <pt x="131" y="740" on="1"/>
        <pt x="131" y="43" on="1"/>
        <pt x="418" y="43" on="1"/>
        <pt x="418" y="0" on="1"/>
        <pt x="85" y="0" on="1"/>
      </contour>
      <contour>
        <pt x="333" y="335" on="1"/>
        <pt x="317" y="335" on="0"/>
        <pt x="297" y="352" on="0"/>
        <pt x="297" y="371" on="1"/>
        <pt x="297" y="390" on="0"/>
        <pt x="317" y="407" on="0"/>
        <pt x="333" y="407" on="1"/>
        <pt x="348" y="407" on="0"/>
        <pt x="369" y="390" on="0"/>
        <pt x="369" y="371" on="1"/>
        <pt x="369" y="352" on="0"/>
        <pt x="348" y="335" on="0"/>
      </contour>
    </TTGlyph>
    <TTGlyph name="Ldot.sc" xMin="80" yMin="0" xMax="375" yMax="577">
      <contour>
        <pt x="80" y="577" on="1"/>
        <pt x="126" y="577" on="1"/>
        <pt x="126" y="41" on="1"/>
        <pt x="375" y="41" on="1"/>
        <pt x="375" y="0" on="1"/>
        <pt x="80" y="0" on="1"/>
      </contour>
      <contour>
        <pt x="303" y="257" on="1"/>
        <pt x="270" y="257" on="0"/>
        <pt x="270" y="290" on="1"/>
        <pt x="270" y="322" on="0"/>
        <pt x="303" y="322" on="1"/>
        <pt x="317" y="322" on="0"/>
        <pt x="337" y="307" on="0"/>
        <pt x="337" y="290" on="1"/>
        <pt x="337" y="273" on="0"/>
        <pt x="317" y="257" on="0"/>
      </contour>
    </TTGlyph>
    <TTGlyph name="Lslash" xMin="14" yMin="0" xMax="442" yMax="740">
      <contour>
        <pt x="14" y="274" on="1"/>
        <pt x="109" y="353" on="1"/>
        <pt x="109" y="740" on="1"/>
        <pt x="155" y="740" on="1"/>
        <pt x="155" y="391" on="1"/>
        <pt x="276" y="492" on="1"/>
        <pt x="276" y="440" on="1"/>
        <pt x="155" y="339" on="1"/>
        <pt x="155" y="43" on="1"/>
        <pt x="442" y="43" on="1"/>
        <pt x="442" y="0" on="1"/>
        <pt x="109" y="0" on="1"/>
        <pt x="109" y="301" on="1"/>
        <pt x="14" y="222" on="1"/>
      </contour>
    </TTGlyph>
    <TTGlyph name="Lslash.sc" xMin="21" yMin="0" xMax="395" yMax="577">
      <contour>
        <pt x="21" y="219" on="1"/>
        <pt x="101" y="280" on="1"/>
        <pt x="101" y="577" on="1"/>
        <pt x="147" y="577" on="1"/>
        <pt x="147" y="310" on="1"/>
        <pt x="254" y="388" on="1"/>
        <pt x="254" y="342" on="1"/>
        <pt x="147" y="264" on="1"/>
        <pt x="147" y="41" on="1"/>
        <pt x="395" y="41" on="1"/>
        <pt x="395" y="0" on="1"/>
        <pt x="101" y="0" on="1"/>
        <pt x="101" y="234" on="1"/>
        <pt x="21" y="173" on="1"/>
      </contour>
    </TTGlyph>
    <TTGlyph name="M" xMin="85" yMin="0" xMax="726" yMax="740">
      <contour>
        <pt x="85" y="740" on="1"/>
        <pt x="145" y="740" on="1"/>
        <pt x="360" y="198" on="1"/>
        <pt x="403" y="83" on="1"/>
        <pt x="408" y="83" on="1"/>
        <pt x="451" y="198" on="1"/>
        <pt x="666" y="740" on="1"/>
        <pt x="726" y="740" on="1"/>
        <pt x="726" y="0" on="1"/>
        <pt x="681" y="0" on="1"/>
        <pt x="681" y="652" on="1"/>
        <pt x="677" y="653" on="1"/>
        <pt x="624" y="516" on="1"/>
        <pt x="431" y="30" on="1"/>
        <pt x="380" y="30" on="1"/>
        <pt x="187" y="516" on="1"/>
        <pt x="134" y="653" on="1"/>
        <pt x="130" y="652" on="1"/>
        <pt x="130" y="0" on="1"/>
        <pt x="85" y="0" on="1"/>
      </contour>
    </TTGlyph>
    <TTGlyph name="M.sc" xMin="80" yMin="0" xMax="641" yMax="577">
      <contour>
        <pt x="80" y="577" on="1"/>
        <pt x="140" y="577" on="1"/>
        <pt x="320" y="169" on="1"/>
        <pt x="358" y="77" on="1"/>
        <pt x="363" y="77" on="1"/>
        <pt x="401" y="169" on="1"/>
        <pt x="581" y="577" on="1"/>
        <pt x="641" y="577" on="1"/>
        <pt x="641" y="0" on="1"/>
        <pt x="597" y="0" on="1"/>
        <pt x="597" y="502" on="1"/>
        <pt x="593" y="503" on="1"/>
        <pt x="544" y="388" on="1"/>
        <pt x="385" y="25" on="1"/>
        <pt x="336" y="25" on="1"/>
        <pt x="177" y="388" on="1"/>
        <pt x="128" y="503" on="1"/>
        <pt x="125" y="502" on="1"/>
        <pt x="125" y="0" on="1"/>
        <pt x="80" y="0" on="1"/>
      </contour>
    </TTGlyph>
    <TTGlyph name="N" xMin="85" yMin="0" xMax="599" yMax="740">
      <contour>
        <pt x="85" y="740" on="1"/>
        <pt x="133" y="740" on="1"/>
        <pt x="499" y="165" on="1"/>
        <pt x="550" y="79" on="1"/>
        <pt x="554" y="79" on="1"/>
        <pt x="554" y="740" on="1"/>
        <pt x="599" y="740" on="1"/>
        <pt x="599" y="0" on="1"/>
        <pt x="550" y="0" on="1"/>
        <pt x="185" y="573" on="1"/>
        <pt x="134" y="660" on="1"/>
        <pt x="129" y="660" on="1"/>
        <pt x="129" y="0" on="1"/>
        <pt x="85" y="0" on="1"/>
      </contour>
    </TTGlyph>
    <TTGlyph name="N.sc" xMin="80" yMin="0" xMax="528" yMax="577">
      <contour>
        <pt x="80" y="577" on="1"/>
        <pt x="125" y="577" on="1"/>
        <pt x="436" y="143" on="1"/>
        <pt x="480" y="75" on="1"/>
        <pt x="484" y="75" on="1"/>
        <pt x="484" y="577" on="1"/>
        <pt x="528" y="577" on="1"/>
        <pt x="528" y="0" on="1"/>
        <pt x="483" y="0" on="1"/>
        <pt x="172" y="434" on="1"/>
        <pt x="128" y="502" on="1"/>
        <pt x="123" y="502" on="1"/>
        <pt x="123" y="0" on="1"/>
        <pt x="80" y="0" on="1"/>
      </contour>
    </TTGlyph>
    <TTGlyph name="Nacute" xMin="85" yMin="0" xMax="599" yMax="921">
      <contour>
        <pt x="321" y="794" on="1"/>
        <pt x="398" y="921" on="1"/>
        <pt x="448" y="921" on="1"/>
        <pt x="361" y="789" on="1"/>
      </contour>
      <contour>
        <pt x="85" y="740" on="1"/>
        <pt x="133" y="740" on="1"/>
        <pt x="499" y="165" on="1"/>
        <pt x="550" y="79" on="1"/>
        <pt x="554" y="79" on="1"/>
        <pt x="554" y="740" on="1"/>
        <pt x="599" y="740" on="1"/>
        <pt x="599" y="0" on="1"/>
        <pt x="550" y="0" on="1"/>
        <pt x="185" y="573" on="1"/>
        <pt x="134" y="660" on="1"/>
        <pt x="129" y="660" on="1"/>
        <pt x="129" y="0" on="1"/>
        <pt x="85" y="0" on="1"/>
      </contour>
    </TTGlyph>
    <TTGlyph name="Nacute.sc" xMin="80" yMin="0" xMax="528" yMax="723">
      <contour>
        <pt x="80" y="577" on="1"/>
        <pt x="125" y="577" on="1"/>
        <pt x="436" y="143" on="1"/>
        <pt x="480" y="75" on="1"/>
        <pt x="484" y="75" on="1"/>
        <pt x="484" y="577" on="1"/>
        <pt x="528" y="577" on="1"/>
        <pt x="528" y="0" on="1"/>
        <pt x="483" y="0" on="1"/>
        <pt x="172" y="434" on="1"/>
        <pt x="128" y="502" on="1"/>
        <pt x="123" y="502" on="1"/>
        <pt x="123" y="0" on="1"/>
        <pt x="80" y="0" on="1"/>
      </contour>
      <contour>
        <pt x="283" y="620" on="1"/>
        <pt x="349" y="723" on="1"/>
        <pt x="397" y="723" on="1"/>
        <pt x="321" y="617" on="1"/>
      </contour>
    </TTGlyph>
    <TTGlyph name="Ncaron" xMin="85" yMin="0" xMax="599" yMax="923">
      <contour>
        <pt x="216" y="923" on="1"/>
        <pt x="349" y="850" on="1"/>
        <pt x="482" y="923" on="1"/>
        <pt x="482" y="875" on="1"/>
        <pt x="349" y="803" on="1"/>
        <pt x="216" y="875" on="1"/>
      </contour>
      <contour>
        <pt x="85" y="740" on="1"/>
        <pt x="133" y="740" on="1"/>
        <pt x="499" y="165" on="1"/>
        <pt x="550" y="79" on="1"/>
        <pt x="554" y="79" on="1"/>
        <pt x="554" y="740" on="1"/>
        <pt x="599" y="740" on="1"/>
        <pt x="599" y="0" on="1"/>
        <pt x="550" y="0" on="1"/>
        <pt x="185" y="573" on="1"/>
        <pt x="134" y="660" on="1"/>
        <pt x="129" y="660" on="1"/>
        <pt x="129" y="0" on="1"/>
        <pt x="85" y="0" on="1"/>
      </contour>
    </TTGlyph>
    <TTGlyph name="Ncaron.sc" xMin="80" yMin="0" xMax="528" yMax="724">
      <contour>
        <pt x="80" y="577" on="1"/>
        <pt x="125" y="577" on="1"/>
        <pt x="436" y="143" on="1"/>
        <pt x="480" y="75" on="1"/>
        <pt x="484" y="75" on="1"/>
        <pt x="484" y="577" on="1"/>
        <pt x="528" y="577" on="1"/>
        <pt x="528" y="0" on="1"/>
        <pt x="483" y="0" on="1"/>
        <pt x="172" y="434" on="1"/>
        <pt x="128" y="502" on="1"/>
        <pt x="123" y="502" on="1"/>
        <pt x="123" y="0" on="1"/>
        <pt x="80" y="0" on="1"/>
      </contour>
      <contour>
        <pt x="193" y="683" on="1"/>
        <pt x="193" y="724" on="1"/>
        <pt x="310" y="668" on="1"/>
        <pt x="426" y="724" on="1"/>
        <pt x="426" y="683" on="1"/>
        <pt x="310" y="626" on="1"/>
      </contour>
    </TTGlyph>
    <TTGlyph name="Ncommaaccent" xMin="85" yMin="-220" xMax="599" yMax="740">
      <contour>
        <pt x="347" y="-67" on="1"/>
        <pt x="394" y="-67" on="1"/>
        <pt x="339" y="-220" on="1"/>
        <pt x="296" y="-220" on="1"/>
      </contour>
      <contour>
        <pt x="85" y="740" on="1"/>
        <pt x="133" y="740" on="1"/>
        <pt x="499" y="165" on="1"/>
        <pt x="550" y="79" on="1"/>
        <pt x="554" y="79" on="1"/>
        <pt x="554" y="740" on="1"/>
        <pt x="599" y="740" on="1"/>
        <pt x="599" y="0" on="1"/>
        <pt x="550" y="0" on="1"/>
        <pt x="185" y="573" on="1"/>
        <pt x="134" y="660" on="1"/>
        <pt x="129" y="660" on="1"/>
        <pt x="129" y="0" on="1"/>
        <pt x="85" y="0" on="1"/>
      </contour>
    </TTGlyph>
    <TTGlyph name="Ncommaaccent.sc" xMin="80" yMin="-172" xMax="528" yMax="577">
      <contour>
        <pt x="80" y="577" on="1"/>
        <pt x="125" y="577" on="1"/>
        <pt x="436" y="143" on="1"/>
        <pt x="480" y="75" on="1"/>
        <pt x="484" y="75" on="1"/>
        <pt x="484" y="577" on="1"/>
        <pt x="528" y="577" on="1"/>
        <pt x="528" y="0" on="1"/>
        <pt x="483" y="0" on="1"/>
        <pt x="172" y="434" on="1"/>
        <pt x="128" y="502" on="1"/>
        <pt x="123" y="502" on="1"/>
        <pt x="123" y="0" on="1"/>
        <pt x="80" y="0" on="1"/>
      </contour>
      <contour>
        <pt x="304" y="-53" on="1"/>
        <pt x="351" y="-53" on="1"/>
        <pt x="302" y="-172" on="1"/>
        <pt x="260" y="-172" on="1"/>
      </contour>
    </TTGlyph>
    <TTGlyph name="Ndotaccent" xMin="85" yMin="0" xMax="599" yMax="877">
      <contour>
        <pt x="346" y="806" on="1"/>
        <pt x="330" y="806" on="0"/>
        <pt x="310" y="822" on="0"/>
        <pt x="310" y="841" on="1"/>
        <pt x="310" y="860" on="0"/>
        <pt x="330" y="877" on="0"/>
        <pt x="346" y="877" on="1"/>
        <pt x="362" y="877" on="0"/>
        <pt x="382" y="860" on="0"/>
        <pt x="382" y="841" on="1"/>
        <pt x="382" y="822" on="0"/>
        <pt x="362" y="806" on="0"/>
      </contour>
      <contour>
        <pt x="85" y="740" on="1"/>
        <pt x="133" y="740" on="1"/>
        <pt x="499" y="165" on="1"/>
        <pt x="550" y="79" on="1"/>
        <pt x="554" y="79" on="1"/>
        <pt x="554" y="740" on="1"/>
        <pt x="599" y="740" on="1"/>
        <pt x="599" y="0" on="1"/>
        <pt x="550" y="0" on="1"/>
        <pt x="185" y="573" on="1"/>
        <pt x="134" y="660" on="1"/>
        <pt x="129" y="660" on="1"/>
        <pt x="129" y="0" on="1"/>
        <pt x="85" y="0" on="1"/>
      </contour>
    </TTGlyph>
    <TTGlyph name="Ndotaccent.sc" xMin="80" yMin="0" xMax="528" yMax="693">
      <contour>
        <pt x="80" y="577" on="1"/>
        <pt x="125" y="577" on="1"/>
        <pt x="436" y="143" on="1"/>
        <pt x="480" y="75" on="1"/>
        <pt x="484" y="75" on="1"/>
        <pt x="484" y="577" on="1"/>
        <pt x="528" y="577" on="1"/>
        <pt x="528" y="0" on="1"/>
        <pt x="483" y="0" on="1"/>
        <pt x="172" y="434" on="1"/>
        <pt x="128" y="502" on="1"/>
        <pt x="123" y="502" on="1"/>
        <pt x="123" y="0" on="1"/>
        <pt x="80" y="0" on="1"/>
      </contour>
      <contour>
        <pt x="307" y="629" on="1"/>
        <pt x="292" y="629" on="0"/>
        <pt x="274" y="644" on="0"/>
        <pt x="274" y="661" on="1"/>
        <pt x="274" y="678" on="0"/>
        <pt x="292" y="693" on="0"/>
        <pt x="307" y="693" on="1"/>
        <pt x="322" y="693" on="0"/>
        <pt x="341" y="678" on="0"/>
        <pt x="341" y="661" on="1"/>
        <pt x="341" y="644" on="0"/>
        <pt x="322" y="629" on="0"/>
      </contour>
    </TTGlyph>
    <TTGlyph name="Ntilde" xMin="85" yMin="0" xMax="599" yMax="908">
      <contour>
        <pt x="190" y="853" on="1"/>
        <pt x="209" y="876" on="0"/>
        <pt x="260" y="908" on="0"/>
        <pt x="286" y="908" on="1"/>
        <pt x="306" y="908" on="0"/>
        <pt x="340" y="895" on="0"/>
        <pt x="371" y="878" on="0"/>
        <pt x="401" y="865" on="0"/>
        <pt x="419" y="865" on="1"/>
        <pt x="438" y="865" on="0"/>
        <pt x="470" y="886" on="0"/>
        <pt x="483" y="905" on="1"/>
        <pt x="510" y="883" on="1"/>
        <pt x="495" y="857" on="0"/>
        <pt x="442" y="825" on="0"/>
        <pt x="415" y="825" on="1"/>
        <pt x="396" y="825" on="0"/>
        <pt x="363" y="838" on="0"/>
        <pt x="332" y="855" on="0"/>
        <pt x="301" y="868" on="0"/>
        <pt x="284" y="868" on="1"/>
        <pt x="265" y="868" on="0"/>
        <pt x="228" y="846" on="0"/>
        <pt x="214" y="829" on="1"/>
      </contour>
      <contour>
        <pt x="85" y="740" on="1"/>
        <pt x="133" y="740" on="1"/>
        <pt x="499" y="165" on="1"/>
        <pt x="550" y="79" on="1"/>
        <pt x="554" y="79" on="1"/>
        <pt x="554" y="740" on="1"/>
        <pt x="599" y="740" on="1"/>
        <pt x="599" y="0" on="1"/>
        <pt x="550" y="0" on="1"/>
        <pt x="185" y="573" on="1"/>
        <pt x="134" y="660" on="1"/>
        <pt x="129" y="660" on="1"/>
        <pt x="129" y="0" on="1"/>
        <pt x="85" y="0" on="1"/>
      </contour>
    </TTGlyph>
    <TTGlyph name="Ntilde.sc" xMin="80" yMin="0" xMax="528" yMax="713">
      <contour>
        <pt x="170" y="666" on="1"/>
        <pt x="187" y="686" on="0"/>
        <pt x="233" y="713" on="0"/>
        <pt x="256" y="713" on="1"/>
        <pt x="273" y="713" on="0"/>
        <pt x="302" y="703" on="0"/>
        <pt x="329" y="690" on="0"/>
        <pt x="356" y="680" on="0"/>
        <pt x="372" y="680" on="1"/>
        <pt x="405" y="680" on="0"/>
        <pt x="430" y="711" on="1"/>
        <pt x="452" y="694" on="1"/>
        <pt x="438" y="671" on="0"/>
        <pt x="391" y="643" on="0"/>
        <pt x="367" y="643" on="1"/>
        <pt x="350" y="643" on="0"/>
        <pt x="321" y="654" on="0"/>
        <pt x="293" y="666" on="0"/>
        <pt x="266" y="677" on="0"/>
        <pt x="251" y="677" on="1"/>
        <pt x="235" y="677" on="0"/>
        <pt x="204" y="660" on="0"/>
        <pt x="190" y="646" on="1"/>
      </contour>
      <contour>
        <pt x="80" y="577" on="1"/>
        <pt x="125" y="577" on="1"/>
        <pt x="436" y="143" on="1"/>
        <pt x="480" y="75" on="1"/>
        <pt x="484" y="75" on="1"/>
        <pt x="484" y="577" on="1"/>
        <pt x="528" y="577" on="1"/>
        <pt x="528" y="0" on="1"/>
        <pt x="483" y="0" on="1"/>
        <pt x="172" y="434" on="1"/>
        <pt x="128" y="502" on="1"/>
        <pt x="123" y="502" on="1"/>
        <pt x="123" y="0" on="1"/>
        <pt x="80" y="0" on="1"/>
      </contour>
    </TTGlyph>
    <TTGlyph name="O" xMin="51" yMin="-10" xMax="586" yMax="750">
      <contour>
        <pt x="318" y="-10" on="1"/>
        <pt x="185" y="-10" on="0"/>
        <pt x="51" y="179" on="0"/>
        <pt x="51" y="369" on="1"/>
        <pt x="51" y="561" on="0"/>
        <pt x="185" y="750" on="0"/>
        <pt x="318" y="750" on="1"/>
        <pt x="451" y="750" on="0"/>
        <pt x="586" y="560" on="0"/>
        <pt x="586" y="369" on="1"/>
        <pt x="586" y="180" on="0"/>
        <pt x="451" y="-10" on="0"/>
      </contour>
      <contour>
        <pt x="318" y="34" on="1"/>
        <pt x="431" y="34" on="0"/>
        <pt x="540" y="197" on="0"/>
        <pt x="540" y="369" on="1"/>
        <pt x="540" y="707" on="0"/>
        <pt x="318" y="707" on="1"/>
        <pt x="206" y="707" on="0"/>
        <pt x="97" y="541" on="0"/>
        <pt x="97" y="369" on="1"/>
        <pt x="97" y="197" on="0"/>
        <pt x="205" y="34" on="0"/>
      </contour>
    </TTGlyph>
    <TTGlyph name="O.sc" xMin="50" yMin="-8" xMax="518" yMax="585">
      <contour>
        <pt x="284" y="-8" on="1"/>
        <pt x="168" y="-8" on="0"/>
        <pt x="50" y="139" on="0"/>
        <pt x="50" y="288" on="1"/>
        <pt x="50" y="437" on="0"/>
        <pt x="168" y="585" on="0"/>
        <pt x="284" y="585" on="1"/>
        <pt x="399" y="585" on="0"/>
        <pt x="518" y="437" on="0"/>
        <pt x="518" y="288" on="1"/>
        <pt x="518" y="140" on="0"/>
        <pt x="399" y="-8" on="0"/>
      </contour>
      <contour>
        <pt x="284" y="34" on="1"/>
        <pt x="380" y="34" on="0"/>
        <pt x="472" y="157" on="0"/>
        <pt x="472" y="288" on="1"/>
        <pt x="472" y="544" on="0"/>
        <pt x="284" y="544" on="1"/>
        <pt x="188" y="544" on="0"/>
        <pt x="96" y="420" on="0"/>
        <pt x="96" y="288" on="1"/>
        <pt x="96" y="157" on="0"/>
        <pt x="187" y="34" on="0"/>
      </contour>
    </TTGlyph>
    <TTGlyph name="OE" xMin="51" yMin="-4" xMax="768" yMax="744">
      <contour>
        <pt x="321" y="-4" on="1"/>
        <pt x="187" y="-4" on="0"/>
        <pt x="51" y="182" on="0"/>
        <pt x="51" y="369" on="1"/>
        <pt x="51" y="557" on="0"/>
        <pt x="187" y="744" on="0"/>
        <pt x="321" y="744" on="1"/>
        <pt x="341" y="744" on="0"/>
        <pt x="391" y="742" on="0"/>
        <pt x="408" y="740" on="1"/>
        <pt x="759" y="740" on="1"/>
        <pt x="759" y="697" on="1"/>
        <pt x="452" y="697" on="1"/>
        <pt x="452" y="398" on="1"/>
        <pt x="731" y="398" on="1"/>
        <pt x="731" y="355" on="1"/>
        <pt x="452" y="355" on="1"/>
        <pt x="452" y="43" on="1"/>
        <pt x="768" y="43" on="1"/>
        <pt x="768" y="0" on="1"/>
        <pt x="408" y="0" on="1"/>
        <pt x="391" y="-2" on="0"/>
        <pt x="341" y="-4" on="0"/>
      </contour>
      <contour>
        <pt x="322" y="39" on="1"/>
        <pt x="341" y="39" on="0"/>
        <pt x="389" y="41" on="0"/>
        <pt x="406" y="44" on="1"/>
        <pt x="406" y="695" on="1"/>
        <pt x="389" y="698" on="0"/>
        <pt x="342" y="701" on="0"/>
        <pt x="322" y="701" on="1"/>
        <pt x="208" y="701" on="0"/>
        <pt x="98" y="538" on="0"/>
        <pt x="98" y="369" on="1"/>
        <pt x="98" y="200" on="0"/>
        <pt x="207" y="39" on="0"/>
      </contour>
    </TTGlyph>
</ttFont>
